<svg width="439" height="518" viewBox="0 0 439 518" fill="none" xmlns="http://www.w3.org/2000/svg">
<path d="M1.1001 182.448L266.2 398.048L232.8 516.449L8.70013 308.548L1.1001 182.448Z" stroke="white" stroke-width="2" stroke-miterlimit="10" stroke-linecap="round" stroke-linejoin="round"/>
<path d="M232.8 516.449L388.3 371.049L437.1 258.549L266.2 398.049L321.1 156.649C321.1 156.649 327.3 128.849 332.1 119.649C336 112.049 345 102.149 356.1 102.149C359 102.149 361.5 102.649 363.5 103.549C367.9 105.349 371.3 108.849 373.2 113.249L436.9 258.749" stroke="white" stroke-width="2" stroke-miterlimit="10" stroke-linecap="round" stroke-linejoin="round"/>
<path d="M306.7 220.149L121.8 96.6486L1 182.449L124.3 34.9486C124.3 34.9486 135.2 22.5486 139 18.6486C144 13.5486 152.2 5.94858 163 2.34858C167.2 0.948581 171.5 0.748575 175.8 1.24858C178.2 1.54858 184.5 3.24858 186.1 7.84858" stroke="white" stroke-width="2" stroke-miterlimit="10" stroke-linecap="round" stroke-linejoin="round"/>
<path d="M313.6 189.949C312.2 175.049 311 168.549 305.3 156.549C299.5 144.249 287.3 136.349 287.3 136.349L194.2 79.2486C194.2 79.2486 182.6 73.7486 171.5 81.4486C160.4 89.1486 159.8 114.949 159.8 114.949V121.949" stroke="white" stroke-width="2" stroke-miterlimit="10" stroke-linecap="round" stroke-linejoin="round"/>
<path d="M311.2 177.049L192 101.849V78.8486" stroke="white" stroke-width="2" stroke-miterlimit="10" stroke-linecap="round" stroke-linejoin="round"/>
<path d="M121.8 96.6485L151.9 29.3485L155.7 31.2485C157.5 28.7485 159.7 26.1485 161.9 24.1485C179.4 7.94848 191.3 6.14848 196.6 4.84848C211.2 1.04848 241.7 -0.0515232 275.6 26.6485C315.9 58.3485 336.8 112.648 336.8 112.648" stroke="white" stroke-width="2" stroke-miterlimit="10" stroke-linecap="round" stroke-linejoin="round"/>
<path d="M192 101.848L162.1 98.4485" stroke="white" stroke-width="2" stroke-miterlimit="10" stroke-linecap="round" stroke-linejoin="round"/>
<path d="M357.5 230.5V246.849L362.4 250.749C363.4 251.449 364.7 251.849 365.9 251.849C368.5 251.849 370.9 250.149 371.7 247.649L371.9 246.849C372.1 246.149 372.2 245.449 372.2 244.649L367.4 150.549C367.3 147.749 366.7 145.049 365.8 142.349C365.2 140.449 364.2 138.749 363 137.249C361.2 135.049 358.9 133.249 356.3 132.149L354.1 131.349C352.7 130.849 351.1 131.849 350.9 133.349V150.549" stroke="white" stroke-width="2" stroke-miterlimit="10" stroke-linecap="round" stroke-linejoin="round"/>
<path d="M350.4 139.049L346.1 141.149L351.4 251.949L357.3 247.149" stroke="white" stroke-width="2" stroke-miterlimit="10" stroke-linecap="round" stroke-linejoin="round"/>
</svg>
