<svg width="303" height="301" viewBox="0 0 303 301" fill="none" xmlns="http://www.w3.org/2000/svg">
<path d="M5.45151 188.377C5.1108 187.014 4.94044 185.48 5.28116 184.288C5.62187 182.925 6.3033 181.732 7.15509 180.88C8.17723 179.858 9.19938 179.176 10.7326 178.835C12.7769 178.324 14.8212 178.495 16.6951 179.517C18.569 180.539 19.7615 182.243 20.2726 184.458L21.4651 189.059L29.1312 187.014L30.1533 190.762L7.66616 196.896L5.45151 188.377ZM16.8655 185.48C16.6951 184.969 16.5247 184.288 16.184 183.947C15.8433 183.436 15.5026 183.095 14.9915 182.925C14.4805 182.584 14.1397 182.413 13.4583 182.413C12.9472 182.413 12.4362 182.413 11.7547 182.584C11.0733 182.754 10.3919 183.095 9.88081 183.606C9.36973 184.117 9.02902 184.799 8.85866 185.48C8.6883 186.162 8.6883 187.014 8.85866 187.695L10.0512 192.125L17.8876 189.91L16.8655 185.48Z" fill="black"/>
<path d="M24.0204 151.233C24.0204 154.811 22.9982 157.708 20.6132 160.093C18.3986 162.479 15.5025 163.671 12.0954 163.671C8.68823 163.671 5.79215 162.649 3.40715 160.264C1.1925 157.878 0 154.982 0 151.403C0 147.825 1.02214 144.929 3.40715 142.543C5.62179 140.158 8.51787 138.965 11.925 138.965C14.1397 138.965 16.184 139.477 18.0579 140.499C19.9318 141.521 21.2947 143.055 22.4872 144.758C23.5093 146.803 24.0204 148.848 24.0204 151.233ZM18.0579 157.197C19.5911 155.663 20.4429 153.618 20.4429 151.233C20.4429 148.848 19.5911 146.803 18.0579 145.27C16.3543 143.736 14.4804 142.884 12.0954 142.884C9.71037 142.884 7.66608 143.736 6.13287 145.27C4.59965 146.803 3.74786 148.848 3.74786 151.233C3.74786 153.618 4.59965 155.663 6.13287 157.197C7.66608 158.73 9.71037 159.582 12.0954 159.582C14.4804 159.582 16.5247 158.9 18.0579 157.197Z" fill="black"/>
<path d="M27.939 119.03C27.4279 120.734 26.9168 122.097 25.8947 123.29C25.0429 124.483 23.8504 125.164 22.4875 125.675C21.1247 126.016 19.7618 126.187 18.2286 125.675L19.0804 121.927C20.2729 122.268 21.295 122.097 22.3172 121.245C23.169 120.564 23.8504 119.541 24.1911 118.178C24.5318 116.986 24.5318 115.793 24.0208 114.771C23.68 113.748 22.9986 113.067 21.9765 112.896C21.6357 112.726 21.295 112.726 20.9543 112.896C20.6136 112.896 20.2729 113.067 20.1025 113.237C19.7618 113.408 19.5915 113.578 19.4211 113.919C19.2507 114.089 18.91 114.43 18.7397 114.941C18.399 115.452 18.2286 115.793 18.0582 115.963C17.8879 116.304 17.7175 116.645 17.3768 117.156C17.0361 117.838 16.8657 118.178 16.6954 118.519C16.525 118.86 16.1843 119.201 15.8436 119.882C15.5029 120.564 15.1622 120.905 14.8215 121.075C14.4807 121.416 14.14 121.756 13.7993 122.097C13.2882 122.438 12.9475 122.779 12.4365 122.779C11.9254 122.949 11.4143 122.949 10.9032 122.949C10.3922 122.949 9.71073 122.949 9.0293 122.779C6.98502 122.268 5.62216 121.245 4.77037 119.371C3.91858 117.667 3.91858 115.623 4.42966 113.237C5.11108 110.852 6.13323 108.978 7.66645 107.955C9.19966 106.933 11.0736 106.592 13.2882 107.103L12.4365 110.852C11.4143 110.511 10.3922 110.681 9.54038 111.363C8.68859 112.045 8.17752 112.896 7.8368 114.089C7.49609 115.282 7.49609 116.304 7.8368 117.156C8.17752 118.008 8.68859 118.69 9.71073 118.86C10.2218 119.201 10.5625 119.201 11.0736 119.201C11.4143 119.03 11.755 118.86 12.0957 118.69C12.4365 118.519 12.6068 118.178 12.9475 117.667C13.2882 117.156 13.4586 116.815 13.629 116.475C13.7993 116.134 14.14 115.623 14.4807 114.941C14.8215 114.43 14.9918 114.089 14.9918 113.748C15.1622 113.578 15.3325 113.067 15.6732 112.726C16.014 112.215 16.1843 111.874 16.3547 111.704C16.525 111.533 16.8657 111.193 17.2065 110.681C17.5472 110.341 17.8879 110 18.0582 109.83C18.399 109.659 18.7397 109.489 19.0804 109.318C19.4211 109.148 19.9322 108.978 20.2729 108.978C20.6136 108.978 21.1247 108.807 21.6357 108.807C22.1468 108.807 22.6579 108.807 23.169 108.978C25.3836 109.489 26.9168 110.681 27.7686 112.556C28.2797 114.43 28.45 116.645 27.939 119.03Z" fill="black"/>
<path d="M20.6129 74.56L22.3164 71.1523L42.7593 82.057L41.0557 85.4647L32.1972 80.6939L27.2568 90.0651L36.2857 94.8359L34.5822 98.2436L14.1393 87.3389L15.8429 83.9312L24.1904 88.3612L29.1307 78.99L20.6129 74.56Z" fill="black"/>
<path d="M48.8927 63.6554C48.2112 64.3369 47.5298 64.8481 46.5076 64.8481C45.6559 65.0185 44.8041 64.6777 43.9523 63.9961C43.2709 63.3146 42.7598 62.6331 42.7598 61.6108C42.7598 60.7588 42.9301 59.9069 43.6116 59.055C44.293 58.203 44.9744 57.8623 45.9966 57.8623C47.0187 57.8623 47.7001 58.0327 48.5519 58.7142C49.2334 59.3957 49.7444 60.0773 49.7444 61.0996C49.7444 62.1219 49.5741 62.9738 48.8927 63.6554Z" fill="black"/>
<path d="M64.0548 30.9416L56.559 37.0755L60.6476 42.1871L67.4619 36.7347L69.6766 39.4609L62.8623 44.9132L68.9951 52.4102L66.0991 54.7956L51.4483 36.7347L61.8401 28.2155L64.0548 30.9416Z" fill="black"/>
<path d="M111.755 27.8747L108.177 29.4082L98.8075 15.2662V33.327L97.9557 33.6678L84.3271 21.7408L88.7564 38.2682L85.1789 39.8017L79.0461 17.1404L82.4532 15.607L95.4004 27.0228V9.64348L98.8075 8.11001L111.755 27.8747Z" fill="black"/>
<path d="M134.582 23.7855C131.175 24.2966 128.279 23.4447 125.724 21.5705C122.998 19.6962 121.465 16.9701 120.954 13.5623C120.443 10.1546 121.124 7.0877 123.169 4.53192C125.213 1.97614 127.768 0.442674 131.175 0.101903C133.049 -0.0684819 134.753 -0.0684819 136.286 0.442674C137.99 0.95383 139.352 1.80576 140.545 2.82807C141.738 4.02077 142.76 5.38385 143.271 7.0877L139.523 7.59886C138.841 6.06539 137.649 5.04308 136.286 4.36154C134.923 3.68 133.39 3.50961 131.686 3.68C129.472 4.02077 127.598 5.04308 126.405 6.74693C125.042 8.45079 124.702 10.6658 124.872 13.0512C125.213 15.4366 126.235 17.3108 127.939 18.6739C129.642 20.037 131.686 20.5481 133.901 20.2074C135.605 20.037 137.138 19.3554 138.33 18.1628C139.523 17.1404 140.204 15.607 140.545 13.9031L144.463 13.392C144.293 16.1181 143.271 18.5035 141.397 20.3778C139.523 22.4224 137.308 23.4447 134.582 23.7855Z" fill="black"/>
<path d="M169.676 11.8585L181.942 13.5624C181.43 17.1405 179.897 19.8666 177.342 21.7409C174.787 23.7855 171.89 24.467 168.654 23.9559C165.246 23.4447 162.521 21.9112 160.647 19.3555C158.773 16.7997 158.091 13.9031 158.432 10.4954C158.943 7.08772 160.476 4.36155 162.861 2.48731C165.417 0.613075 168.313 -0.238852 171.72 0.272304C174.446 0.613075 176.831 1.80577 178.705 3.68001C180.579 5.55425 181.601 7.76926 181.771 10.325L177.853 9.81388C177.512 8.28042 176.831 6.91733 175.638 5.89502C174.446 4.87271 172.913 4.19117 171.209 3.8504C169.676 3.68001 168.313 3.8504 166.95 4.36155C165.587 4.87271 164.735 5.55425 163.884 6.74695C163.032 7.93965 162.521 9.30273 162.35 10.8362C162.01 13.2216 162.521 15.4366 163.713 17.1405C164.906 18.8443 166.78 19.8666 169.165 20.2074C171.039 20.3778 172.572 20.2074 174.105 19.3555C175.638 18.5035 176.66 17.4812 177.342 15.9478L169.165 14.7551L169.676 11.8585Z" fill="black"/>
<path d="M198.466 24.6375C197.614 24.2967 196.933 23.6152 196.592 22.7633C196.251 21.9113 196.251 21.0594 196.592 20.0371C196.933 19.1852 197.614 18.5036 198.466 17.9925C199.318 17.6517 200.17 17.6517 201.192 17.9925C202.044 18.3332 202.725 19.0148 203.236 19.6963C203.577 20.5482 203.577 21.4002 203.236 22.4225C202.895 23.2744 202.384 23.9559 201.533 24.2967C200.34 24.9783 199.318 24.9783 198.466 24.6375Z" fill="black"/>
<path d="M232.197 22.7632C233.389 23.6151 234.412 24.467 235.093 25.8301C235.774 27.0228 236.115 28.3859 236.115 29.749C236.115 31.1121 235.604 32.4752 234.923 33.6679C233.73 35.5421 232.197 36.7348 230.153 37.0756C228.108 37.5867 226.064 37.0756 224.19 35.8829L220.102 33.3271L216.013 39.9721L212.776 37.9275L225.042 18.1628L232.197 22.7632ZM225.894 32.4752C226.405 32.8159 226.916 32.9863 227.427 33.1567C227.938 33.3271 228.449 33.3271 228.96 33.1567C229.471 32.9863 229.982 32.8159 230.323 32.4752C230.834 32.1344 231.175 31.7936 231.515 31.2825C231.856 30.6009 232.197 29.9194 232.197 29.2378C232.197 28.5563 232.027 27.8748 231.686 27.1932C231.345 26.5117 230.834 26.0005 230.153 25.6597L226.234 23.2744L221.975 30.0898L225.894 32.4752Z" fill="black"/>
<path d="M246.677 65.0188L248.892 60.0776L241.566 52.751L236.626 54.966L233.73 52.0695L256.728 42.3575L259.284 44.9133L249.573 68.0857L246.677 65.0188ZM254.513 46.9579L244.803 51.2175L250.255 56.6699L254.513 46.9579Z" fill="black"/>
<path d="M261.157 85.9758C259.454 83.0792 258.943 80.0123 259.794 76.9454C260.646 73.8784 262.52 71.493 265.587 69.6188C268.653 67.9149 271.549 67.4038 274.786 68.2557C277.852 69.1077 280.237 70.9819 282.111 73.8784C282.963 75.4119 283.645 77.1158 283.815 78.8196C283.985 80.5235 283.815 82.0569 283.133 83.7608C282.452 85.2943 281.6 86.6573 280.237 87.85L278.363 84.6127C279.386 83.42 280.067 81.8866 280.067 80.3531C280.237 78.8196 279.726 77.2861 278.875 75.7527C277.682 73.7081 275.978 72.5154 273.934 72.0042C271.89 71.493 269.675 71.8338 267.631 73.0265C265.587 74.2192 264.224 75.9231 263.713 77.9677C263.202 80.0123 263.372 82.0569 264.565 84.1016C265.416 85.635 266.609 86.6573 268.142 87.3389C269.675 88.0204 271.208 88.1908 272.912 87.6796L274.956 91.0874C272.231 91.9393 269.846 91.9393 267.29 90.917C264.565 90.065 262.52 88.3612 261.157 85.9758Z" fill="black"/>
<path d="M275.638 120.905L283.475 111.193L282.793 108.637L272.912 111.363L271.89 107.615L294.207 101.31L295.229 105.059L286.03 107.615L286.711 110.17L297.614 113.919L298.977 118.349L286.03 113.749L276.831 125.335L275.638 120.905Z" fill="black"/>
<path d="M278.875 154.13L283.815 151.915L283.645 141.521L278.534 139.647L278.364 135.558L301.873 144.418L302.043 147.996L279.045 158.219L278.875 154.13ZM297.103 146.462L287.222 142.884L287.393 150.552L297.103 146.462Z" fill="black"/>
<path d="M287.052 181.391L284.156 193.488C280.749 192.637 278.023 190.933 276.319 188.207C274.616 185.48 274.105 182.584 274.956 179.346C275.808 175.939 277.512 173.553 280.237 171.85C282.963 170.146 286.03 169.805 289.437 170.486C292.844 171.338 295.399 173.042 297.103 175.768C298.806 178.495 299.317 181.561 298.466 184.799C297.784 187.525 296.421 189.74 294.377 191.444C292.333 193.148 289.948 194 287.392 194L288.244 190.081C289.777 189.91 291.14 189.399 292.333 188.207C293.525 187.014 294.377 185.651 294.718 183.947C295.059 182.413 295.059 181.05 294.718 179.687C294.377 178.324 293.525 177.131 292.503 176.28C291.481 175.257 290.118 174.576 288.585 174.235C286.2 173.724 283.985 173.894 282.111 175.087C280.237 176.109 279.045 177.813 278.534 180.198C278.193 181.902 278.193 183.606 278.875 185.31C279.556 186.843 280.578 188.036 281.941 188.888L283.815 180.88L287.052 181.391Z" fill="black"/>
<path d="M267.291 203.03L288.245 213.082L286.541 216.49L265.587 206.437L267.291 203.03Z" fill="black"/>
<path d="M267.801 245.796L265.587 248.863L247.018 234.892L248.892 232.336L269.335 232.847L256.047 222.794L258.261 219.727L276.83 233.699L274.786 236.425L254.684 235.914L267.801 245.796Z" fill="black"/>
<path d="M236.286 260.45L226.405 267.947C224.361 265.05 223.339 262.153 223.68 258.916C224.02 255.679 225.553 253.123 228.279 251.078C231.005 249.034 233.901 248.182 237.138 248.693C240.375 249.204 242.93 250.738 245.145 253.464C247.189 256.19 248.041 259.086 247.7 262.324C247.359 265.561 245.826 268.117 243.1 270.162C240.886 271.865 238.33 272.717 235.775 272.717C233.049 272.717 230.835 271.865 228.79 270.162L231.857 267.776C233.22 268.628 234.582 268.969 236.286 268.969C237.99 268.798 239.352 268.287 240.886 267.265C242.078 266.413 242.93 265.22 243.611 263.857C244.122 262.494 244.293 261.131 244.122 259.768C243.952 258.405 243.271 257.042 242.249 255.679C240.715 253.634 239.012 252.612 236.797 252.271C234.753 251.93 232.709 252.441 230.835 253.975C229.301 255.168 228.45 256.531 227.939 258.064C227.427 259.598 227.427 261.302 228.109 262.665L234.753 257.723L236.286 260.45Z" fill="black"/>
<path d="M206.814 271.695C207.666 271.354 208.517 271.184 209.539 271.524C210.391 271.865 211.073 272.547 211.413 273.398C211.754 274.25 211.924 275.273 211.584 276.125C211.243 276.977 210.562 277.658 209.71 277.999C208.858 278.34 207.836 278.51 206.984 278.169C206.132 277.829 205.451 277.147 205.11 276.295C204.769 275.443 204.599 274.591 204.94 273.569C205.281 272.717 205.792 272.206 206.814 271.695Z" fill="black"/>
<path d="M184.497 297.082C181.09 297.764 178.194 297.423 175.468 295.719C172.913 294.015 171.209 291.63 170.358 288.222C169.676 284.985 170.187 281.918 171.891 279.362C173.594 276.806 176.15 275.102 179.387 274.421L187.393 272.717L192.334 295.378L184.497 297.082ZM180.409 277.829C178.194 278.34 176.491 279.532 175.298 281.236C174.106 283.11 173.765 285.155 174.276 287.37C174.446 288.563 174.957 289.585 175.468 290.437C175.98 291.289 176.831 291.971 177.683 292.652C178.535 293.163 179.387 293.504 180.579 293.674C181.601 293.845 182.794 293.845 183.816 293.504L188.075 292.652L184.668 276.977L180.409 277.829Z" fill="black"/>
<path d="M150.936 281.236L140.885 281.066V277.488L154.684 277.828L154.173 301.001L140.715 300.66V297.082L150.425 297.252L150.596 291.289L141.737 291.118V287.54L150.596 287.711L150.936 281.236Z" fill="black"/>
<path d="M120.784 273.399C122.487 273.739 123.85 274.421 125.043 275.443C126.235 276.295 126.917 277.488 127.428 278.851C127.939 280.214 127.939 281.577 127.598 283.111L123.85 282.259C124.191 281.066 124.021 280.044 123.169 279.021C122.487 278.169 121.465 277.488 120.102 277.147C118.91 276.806 117.717 276.806 116.695 277.318C115.673 277.658 114.992 278.34 114.821 279.362C114.651 279.703 114.651 280.044 114.821 280.384C114.992 280.725 114.992 281.066 115.162 281.236C115.332 281.577 115.673 281.748 115.843 281.918C116.014 282.088 116.354 282.429 116.866 282.599C117.377 282.94 117.717 283.111 117.888 283.281C118.228 283.451 118.569 283.622 119.08 283.963C119.762 284.303 120.102 284.474 120.443 284.644C120.784 284.814 121.124 285.155 121.806 285.496C122.317 285.837 122.828 286.178 122.998 286.518C123.339 286.859 123.68 287.2 124.021 287.541C124.361 288.052 124.702 288.393 124.702 288.904C124.872 289.415 124.872 289.756 125.043 290.437C125.043 290.948 125.043 291.63 124.872 292.311C124.361 294.356 123.339 295.719 121.636 296.571C119.932 297.423 117.888 297.423 115.503 296.912C113.118 296.23 111.244 295.208 110.222 293.674C109.199 292.141 108.859 290.267 109.37 288.052L113.118 288.904C112.777 289.926 113.118 290.948 113.629 291.8C114.31 292.652 115.162 293.163 116.354 293.504C117.547 293.845 118.569 293.845 119.421 293.504C120.273 293.163 120.954 292.652 121.124 291.63C121.295 291.289 121.295 290.948 121.124 290.437C120.954 290.096 120.784 289.756 120.613 289.415C120.443 289.074 120.102 288.904 119.591 288.563C119.08 288.222 118.739 288.052 118.399 287.881C118.058 287.711 117.547 287.37 116.866 287.029C116.354 286.689 116.014 286.518 115.673 286.518C115.503 286.348 114.992 286.178 114.651 285.837C114.14 285.496 113.799 285.326 113.629 285.155C113.458 284.985 113.118 284.644 112.607 284.474C112.266 284.133 111.925 283.792 111.755 283.622C111.584 283.281 111.414 282.94 111.244 282.599C111.073 282.259 110.903 281.747 110.903 281.407C110.903 281.066 110.733 280.555 110.733 280.044C110.733 279.533 110.733 279.021 110.903 278.51C111.414 276.295 112.607 274.762 114.481 273.91C116.354 273.058 118.399 272.887 120.784 273.399Z" fill="black"/>
<path d="M99.8293 266.753L90.1189 287.881L86.7118 286.348L96.4222 265.22L99.8293 266.753Z" fill="black"/>
<path d="M68.1433 261.813L58.2626 254.316C60.4772 251.419 63.0326 249.886 66.2694 249.204C69.3358 248.693 72.2319 249.375 74.9576 251.419C77.6833 253.464 79.2165 256.02 79.7276 259.257C80.2387 262.494 79.3869 265.391 77.3426 268.117C75.2983 270.843 72.743 272.547 69.5062 273.058C66.2694 273.569 63.3733 272.717 60.6476 270.673C58.4329 268.969 56.8997 266.924 56.0479 264.198C55.3665 261.642 55.5369 259.257 56.559 256.872L59.7958 259.257C59.2847 260.79 59.2847 262.324 59.7958 263.857C60.3069 265.391 61.329 266.754 62.6919 267.776C63.8844 268.628 65.2472 269.31 66.6101 269.48C67.9729 269.65 69.3358 269.48 70.6987 268.799C72.0615 268.117 73.0837 267.265 74.1058 265.902C75.639 263.857 76.1501 261.813 75.9797 259.768C75.639 257.724 74.6169 255.849 72.743 254.486C71.2097 253.464 69.6765 252.782 67.9729 252.782C66.2694 252.782 64.7362 253.123 63.5437 254.145L70.1876 259.087L68.1433 261.813Z" fill="black"/>
<path d="M28.4496 237.788L26.0646 234.892L44.4632 220.58L46.5075 223.135L40.8857 242.9L54.0032 232.677L56.2178 235.573L37.8192 249.886L35.7749 247.16L41.3967 227.906L28.4496 237.788Z" fill="black"/>
<path d="M30.4936 207.46C30.8343 208.312 31.0046 209.164 30.6639 210.186C30.3232 211.038 29.8121 211.719 28.9604 212.06C28.1086 212.571 27.2568 212.571 26.2346 212.231C25.3828 211.89 24.7014 211.379 24.3607 210.356C24.02 209.504 23.8496 208.652 24.1903 207.63C24.5311 206.778 25.0421 206.097 26.0643 205.756C26.9161 205.415 27.7679 205.245 28.6196 205.586C29.3011 206.097 29.9825 206.608 30.4936 207.46Z" fill="black"/>
</svg>
