<svg width="200" height="45" viewBox="0 0 200 45" fill="none" xmlns="http://www.w3.org/2000/svg">
<g clip-path="url(#clip0_2014_989)">
<path d="M0 8.2569H9.7561V11.1468H9.95935C10.7724 10.1147 11.7886 9.28901 13.0081 8.66975C14.2276 7.84406 15.6504 7.43121 17.0732 7.43121C19.3089 7.43121 21.3415 8.05048 22.9675 9.08259C24.7967 10.1147 26.0163 11.7661 27.0325 14.0367C28.0488 16.3074 28.4553 18.9908 28.4553 22.2936C28.4553 27.2477 27.439 30.9633 25.2032 33.4404C23.1707 35.9175 20.3252 37.156 16.8699 37.156C14.0244 37.156 11.5854 35.9175 9.55284 33.4404H9.7561V44.7936H0V8.2569ZM10.9756 27.6606C11.7886 28.6927 13.0081 29.3119 14.4309 29.3119C15.8537 29.3119 17.0732 28.6927 17.8862 27.4542C18.6992 26.2156 19.1057 24.5642 19.1057 22.2936C19.1057 20.023 18.6992 18.3716 17.8862 17.3395C17.0732 16.3074 15.8537 15.6881 14.2276 15.6881C12.8049 15.6881 11.5854 16.3074 10.7724 17.5459C9.95935 18.578 9.55284 20.2294 9.55284 22.5C9.55284 24.7707 10.1626 26.422 10.9756 27.6606Z" fill="white"/>
<path d="M33.1303 35.5046C30.8945 34.2661 29.2685 32.6147 28.049 30.3441C26.8295 28.0734 26.2197 25.3899 26.2197 22.2936C26.2197 19.1973 26.8295 16.7202 28.049 14.4496C29.2685 12.1789 30.8945 10.5275 33.1303 9.28901C35.3661 8.05048 37.8051 7.43121 40.6506 7.43121C43.4961 7.43121 46.1384 8.05048 48.3742 9.28901C50.61 10.5275 52.236 12.1789 53.4555 14.4496C54.675 16.7202 55.2848 19.4037 55.2848 22.2936C55.2848 25.3899 54.675 28.0734 53.4555 30.3441C52.236 32.6147 50.4067 34.2661 48.3742 35.5046C46.1384 36.7431 43.6994 37.3624 40.6506 37.3624C37.8051 37.3624 35.1628 36.7431 33.1303 35.5046ZM37.1953 27.6606C38.0083 28.8991 39.2279 29.5184 40.8539 29.5184C42.4799 29.5184 43.4961 28.8991 44.5124 27.6606C45.3254 26.422 45.7319 24.7707 45.7319 22.5C45.7319 20.2294 45.3254 18.578 44.5124 17.3395C43.6994 16.1009 42.4799 15.4817 40.8539 15.4817C39.2279 15.4817 38.0083 16.1009 37.1953 17.3395C36.3823 18.578 35.9758 20.2294 35.9758 22.5C35.7726 24.5642 36.1791 26.422 37.1953 27.6606Z" fill="white"/>
<path d="M55.8941 35.0918C53.6584 33.6468 52.2356 31.3762 51.8291 28.6927L59.7559 26.6285C60.1624 27.867 60.7722 28.6927 61.5852 29.5184C62.3982 30.1377 63.6177 30.5505 65.2437 30.5505C66.26 30.5505 67.2763 30.3441 67.886 29.9312C68.4958 29.5184 68.9023 29.1056 68.9023 28.4863C68.9023 27.867 68.4958 27.4542 67.886 27.0413C67.2763 26.6285 66.0567 26.4221 64.2275 26.0092C60.5689 25.39 57.7234 24.3578 55.6909 22.9129C53.6584 21.4679 52.8454 19.4037 52.8454 16.5138C52.8454 13.8303 54.0649 11.5597 56.3006 9.90831C58.5364 8.25693 61.5852 7.63766 65.2437 7.63766C72.5608 7.63766 76.8291 10.3212 78.0486 15.8945L70.1218 18.1652C69.1055 15.6881 67.4795 14.4496 65.0405 14.4496C64.2275 14.4496 63.6177 14.656 63.008 14.8624C62.3982 15.2753 62.195 15.6881 62.195 16.101C62.195 16.7202 62.6015 17.1331 63.4145 17.5459C64.2275 17.9588 65.6502 18.3716 67.6828 18.7845C71.5445 19.4037 74.1868 20.4358 76.0161 21.8808C77.6421 23.3257 78.6584 25.39 78.6584 28.0734C78.6584 30.9634 77.4389 33.234 75.2031 34.8854C72.9673 36.5367 69.7153 37.3624 65.447 37.3624C61.1787 37.3624 58.1299 36.7432 55.8941 35.0918Z" fill="white"/>
<path d="M77.439 0H86.9918L86.7886 11.9725H86.9918C87.8048 10.5275 89.0243 9.49541 90.6503 8.66972C92.2764 7.84404 93.9024 7.43119 95.7316 7.43119C98.9837 7.43119 101.423 8.25688 103.049 10.1147C104.675 11.9725 105.488 14.656 105.488 18.578V23.1193V36.7431H95.7316V23.1193V20.4358C95.7316 17.3394 94.3089 15.8945 91.6666 15.8945C90.2438 15.8945 89.0243 16.3073 88.2113 17.3394C87.3983 18.3716 86.9918 19.6101 86.9918 21.2615V36.5367H77.439V0Z" fill="white"/>
<path d="M112.805 16.5138V10.7339H117.073C118.496 10.7339 119.512 10.9404 120.325 11.5596C121.138 12.1789 121.545 13.0046 121.545 14.2431C121.545 16.7202 120.122 17.9587 117.073 17.9587H115.04V22.0872H112.805V16.5138ZM117.276 16.5138C118.699 16.5138 119.512 15.8945 119.512 14.656C119.512 14.0367 119.309 13.6239 118.902 13.211C118.496 13.0046 117.886 12.7982 117.276 12.7982H115.04V16.5138H117.276Z" fill="white"/>
<path d="M123.17 16.7202L125.203 10.9404H127.642L129.675 16.7202L131.707 22.2936H129.471L128.658 19.6101H126.626H124.593L123.78 22.2936H121.544L123.17 16.7202ZM126.219 17.9587H127.845L126.219 13.211L124.593 17.9587H126.219Z" fill="white"/>
<path d="M133.943 21.8808C133.13 21.4679 132.52 20.6422 132.114 19.8165C131.707 18.9909 131.504 17.9587 131.504 16.7202C131.504 15.4817 131.707 14.4496 132.114 13.6239C132.52 12.7982 133.13 11.9725 133.943 11.5597C134.756 11.1468 135.569 10.9404 136.585 10.9404C138.008 10.9404 139.024 11.3532 139.837 11.9725C140.65 12.5918 141.057 13.6239 141.26 14.8624L139.227 15.4817C139.024 14.656 138.821 14.0367 138.414 13.4175C138.211 12.7982 137.398 12.3854 136.788 12.3854C135.975 12.3854 135.162 12.7982 134.553 13.4175C133.943 14.2432 133.74 15.0688 133.74 16.5138C133.74 17.7523 133.943 18.7844 134.553 19.6101C135.162 20.4358 135.772 20.6422 136.788 20.6422C137.601 20.6422 138.211 20.4358 138.618 20.023C139.024 19.6101 139.431 18.7844 139.431 17.9587L141.463 18.578C141.26 19.8165 140.854 20.8487 139.837 21.4679C139.024 22.2936 138.008 22.5 136.585 22.5C135.569 22.5 134.756 22.2936 133.943 21.8808Z" fill="white"/>
<path d="M142.886 10.9404H145.122V16.3074L149.39 10.9404H151.829L148.171 15.4817L152.236 22.5H149.797L146.748 17.1331L145.122 19.1973V22.5H142.886V10.9404Z" fill="white"/>
<path d="M154.674 16.7202L156.707 10.9404H159.146L161.178 16.7202L163.211 22.2936H160.975L160.162 19.6101H158.13H156.097L155.284 22.2936H153.048L154.674 16.7202ZM157.723 17.9587H159.349L157.723 13.211L156.097 17.9587H157.723Z" fill="white"/>
<path d="M165.447 21.8808C164.634 21.4679 164.228 20.6422 163.821 19.8165C163.415 18.9909 163.211 17.7523 163.211 16.7202C163.211 15.4817 163.415 14.4496 163.821 13.6239C164.228 12.7982 164.837 11.9725 165.65 11.5597C166.463 11.1468 167.276 10.9404 168.496 10.9404C169.919 10.9404 170.935 11.3532 171.748 11.9725C172.358 12.3854 172.764 13.4175 172.968 14.4496L170.935 15.0688C170.732 14.2432 170.528 13.6239 169.919 13.211C169.309 12.7982 168.902 12.3854 168.293 12.3854C167.48 12.3854 166.667 12.7982 166.057 13.4175C165.447 14.2432 165.244 15.0688 165.244 16.5138C165.244 17.7523 165.447 18.7844 166.057 19.6101C166.667 20.4358 167.276 20.6422 168.293 20.6422C169.106 20.6422 169.919 20.4358 170.325 20.023C170.732 19.6101 171.138 18.7844 171.138 17.7523H167.886V16.3074H172.968V19.4037V22.2936H171.545L171.342 20.8487C170.935 21.4679 170.528 21.8808 169.919 22.0872C169.309 22.2936 168.699 22.5 167.886 22.5C167.073 22.5 166.26 22.2936 165.447 21.8808Z" fill="white"/>
<path d="M175.203 10.9404H177.439V22.2936H175.203V10.9404Z" fill="white"/>
<path d="M179.471 16.7202V10.9404H181.91L186.585 19.1973V15.8945V10.9404H188.618V16.7202V22.5H186.178L181.504 14.2432V17.5459V22.5H179.471V16.7202Z" fill="white"/>
<path d="M192.479 21.8808C191.666 21.4679 191.26 20.6422 190.853 19.8165C190.447 18.9909 190.244 17.7523 190.244 16.7202C190.244 15.4817 190.447 14.4496 190.853 13.6239C191.26 12.7982 191.87 11.9725 192.683 11.5597C193.496 11.1468 194.309 10.9404 195.528 10.9404C196.951 10.9404 197.967 11.3532 198.78 11.9725C199.39 12.3854 199.797 13.4175 200 14.4496L197.967 15.0688C197.764 14.2432 197.561 13.6239 196.951 13.211C196.341 12.7982 196.138 12.3854 195.325 12.3854C194.512 12.3854 193.699 12.7982 193.089 13.4175C192.479 14.2432 192.276 15.0688 192.276 16.5138C192.276 17.7523 192.479 18.7844 193.089 19.6101C193.699 20.4358 194.309 20.6422 195.325 20.6422C196.138 20.6422 196.951 20.4358 197.357 20.023C197.764 19.6101 198.17 18.7844 198.17 17.7523H194.918V16.3074H200V19.4037V22.2936H198.577L198.374 20.8487C197.967 21.4679 197.561 21.8808 196.951 22.0872C196.341 22.2936 195.731 22.5 194.918 22.5C194.105 22.5 193.292 22.2936 192.479 21.8808Z" fill="white"/>
<path d="M112.805 31.1698V25.39H116.26C118.292 25.39 119.715 25.8028 120.732 26.8349C121.748 27.867 122.154 29.312 122.154 31.1698C122.154 33.0276 121.748 34.4725 120.732 35.5046C119.715 36.5367 118.292 36.9496 116.26 36.9496H112.805V31.1698ZM116.463 34.8854C118.902 34.8854 120.325 33.6468 120.325 30.9633C120.325 28.2799 119.105 27.0413 116.463 27.0413H115.04V34.8854H116.463Z" fill="white"/>
<path d="M123.78 25.39H131.504V27.2478H126.016V30.1377H130.894V31.789H126.016V34.8854H131.707V36.7432H123.984V25.39H123.78Z" fill="white"/>
<path d="M133.74 36.1239C132.927 35.5046 132.52 34.6789 132.317 33.6468L134.146 33.0275C134.349 33.8532 134.553 34.2661 134.959 34.6789C135.366 35.0918 135.975 35.2982 136.788 35.2982C137.398 35.2982 138.008 35.0918 138.414 34.8853C138.821 34.6789 139.024 34.2661 139.024 33.8532C139.024 33.4404 139.024 33.234 138.821 33.0275C138.618 32.8211 138.414 32.6147 138.008 32.4083C137.601 32.2019 137.195 32.2019 136.382 31.9954C135.162 31.789 134.146 31.3762 133.536 30.7569C132.927 30.1376 132.723 29.5184 132.723 28.4863C132.723 27.4541 133.13 26.6285 133.74 26.0092C134.349 25.3899 135.366 25.1835 136.585 25.1835C137.805 25.1835 138.821 25.3899 139.634 26.0092C140.447 26.6285 140.853 27.4541 141.057 28.2798L139.024 28.8991C139.024 28.2798 138.618 27.867 138.211 27.4541C137.805 27.0413 137.195 26.8349 136.585 26.8349C135.975 26.8349 135.569 27.0413 135.162 27.2477C134.756 27.4541 134.756 27.867 134.756 28.2798C134.756 28.6927 134.756 28.8991 134.959 29.1055C135.162 29.3119 135.366 29.5184 135.772 29.7248C136.179 29.9312 136.585 29.9312 137.195 30.1376C138.618 30.3441 139.634 30.7569 140.244 31.3762C140.853 31.9954 141.057 32.6147 141.057 33.6468C141.057 34.2661 140.853 34.8853 140.447 35.5046C140.04 35.9175 139.634 36.3303 138.821 36.7431C138.211 36.9496 137.398 37.156 136.585 37.156C135.569 36.9496 134.553 36.7431 133.74 36.1239Z" fill="white"/>
<path d="M142.683 25.39H144.918V36.7432H142.683V25.39Z" fill="white"/>
<path d="M148.78 36.3303C147.967 35.9175 147.561 35.0918 147.154 34.2661C146.748 33.4404 146.544 32.2019 146.544 31.1698C146.544 29.9312 146.748 28.8991 147.154 28.0734C147.561 27.2478 148.17 26.4221 148.983 26.0092C149.796 25.5964 150.609 25.39 151.829 25.39C153.252 25.39 154.268 25.8028 155.081 26.4221C155.894 27.0413 156.301 28.0734 156.504 29.312L154.471 29.9312C154.268 29.1056 154.065 28.4863 153.455 28.0734C153.049 27.6606 152.439 27.4542 151.626 27.4542C150.813 27.4542 150 27.867 149.39 28.4863C148.78 29.1056 148.577 30.1377 148.577 31.5826C148.577 32.8211 148.78 33.8533 149.39 34.6789C150 35.5046 150.609 35.7111 151.626 35.7111C152.439 35.7111 153.252 35.5046 153.658 35.0918C154.065 34.6789 154.471 33.8533 154.471 32.8211H151.219V31.1698H156.301V34.2661V37.156H154.878L154.675 35.7111C154.268 36.3303 153.862 36.7432 153.252 36.9496C152.642 37.156 152.032 37.3624 151.219 37.3624C150.406 36.9496 149.593 36.7432 148.78 36.3303Z" fill="white"/>
<path d="M158.537 31.1698V25.39H160.976L165.65 33.6468V30.3441V25.39H167.683V31.1698V36.9496H165.244L160.569 28.6927V31.9955V36.9496H158.537V31.1698Z" fill="white"/>
</g>
<defs>
<clipPath id="clip0_2014_989">
<rect width="200" height="45" fill="white"/>
</clipPath>
</defs>
</svg>
