<svg width="50" height="50" viewBox="0 0 50 50" fill="none" xmlns="http://www.w3.org/2000/svg">
<g clip-path="url(#clip0_432_160)">
<path d="M25 50.0004C38.8071 50.0004 50 38.8075 50 25.0004C50 11.1932 38.8071 0.000366211 25 0.000366211C11.1929 0.000366211 0 11.1932 0 25.0004C0 38.8075 11.1929 50.0004 25 50.0004Z" fill="url(#paint0_linear_432_160)"/>
<path d="M16.9224 26.829L19.8884 35.0386C19.8884 35.0386 20.2592 35.8068 20.6563 35.8068C21.0534 35.8068 26.9594 29.6626 26.9594 29.6626L33.5272 16.9772L17.0282 24.7099L16.9224 26.829Z" fill="#C8DAEA"/>
<path d="M20.8547 28.9323L20.2854 34.9835C20.2854 34.9835 20.047 36.8377 21.9008 34.9835C23.7545 33.1293 25.5289 31.6995 25.5289 31.6995" fill="#A9C6D8"/>
<path d="M16.9762 27.1202L10.8749 25.1323C10.8749 25.1323 10.1458 24.8364 10.3806 24.1656C10.4289 24.0273 10.5264 23.9095 10.8181 23.7073C12.1699 22.765 35.8401 14.2573 35.8401 14.2573C35.8401 14.2573 36.5085 14.0321 36.9026 14.1818C37.0002 14.212 37.0879 14.2676 37.1569 14.3428C37.2259 14.418 37.2737 14.5102 37.2954 14.61C37.3379 14.7861 37.3558 14.9674 37.3483 15.1485C37.3464 15.3052 37.3274 15.4504 37.3131 15.6781C37.1689 18.0041 32.8547 35.3641 32.8547 35.3641C32.8547 35.3641 32.5966 36.38 31.6718 36.4148C31.4445 36.4221 31.2181 36.3836 31.0061 36.3016C30.794 36.2195 30.6006 36.0956 30.4374 35.9373C28.6227 34.3762 22.3501 30.1608 20.9641 29.2337C20.9328 29.2124 20.9065 29.1847 20.8869 29.1523C20.8673 29.12 20.8548 29.0838 20.8504 29.0462C20.831 28.9485 20.9372 28.8275 20.9372 28.8275C20.9372 28.8275 31.8593 19.1191 32.1499 18.1C32.1724 18.021 32.0874 17.9821 31.9733 18.0166C31.2479 18.2835 18.6724 26.225 17.2845 27.1014C17.1846 27.1316 17.079 27.1381 16.9762 27.1202Z" fill="white"/>
</g>
<defs>
<linearGradient id="paint0_linear_432_160" x1="25" y1="50.0004" x2="25" y2="0.000366211" gradientUnits="userSpaceOnUse">
<stop stop-color="#1D93D2"/>
<stop offset="1" stop-color="#38B0E3"/>
</linearGradient>
<clipPath id="clip0_432_160">
<rect width="50" height="50" fill="white"/>
</clipPath>
</defs>
</svg>
