<svg width="50" height="50" viewBox="0 0 50 50" fill="none" xmlns="http://www.w3.org/2000/svg">
<path d="M42.7918 7.28328C38.1313 2.66143 31.7761 0.000366211 25.1384 0.000366211C11.2982 0.000366211 0 11.2048 0 24.9303C0 29.6922 1.27104 34.174 3.81313 38.2357L4.37804 39.216L1.83595 48.4597L11.2982 45.9387L12.1455 46.499C15.9587 48.7399 20.4779 50.0004 24.856 50.0004C38.6962 50.0004 49.9944 38.7959 49.9944 25.0704C50.1356 18.2076 47.5936 12.0452 42.7918 7.28328Z" fill="url(#paint0_linear_432_165)"/>
<path d="M17.5131 12.3254C16.9482 11.0649 16.3833 11.0649 15.8184 11.0649C15.3947 11.0649 14.8298 11.0649 14.4061 11.0649C13.8412 11.0649 13.1351 11.205 12.4289 12.0453C11.7228 12.7456 9.74561 14.5663 9.74561 18.2078C9.74561 21.8493 12.4289 25.4907 12.8526 25.9109C13.2763 26.4711 18.078 34.1742 25.7043 37.2554C32.0595 39.7764 33.3306 39.2162 34.7428 39.0761C36.1551 38.9361 39.2621 37.2554 39.827 35.5747C40.3919 33.8941 40.3919 32.3535 40.2507 32.0733C40.1095 31.7932 39.5445 31.5131 38.8384 31.233C38.1323 30.8128 34.3191 28.9921 33.613 28.8521C32.9069 28.5719 32.4832 28.4319 31.9183 29.2722C31.3534 29.9725 29.9411 31.6532 29.5174 32.2134C29.0937 32.7736 28.6701 32.7736 27.8227 32.3535C27.1166 31.9333 24.5745 31.233 21.7499 28.5719C19.4903 26.6112 17.9368 24.0902 17.5131 23.3899C17.0894 22.6896 17.5131 22.2694 17.7956 21.8493C18.078 21.5691 18.5017 21.0089 18.9254 20.5888C19.3491 20.1686 19.4903 19.8885 19.6315 19.3282C19.914 18.768 19.7727 18.3479 19.6315 18.0677C19.6315 17.5075 18.2192 13.8661 17.5131 12.3254Z" fill="white"/>
<defs>
<linearGradient id="paint0_linear_432_165" x1="25.086" y1="54.3345" x2="25.086" y2="-3.98731" gradientUnits="userSpaceOnUse">
<stop stop-color="#20B038"/>
<stop offset="1" stop-color="#60D66A"/>
</linearGradient>
</defs>
</svg>
