<svg width="25" height="24" viewBox="0 0 25 24" fill="none" xmlns="http://www.w3.org/2000/svg">
<path d="M12.5 7.75068C9.88083 7.75068 7.75046 9.88199 7.75046 12.5005C7.75046 15.1198 9.88167 17.2502 12.5 17.2502C15.1192 17.2502 17.2496 15.1189 17.2496 12.5005C17.2496 9.88115 15.1192 7.75068 12.5 7.75068ZM12.5 15.3505C10.9281 15.3505 9.6501 14.0724 9.6501 12.5005C9.6501 10.9285 10.9281 9.65041 12.5 9.65041C14.0719 9.65041 15.3499 10.9285 15.3499 12.5005C15.3499 14.0724 14.0719 15.3505 12.5 15.3505ZM19.1501 3H5.84991C4.2789 3 3 4.27896 3 5.85005V19.15C3 20.7219 4.27801 22 5.84991 22H19.1492C20.7211 22 21.9991 20.7219 21.9991 19.15L22 5.85005C22 4.27896 20.7211 3 19.1501 3ZM20.0995 19.1509C20.0995 19.6755 19.6738 20.1012 19.1492 20.1012L5.84993 20.1003C5.32626 20.1003 4.89966 19.6746 4.89966 19.15L4.90055 5.85007C4.90055 5.32637 5.32715 4.89975 5.85083 4.89975H19.1501C19.6747 4.89975 20.1004 5.32637 20.1004 5.85007L20.0995 19.1509ZM17.9246 7.07557C18.0947 7.25637 18.1998 7.50307 18.1998 7.75066C18.1998 7.99736 18.0947 8.24497 17.9246 8.42487C17.8766 8.46317 17.8285 8.50057 17.7813 8.53887C17.7252 8.57628 17.6673 8.60567 17.6112 8.62437C17.5533 8.65287 17.4972 8.67157 17.4402 8.68137C17.3734 8.69028 17.3155 8.70008 17.2496 8.70008C17.0029 8.70008 16.7553 8.59498 16.5754 8.42488C16.4035 8.24408 16.3002 7.99737 16.3002 7.75067C16.3002 7.50308 16.4044 7.25636 16.5754 7.07646C16.6226 7.03816 16.6698 6.99987 16.717 6.96157C16.7749 6.92416 16.8319 6.89477 16.8889 6.87607C16.9459 6.84757 17.0029 6.82886 17.0599 6.81907C17.1926 6.79057 17.3155 6.79057 17.4402 6.81907C17.4972 6.82797 17.5533 6.84757 17.6112 6.87607C17.6673 6.89477 17.7252 6.92416 17.7813 6.96157C17.8285 6.99987 17.8766 7.03816 17.9246 7.07557Z" fill="black"/>
</svg>
