<svg width="93" height="100" viewBox="0 0 93 100" fill="none" xmlns="http://www.w3.org/2000/svg">
<g clip-path="url(#clip0_2079_934)">
<path d="M89.5094 56.9809C85.1831 54.5939 79.2158 52.8038 71.7567 51.4611C69.3698 51.0136 66.9828 50.7152 64.4467 50.4168H63.85C63.5516 50.4168 63.2533 50.4168 62.9549 50.2677C66.9828 46.2397 69.3698 42.8085 70.2649 39.9741C72.3534 33.1117 70.7124 27.2936 65.0435 22.3706C64.1484 21.6247 62.209 20.282 62.209 20.282C58.1811 17.5967 53.8548 17 51.0203 17C50.4236 17 49.6777 17 49.081 17.1492C48.7826 17.1492 48.335 17.1492 48.0367 17.2984C47.5891 17.2984 46.9924 17.4475 46.3957 17.4475C45.799 17.4475 45.3514 17.2984 44.7547 17.2984C44.3071 17.2984 44.0088 17.1492 43.7104 17.1492C42.9645 17.1492 42.3678 17.1492 41.771 17.1492C38.9366 17.1492 34.6103 17.7459 30.5824 20.4312C30.5824 20.4312 28.643 21.7738 27.7479 22.5197C22.079 27.2936 20.438 33.2609 22.5265 40.1233C23.4216 42.9577 25.8085 46.3889 29.8365 50.4168C29.3889 50.4168 29.0905 50.4168 28.9414 50.566C26.1069 50.8644 23.5708 51.1628 21.0347 51.6103C13.4264 52.8038 7.45909 54.7431 3.28198 57.13C0.895066 58.4727 0 62.3514 0 65.6334C0 69.9597 1.04425 72.7942 3.28198 74.1368C7.01154 76.5237 12.233 78.3139 18.797 79.8057C22.3774 80.5517 26.4053 81.2976 30.7316 81.7451C35.8038 82.3419 41.0251 82.491 46.5449 82.491C65.1926 82.491 81.4535 79.3582 89.8077 74.1368C91.8963 72.7942 93.0898 69.9597 93.0898 65.6334C92.7914 62.2022 91.8963 58.3235 89.5094 56.9809ZM23.1233 39.8249C21.0347 33.2609 22.8249 27.7411 28.0463 23.1165C28.7922 22.3706 30.7316 21.0279 30.7316 21.0279C34.6103 18.4918 38.7874 17.8951 41.6219 17.8951C42.2186 17.8951 42.8153 17.8951 43.5612 18.0443C43.8596 18.0443 44.158 18.0443 44.6055 18.1935C45.2022 18.1935 45.6498 18.3426 46.2465 18.3426C46.8432 18.3426 47.44 18.1935 47.8875 18.1935C48.3351 18.1935 48.6334 18.0443 48.9318 18.0443C49.5285 18.0443 50.1253 17.8951 50.8712 17.8951C53.7056 17.8951 57.7335 18.4918 61.7615 21.0279C61.7615 21.0279 63.7008 22.3706 64.4467 23.1165C69.8173 27.7411 71.4583 33.4101 69.3698 39.8249C67.7288 45.0463 60.4188 51.6103 57.5844 54.1464C57.286 54.2956 57.1368 54.5939 56.9876 54.5939C55.645 55.9366 51.7663 58.9202 46.8432 58.9202H46.2465H45.6498C40.7268 58.9202 36.848 55.9366 35.5054 54.5939C35.3562 54.4448 35.207 54.2956 34.9086 54.1464C32.0742 51.7595 24.7643 45.1955 23.1233 39.8249ZM71.7567 61.7547C71.9059 61.6055 72.055 61.6055 72.055 61.6055H76.6797C76.8289 61.6055 76.978 61.6055 77.1272 61.7547C77.2764 61.9039 77.1273 62.0531 76.9781 62.2022C76.9781 62.2022 73.6961 65.9318 73.6961 66.081C73.6961 66.081 73.6961 66.2302 73.6961 66.3793C73.8452 66.8269 75.1879 69.9597 75.1879 70.1089C75.1879 70.1089 75.1879 70.1089 75.1879 70.2581V70.4073C75.1879 70.5564 75.0387 70.5564 75.0387 70.5564H70.7124C70.5632 70.5564 70.414 70.5564 70.414 70.4073L70.2649 70.1089C70.1157 69.5122 69.519 68.3187 69.519 68.1695C69.519 68.3187 69.2206 69.6614 69.2206 69.6614L69.0714 70.4073C69.0714 70.5564 68.9222 70.7056 68.9222 70.7056C68.773 70.7056 68.7731 70.7056 68.7731 70.7056H64.7451C64.5959 70.7056 64.5959 70.7056 64.5959 70.5564C64.4467 70.4073 64.5959 70.4073 64.5959 70.2581L66.0877 62.2022C66.0877 62.0531 66.237 61.9039 66.5353 61.9039H70.5632C70.5632 61.9039 70.7124 61.9039 70.7124 62.0531V62.2022C70.7124 62.2022 70.4141 63.9924 70.2649 64.7383C70.2649 63.9924 71.7567 61.7547 71.7567 61.7547ZM82.3486 69.5122C82.3486 69.363 82.3486 69.363 82.3486 69.5122C82.1994 69.6614 82.0503 69.8105 81.7519 69.9597C81.6027 70.1089 81.4535 70.1089 81.3044 70.2581C81.006 70.4073 80.7076 70.4073 80.1109 70.4073C78.3207 70.4073 77.5748 69.9597 77.4256 69.9597C77.2764 69.9597 75.9338 69.2138 75.9338 67.4236C75.9338 65.9318 76.2321 65.3351 76.5305 63.9924C77.1272 62.5006 78.3207 62.0531 78.3207 62.0531C78.3207 62.0531 79.365 61.6055 80.5584 61.6055C81.6027 61.6055 82.3486 61.9039 82.647 62.0531C82.7962 62.2022 82.9453 62.3514 83.0945 62.3514L83.2437 62.5006L83.3929 61.9039C83.3929 61.7547 83.5421 61.6055 83.6913 61.6055C83.8405 61.6055 84.8847 61.6055 87.4208 61.6055H87.7192C87.8684 61.6055 88.0176 61.7547 88.0176 61.7547C88.0176 61.9039 88.0176 61.9039 88.0176 61.9039C88.0176 62.0531 86.6749 69.8105 86.6749 69.9597C86.6749 70.1089 86.3765 70.2581 86.3765 70.2581H82.647C82.647 70.2581 82.4978 70.2581 82.3486 70.2581V70.1089C82.3486 69.6614 82.3486 69.5122 82.3486 69.5122ZM64.7451 61.9039C64.7451 62.2022 63.4025 69.8105 63.2533 69.9597C63.2533 70.2581 62.9549 70.2581 62.9549 70.2581H58.927C58.7778 70.2581 58.7778 70.2581 58.7778 70.1089V69.9597C58.7778 69.9597 59.2254 67.1253 59.3745 66.8269H57.286C57.1368 67.4236 56.6893 69.9597 56.6893 69.9597C56.6893 70.2581 56.3909 70.2581 56.3909 70.2581H52.2138C52.0646 70.2581 52.0646 70.2581 52.0646 70.1089C51.9154 69.9597 52.0646 69.9597 52.0646 69.8105L53.5564 61.7547C53.5564 61.6055 53.7056 61.4563 54.004 61.4563H58.0319C58.0319 61.4563 58.1811 61.4563 58.1811 61.6055V61.7547C58.1811 61.7547 57.7335 64.2908 57.7335 64.5892H59.6729C59.6729 64.44 60.1205 61.7547 60.1205 61.7547C60.1205 61.6055 60.2697 61.4563 60.568 61.4563H64.5959C64.5959 61.4563 64.7451 61.4563 64.7451 61.6055C64.8943 61.7547 64.7451 61.9039 64.7451 61.9039ZM47.2908 74.4352C44.1579 75.6286 35.0578 72.9434 39.0857 73.8385C43.2628 74.4352 47.7383 73.3909 47.7383 73.3909C47.7383 73.3909 46.9924 73.9876 47.2908 74.4352ZM46.9924 75.6286C45.2022 76.3746 39.8316 74.7336 42.0694 75.3303C44.4563 75.6286 47.1416 75.0319 47.1416 75.0319C47.1416 75.0319 46.6941 75.3303 46.9924 75.6286ZM46.3957 76.6729C45.0531 77.1205 41.3235 76.0762 42.9645 76.3746C44.7547 76.6729 46.5449 76.2254 46.5449 76.2254C46.5449 76.2254 46.2465 76.5237 46.3957 76.6729ZM24.9134 69.5122C24.9134 69.363 24.9134 69.363 24.9134 69.5122C24.7642 69.363 24.7642 69.5122 24.9134 69.5122C24.7642 69.6614 24.6151 69.8105 24.3167 69.9597C24.1675 70.1089 24.0184 70.1089 23.8692 70.2581C23.5708 70.4073 23.2724 70.4073 22.6757 70.4073C20.8855 70.4073 20.1396 69.9597 19.9904 69.9597C19.8412 69.9597 18.4986 69.2138 18.4986 67.4236C18.4986 65.9318 18.797 65.3351 19.0953 63.9924C19.692 62.5006 20.8855 62.0531 20.8855 62.0531C20.8855 62.0531 21.9298 61.6055 23.1233 61.6055C24.1675 61.6055 24.9134 61.9039 25.2118 62.0531C25.361 62.2022 25.5101 62.3514 25.6593 62.3514L25.8085 62.5006L25.9577 61.9039C25.9577 61.7547 26.1069 61.6055 26.2561 61.6055C26.4053 61.6055 27.4496 61.6055 29.9857 61.6055H30.284C30.4332 61.6055 30.4332 61.7547 30.5824 61.7547C30.5824 61.9039 30.5824 61.9039 30.5824 61.9039C30.5824 62.0531 29.2397 69.8105 29.2397 69.9597C29.2397 70.1089 29.0905 70.2581 28.9414 70.2581H25.2118C25.2118 70.2581 25.0626 70.2581 24.9134 70.2581V70.1089C24.9134 69.6614 24.9134 69.5122 24.9134 69.5122ZM12.6805 62.799C11.7854 67.5728 11.7854 67.722 11.7854 67.722C11.487 68.3187 11.0395 69.2138 10.1444 69.6614C8.95092 70.4073 7.45912 70.4073 5.96729 70.2581H5.07219C5.07219 70.2581 5.07218 70.2581 4.923 70.2581C4.923 70.2581 4.923 70.2581 4.923 70.1089C4.923 70.1089 5.07219 69.2138 5.07219 68.9154C5.22137 67.722 5.22139 67.722 5.37057 67.722C5.51975 67.722 6.41484 67.722 6.7132 67.4236C7.01157 67.1253 7.16073 66.5285 7.16073 66.5285L8.35422 59.6661C8.35422 59.517 8.50338 59.3678 8.80175 59.3678H18.6478C18.797 59.3678 18.797 59.3678 18.797 59.517C18.797 59.6661 18.797 59.6661 18.797 59.6661C18.797 59.8153 17.0068 69.6614 17.0068 69.9597C17.0068 70.1089 16.8576 70.2581 16.8576 70.2581C16.7084 70.2581 16.7084 70.2581 16.7084 70.2581H12.6805C12.5313 70.2581 12.5313 70.2581 12.5313 70.1089V69.9597C12.5313 69.9597 13.7247 63.0973 13.7247 62.9482H12.6805V62.799ZM30.7316 64.5892C31.0299 63.6941 31.4774 62.9482 32.5217 62.2022C33.8644 61.158 36.4005 61.158 37.1464 61.158C37.8923 61.158 39.2349 61.3071 40.13 61.4563C40.4284 61.4563 40.7268 61.6055 40.7268 61.6055C40.8759 61.6055 40.8759 61.6055 40.8759 61.7547L41.0251 61.9039L40.5776 64.8875C40.5776 64.8875 40.5776 65.0367 40.4284 65.0367H40.2792H40.13H39.5333C39.0858 65.0367 38.3398 64.8875 37.7431 64.8875C37.1464 64.8875 36.5496 64.8875 36.2513 65.0367C36.1021 65.0367 35.8037 65.1859 35.5054 65.4842C35.3562 65.7826 35.207 66.2302 35.207 66.5285C35.207 66.8269 35.5054 66.9761 35.8038 67.1253C36.2513 67.2744 37.4448 67.2744 38.0415 67.1253C38.7874 66.9761 39.9808 66.8269 39.9808 66.6777H40.13V66.8269C40.13 66.8269 39.5333 69.2138 39.5333 69.363C39.5333 69.5122 39.3841 69.5122 39.2349 69.5122C39.0857 69.5122 38.9366 69.6614 38.6382 69.6614C38.1907 69.8105 37.594 69.9597 36.6989 70.1089C36.4005 70.1089 35.9529 70.2581 35.3562 70.2581C35.0578 70.2581 34.7595 70.2581 34.4611 70.2581C34.0136 70.2581 33.7152 70.2581 33.4168 70.1089C33.1185 69.9597 32.6709 69.9597 32.0742 69.6614C31.7758 69.5122 31.3283 69.2138 31.0299 68.7663C30.7315 68.3187 30.5824 67.8712 30.284 67.2744C30.284 66.8269 30.284 65.6334 30.7316 64.5892ZM46.8432 71.3024C45.9481 72.0483 44.6055 72.0483 44.4563 72.0483H44.0088C43.8596 72.0483 40.5776 71.8991 40.5776 71.8991C40.4284 71.8991 40.4284 71.8991 40.4284 71.7499C40.4284 71.6007 40.4284 71.6007 40.4284 71.4515L40.8759 69.2138C40.8759 69.0646 41.0251 68.9154 41.1743 68.9154C41.3235 68.9154 41.771 68.9154 42.3678 68.9154C42.9645 68.9154 43.5612 68.9154 43.7104 68.9154V68.7663L41.4727 61.9039V61.7547C41.4727 61.6055 41.6219 61.4563 41.771 61.4563H42.2186H45.9481H46.0973C46.2465 61.4563 46.2465 61.6055 46.2465 61.6055C46.2465 61.6055 46.2465 61.7547 46.2465 62.0531C46.3957 63.0973 46.694 65.3351 46.694 65.4842C46.8432 65.1859 47.8875 62.9482 48.3351 62.0531C48.4842 61.7547 48.4842 61.6055 48.4842 61.6055C48.4842 61.4563 48.6334 61.4563 48.7826 61.4563H51.6171H53.1089C53.1089 61.4563 53.2581 61.4563 53.2581 61.6055C53.2581 61.6055 53.2581 61.7547 53.2581 61.9039C53.2581 62.0531 52.363 63.2465 51.3187 65.0367L48.7826 69.0646C47.8875 70.2581 47.2908 70.8548 46.8432 71.3024ZM89.211 73.3909C81.006 78.6123 64.8943 81.5959 46.3957 81.5959C40.876 81.5959 35.5054 81.2976 30.5824 80.85C26.4053 80.4025 22.3774 79.8058 18.797 78.9107C12.5313 77.568 7.30992 75.6286 3.58037 73.3909C1.641 72.1975 0.745912 69.5122 0.745912 65.4842C0.745912 62.6498 1.49181 58.771 3.58037 57.5776C7.75747 55.1907 13.7247 53.4005 21.1839 52.207C23.72 51.7595 26.2561 51.4611 29.0905 51.1627C29.5381 51.1627 30.1348 51.0136 30.5824 51.0136C30.8807 51.3119 31.1791 51.6103 31.4775 51.9087C31.0299 51.9087 30.4332 52.0578 29.9857 52.0578C18.797 53.1021 9.69683 55.3399 4.17709 58.4727C2.53608 59.3678 1.79016 62.6498 1.79016 65.3351C1.79016 67.8712 2.23772 71.004 4.17709 72.3466C8.20501 74.8827 13.874 76.8221 20.8855 78.1647C25.6594 76.5237 31.925 75.4795 36.9972 75.7778C39.3841 75.927 40.5776 79.209 41.0251 80.1041C41.4727 81.1484 53.1089 74.8827 67.5796 75.7778H67.4304L68.4747 75.927C68.4747 75.927 71.6075 76.0762 71.3091 78.0156C71.3091 78.1647 71.3091 78.3139 71.1599 78.3139C78.4699 76.9713 84.5864 74.8827 88.6143 72.3466C90.5536 71.1532 91.0012 67.8712 91.0012 65.3351C91.0012 62.6498 90.2553 59.3678 88.6143 58.4727C83.0945 55.489 74.442 53.2513 63.5517 52.207C62.9549 52.207 62.209 52.0578 61.6123 52.0578C61.9106 51.7595 62.209 51.4611 62.5074 51.1627C63.1041 51.1627 63.85 51.3119 64.4467 51.3119C66.9828 51.6103 69.519 51.9087 71.7567 52.3562C79.2158 53.5497 85.1831 55.489 89.3602 57.7268C91.4487 58.9202 92.1946 62.6498 92.1946 65.6334C92.0455 69.5122 91.0012 72.1975 89.211 73.3909Z" fill="#1A1F35"/>
<path d="M82.796 67.1252C82.796 67.1252 83.3927 66.0809 83.0943 65.1858C82.7959 64.4399 82.1992 64.5891 82.0501 64.5891C82.0501 64.5891 81.3041 64.5891 80.8566 65.1858C80.1107 66.0809 80.409 67.2744 80.409 67.2744C80.409 67.2744 80.5582 68.0203 81.4533 68.0203C82.3484 67.7219 82.796 67.1252 82.796 67.1252Z" fill="#1A1F35"/>
<path d="M35.9531 54.1465C37.8924 55.9367 41.3236 58.1744 45.6499 58.1744C45.7991 58.1744 45.9483 58.1744 46.2466 58.1744C46.545 58.1744 46.8433 58.1744 46.8433 58.1744C51.1696 58.1744 54.6008 55.7875 56.5402 54.1465C58.4796 52.3563 66.8338 45.1956 68.624 39.6758C70.1158 34.7528 69.9666 28.9347 63.8501 23.7133C63.2534 23.1166 61.314 21.7739 61.1649 21.7739C57.4353 19.2378 53.5566 18.7903 50.7221 18.7903C49.9762 18.7903 49.3794 18.7903 48.9319 18.9395C48.3352 18.9395 47.2909 19.2378 46.0974 19.2378C45.0532 19.2378 43.8597 18.9395 43.263 18.9395C42.9646 18.6411 42.3679 18.6411 41.7712 18.6411C38.9367 18.6411 35.058 19.2378 31.3284 21.6248C31.1792 21.7739 29.389 22.9674 28.6431 23.5641C22.5266 28.7855 22.3775 34.6036 23.8693 39.5266C25.6595 45.1956 34.0137 52.3563 35.9531 54.1465ZM57.1369 20.2821C62.5075 21.9231 68.0272 27.5921 68.9223 32.8134C68.9223 32.8134 69.8174 36.6922 67.4305 41.6152C66.237 44.0021 64.1485 46.389 60.8665 49.2235C60.8665 49.2235 60.8665 49.2235 60.7173 49.2235C60.7173 49.2235 60.7173 49.2235 60.8665 49.0743C61.9108 48.1792 69.6682 40.8693 66.983 32.3659C66.0879 29.5314 63.2534 26.5478 59.8222 24.31C55.7943 21.6248 51.0205 19.8346 48.4844 19.387C48.4844 19.387 51.6172 18.6411 57.1369 20.2821ZM60.1206 47.1349C57.4353 52.3563 55.3467 56.6826 48.4844 57.5777C48.186 57.5777 45.7991 57.7269 44.0089 57.5777C41.7712 57.1301 39.8318 56.3842 38.6383 55.4891C35.2071 53.2514 32.5218 49.9694 32.5218 49.9694C32.5218 49.9694 46.0974 54.7432 52.0647 41.466C58.032 28.1888 45.2023 19.2378 45.2023 19.2378C62.955 22.8182 63.9993 39.3775 60.1206 47.1349ZM25.9578 34.7528C23.5709 31.0232 25.8087 25.6527 31.3284 22.3707C37.4449 18.6411 43.5613 18.6411 45.9482 22.2215C48.186 25.951 45.9483 31.7692 40.4285 35.2003C34.9088 38.6315 28.1956 38.3332 25.9578 34.7528Z" fill="#1A1F35"/>
<path d="M25.212 67.1252C25.212 67.1252 25.8087 66.0809 25.5103 65.1858C25.212 64.4399 24.6152 64.5891 24.4661 64.5891C24.4661 64.5891 23.7202 64.5891 23.2726 65.1858C22.5267 66.0809 22.825 67.2744 22.825 67.2744C22.825 67.2744 22.9742 68.0203 23.8693 68.0203C24.9136 67.7219 25.212 67.1252 25.212 67.1252Z" fill="#1A1F35"/>
</g>
<defs>
<clipPath id="clip0_2079_934">
<rect width="93" height="100" fill="white"/>
</clipPath>
</defs>
</svg>
