<svg width="92" height="100" viewBox="0 0 92 100" fill="none" xmlns="http://www.w3.org/2000/svg">
<g clip-path="url(#clip0_2079_932)">
<path fill-rule="evenodd" clip-rule="evenodd" d="M46.0981 4.74591C71.1608 4.74591 91.5987 25.1839 91.5987 50.0973C91.5987 75.16 71.1608 95.5979 46.0981 95.5979C21.0355 95.5979 0.59752 75.16 0.59752 50.0973C0.59752 25.1839 21.0355 4.74591 46.0981 4.74591ZM46.0981 4C71.4591 4 92.1954 24.7363 92.1954 50.0973C92.1954 75.4583 71.4591 96.1946 46.0981 96.1946C20.7371 96.1946 0.000799927 75.4583 0.000799927 50.0973C-0.148382 24.7363 20.5879 4 46.0981 4Z" fill="#1A1F35"/>
<path d="M56.2426 13.8457L57.4361 9.22113C56.9885 9.07195 56.541 9.07192 56.0934 8.77356L54.3032 15.636L55.0491 15.7851C56.541 14.5917 58.182 13.2491 59.823 12.2048L58.4804 16.9786C58.9279 17.1278 59.3754 17.277 59.823 17.4262L61.6131 10.5638C61.3148 10.5638 61.1656 10.4146 60.8672 10.4146C59.5246 11.4589 57.8836 12.8015 56.2426 13.8457Z" fill="#1A1F35"/>
<path d="M67.879 13.3985L66.6855 15.9346C65.7904 16.0838 64.8953 16.0837 64.2986 15.3378C63.8511 14.7411 65.1937 12.8017 65.3429 12.205C64.8953 12.0558 64.4478 11.7575 64.0002 11.4591C63.2543 13.1001 61.7625 15.1886 63.851 16.2329C64.5969 16.6805 65.3429 16.6805 66.0888 16.5313L64.5969 19.6641C65.0445 19.8133 65.4921 20.1117 65.9396 20.41L68.9233 14.1444C68.7741 13.9952 68.3265 13.6968 67.879 13.3985Z" fill="#1A1F35"/>
<path d="M51.4687 10.713C50.4244 10.713 49.5293 10.5638 48.485 10.5638L48.6342 7.72939C48.1867 7.72939 47.7391 7.72938 47.1424 7.5802L46.6948 14.5917C47.1424 14.5917 47.5899 14.5917 48.1866 14.7409L48.485 11.3098C49.5293 11.3098 50.4244 11.4589 51.4687 11.4589L51.1703 14.8901C51.6178 14.8901 52.0654 14.8901 52.6621 15.0393L53.1097 8.02773C52.6621 8.02773 52.2146 8.02772 51.6179 7.87854L51.4687 10.713Z" fill="#1A1F35"/>
<path d="M72.8019 16.6803C72.3544 16.3819 72.0561 16.0835 71.6085 15.7852L67.5806 21.3049L68.0281 21.7524L68.6249 22.3492L69.9675 20.4098L72.8019 16.6803Z" fill="#1A1F35"/>
<path d="M43.8605 7.72968C42.8163 9.51987 41.772 11.3101 40.4294 12.8019L40.131 8.02802C39.6834 8.1772 39.2359 8.17721 38.6392 8.17721L39.0867 15.1888H39.8326C40.8769 13.3986 42.0704 11.7576 43.2638 9.96742L43.5622 14.8904C44.0098 14.8904 44.4573 14.7412 45.054 14.7412L44.6065 7.72968C44.3081 7.5805 44.0097 7.5805 43.8605 7.72968Z" fill="#1A1F35"/>
<path d="M28.7928 11.3098C28.7928 12.5032 28.9421 13.995 28.6437 15.1885C27.5994 14.4426 26.5552 13.6967 25.6601 12.8016C25.0633 13.0999 24.6158 13.3983 24.019 13.5475C25.5109 14.7409 27.1519 15.636 28.6437 16.9787C28.6437 17.7246 28.6437 18.3213 28.4945 19.0672C28.7929 18.918 28.9421 18.7689 29.2404 18.7689C29.0912 16.2328 29.3896 13.3983 29.5388 10.8622C29.3896 11.1605 29.0912 11.3098 28.7928 11.3098Z" fill="#1A1F35"/>
<path d="M23.5719 13.9952C23.2735 14.2936 22.9752 14.4428 22.6768 14.592C22.5276 15.9346 22.3784 17.4265 22.0801 18.7691L20.4391 16.0838C19.9915 16.3821 19.6932 16.6805 19.2456 16.9789L22.826 22.9462C23.2735 22.6478 23.5719 22.3494 24.0195 22.0511L22.3784 19.3658L25.8096 20.8576C26.2572 20.5593 26.7047 20.2609 27.1523 19.9625L22.826 18.0232C22.826 17.5756 23.7211 14.2936 23.5719 13.9952Z" fill="#1A1F35"/>
<path d="M33.5668 9.66884C33.4176 9.66884 33.2684 9.66884 33.1192 9.66884C32.97 12.2049 32.5225 14.7411 32.2241 17.2772C32.5225 17.128 32.8209 17.128 33.1192 16.9788C33.1192 15.4869 33.4176 13.6967 33.5668 11.6082C34.611 13.1 35.6553 14.4427 36.5504 16.0837C37.1471 15.9345 37.5947 15.7853 38.1914 15.6361C36.6996 13.6968 35.3569 11.6082 34.0143 9.51965C33.8651 9.51965 33.7159 9.51966 33.5668 9.66884Z" fill="#1A1F35"/>
<path fill-rule="evenodd" clip-rule="evenodd" d="M34.0147 91.1222C34.1639 91.1222 34.1639 91.2714 34.3131 91.2714H34.4623C34.4623 91.2714 34.4623 91.2714 34.6115 91.2714H34.7606C34.9098 91.2714 35.059 91.1222 35.059 90.9731C35.2082 90.8239 35.2082 90.5255 35.2082 90.078V84.2599C35.2082 84.1107 35.2082 83.9615 35.059 83.8123C35.059 83.6631 34.9098 83.6631 34.7606 83.6631H34.6115C34.4623 83.6631 34.4623 83.6631 34.3131 83.8123H34.1639C34.1639 83.8123 34.1639 83.8123 34.0147 83.9615C34.0147 83.9615 33.8655 83.9615 33.8655 84.1107C33.8655 84.1107 33.7164 84.1107 33.7164 84.2599L33.418 83.8123C33.7163 83.6631 33.8655 83.5139 34.1639 83.3647C34.4622 83.2156 34.7606 83.0664 35.059 82.9172H35.2082C35.2082 82.9172 35.3574 82.9172 35.3574 82.768C35.6557 82.6188 35.9541 82.4697 36.2524 82.3205C36.5508 82.1713 36.7 82.0221 36.9983 81.8729V90.2271C36.9983 90.5255 36.9983 90.8239 37.1475 90.9731C37.2967 91.1222 37.4459 91.2714 37.5951 91.2714H37.7442H37.8934H38.0426C38.0426 91.2714 38.0426 91.2714 38.1918 91.2714C38.1918 91.2714 38.1918 91.2714 38.341 91.2714V91.8682H34.0147V91.1222ZM40.4296 91.1222H40.5787H40.7279H40.8771C41.0263 91.1222 41.0263 91.1222 41.0263 91.1222H41.1755H41.3247C41.4738 91.1222 41.7722 90.9731 41.9214 90.9731C42.0706 90.8239 42.2197 90.8239 42.3689 90.6747C42.8165 90.3763 43.1148 89.9288 43.264 89.4812C43.4132 89.0337 43.5624 88.437 43.7115 87.9894C43.7115 87.8402 43.7115 87.6911 43.7115 87.5419C43.7115 87.3927 43.7115 87.2435 43.7115 87.2435C43.5624 87.5419 43.264 87.691 42.9656 87.8402C42.6673 87.9894 42.3689 88.1386 42.0706 88.2878C41.9214 88.2878 41.9214 88.2878 41.7722 88.2878C41.7722 88.2878 41.623 88.2878 41.4738 88.2878H41.7722H41.623C41.4738 88.2878 41.3246 88.1386 41.1755 88.1386C41.0263 87.9894 40.8771 87.9894 40.7279 87.8402C40.4295 87.5419 40.2804 87.3927 40.1312 87.0943C39.982 86.7959 39.982 86.4976 39.8328 86.0501V85.9009V85.7517V85.6025C39.8328 85.0058 40.1312 84.2599 40.5787 83.8123C41.0263 83.2156 41.4738 82.9172 42.2197 82.768H42.3689H42.5181C42.6673 82.768 42.6673 82.768 42.8165 82.768C42.9657 82.768 42.9656 82.768 43.1148 82.768C44.0099 82.768 44.7558 83.0664 45.2034 83.8123C45.6509 84.5582 45.9493 85.4533 45.9493 86.3484C45.9493 87.8402 45.5017 89.1829 44.6066 90.2271C43.7115 91.4206 42.5181 92.0173 40.8771 92.0173L40.7279 91.8682L40.5787 91.719L40.4296 91.5698C40.4296 91.4206 40.4296 91.2714 40.4296 91.1222ZM43.1148 87.2435C43.5624 87.2435 43.7115 87.0943 43.8607 86.796C44.0099 86.4976 44.1591 86.1992 44.1591 85.9009V85.7517V85.6025V85.155C44.1591 85.0058 44.1591 85.0058 44.1591 84.8566C44.1591 84.7074 44.1591 84.7074 44.1591 84.5582C44.0099 84.2599 43.8607 83.9615 43.7115 83.6631C43.5624 83.3648 43.264 83.2156 42.9656 83.2156H42.8165C42.5181 83.2156 42.2198 83.3648 42.0706 83.6631C41.9214 83.9615 41.7722 84.2599 41.7722 84.5582C41.7722 84.7074 41.7722 84.7074 41.7722 84.8566C41.7722 85.0058 41.7722 85.0058 41.7722 85.155C41.7722 85.155 41.7722 85.155 41.7722 85.3041V85.4533V85.6025C41.7722 85.9008 41.9214 86.3484 42.2197 86.6468C42.2197 87.0943 42.5181 87.2435 43.1148 87.2435C42.9656 87.2435 42.9656 87.2435 43.1148 87.2435ZM48.3362 91.1222C48.4854 91.2714 48.6346 91.2714 48.6346 91.2714C48.6346 91.2714 48.7837 91.2714 48.9329 91.2714H49.0821H49.2313H49.3805C49.5297 91.2714 49.828 91.1222 49.9772 91.1222C50.1264 90.9731 50.4248 90.973 50.5739 90.8239C51.0215 90.5255 51.3199 90.078 51.469 89.6304C51.6182 89.1829 51.7674 88.5861 51.9166 88.1386C51.9166 87.9894 51.9166 87.8402 51.9166 87.691C51.9166 87.5418 51.9166 87.3927 51.9166 87.3927C51.7674 87.6911 51.469 87.8402 51.1707 87.9894C50.8723 88.1386 50.574 88.2878 50.2756 88.4369C50.1264 88.4369 50.1264 88.4369 49.9772 88.4369C49.9772 88.4369 49.828 88.4369 49.6788 88.4369H49.5297H49.3805C49.2313 88.4369 49.0821 88.2878 48.9329 88.2878C48.7837 88.1386 48.6346 88.1386 48.4854 87.9894C48.187 87.691 48.0379 87.5419 47.8887 87.2435C47.7395 86.9451 47.5903 86.6467 47.5903 86.1992V86.0501V85.9009V85.7517C47.7395 85.1549 47.8887 84.409 48.3362 83.9615C48.7837 83.3647 49.2313 83.0664 49.9772 82.9172H50.1264H50.2756C50.4248 82.9172 50.4248 82.9172 50.5739 82.9172C50.7231 82.9172 50.7231 82.9172 50.8723 82.9172C51.7674 82.9172 52.5133 83.2156 52.9609 83.9615C53.4084 84.7074 53.7068 85.6025 53.7068 86.4976C53.7068 87.9894 53.2592 89.3321 52.5133 90.3763C51.6182 91.5698 50.4248 92.1665 48.7838 92.1665L48.6346 92.0173L48.4854 91.8682L48.3362 91.719L48.187 91.5698L48.3362 91.1222ZM50.8723 87.2435C51.3199 87.2435 51.469 87.0943 51.6182 86.796C51.7674 86.4976 51.9166 86.1992 51.9166 85.9009V85.7517V85.6025V85.155C51.9166 85.0058 51.9166 85.0058 51.9166 84.8566C51.9166 84.7074 51.9166 84.7074 51.7674 84.5582C51.6182 84.2599 51.6182 83.9615 51.3198 83.6631C51.1707 83.3648 50.8723 83.2156 50.5739 83.2156H50.4247C50.1264 83.2156 49.828 83.3648 49.6788 83.6631C49.5296 83.9615 49.3805 84.2599 49.3805 84.5582C49.3805 84.7074 49.3805 84.7074 49.3805 84.8566C49.3805 85.0058 49.3805 85.0058 49.3805 85.155C49.3805 85.155 49.3805 85.155 49.3805 85.3041V85.4533V85.6025C49.3805 85.9008 49.5297 86.3484 49.828 86.6468C50.1264 87.0943 50.4248 87.2435 50.8723 87.2435ZM55.497 91.5698C55.497 91.4206 55.497 91.1222 55.497 90.9731C55.497 90.8239 55.497 90.6747 55.497 90.3763C55.497 90.2272 55.497 90.078 55.497 89.7796V89.1828H55.9445C55.9445 89.6304 56.0937 89.9288 56.2429 90.2271C56.3921 90.5255 56.6904 90.8239 57.1379 90.8239C57.2871 90.8239 57.2871 90.8239 57.4363 90.8239C57.5855 90.8239 57.5855 90.8239 57.7347 90.8239C58.1823 90.8239 58.4806 90.6747 58.779 90.3763C59.0773 90.078 59.2265 89.7796 59.3757 89.332V89.1828V89.4812V89.332V89.1828C59.3757 88.5861 59.2265 88.1386 58.779 87.8402C58.4806 87.5419 58.0331 87.3927 57.4363 87.3927C57.2871 87.3927 57.138 87.3927 56.9888 87.3927C56.8396 87.3927 56.6904 87.3927 56.5412 87.5419C56.392 87.5419 56.2429 87.691 56.2429 87.691C56.0937 87.691 55.9445 87.8402 55.7953 87.9894L55.6461 87.8402C55.6461 87.691 55.6461 87.5419 55.6461 87.3927C55.6461 87.2435 55.6461 87.0943 55.6461 86.9451C55.6461 86.6467 55.6461 86.4976 55.6461 86.1992V85.6025V85.155C55.6461 85.0058 55.6461 84.8566 55.6461 84.7074C55.6461 84.409 55.6461 84.2598 55.6461 83.9615C55.6461 83.6631 55.6461 83.5139 55.6461 83.3647L55.9445 82.9172C56.0937 82.9172 56.2429 82.9172 56.392 82.9172C56.5412 82.9172 56.6904 82.9172 56.8396 82.9172C56.9888 82.9172 57.138 82.9172 57.2871 82.9172H57.7347H58.3314C58.4806 82.9172 58.779 82.9172 58.9282 82.9172H59.2265C59.3757 82.9172 59.5249 82.9172 59.5249 82.9172C59.6741 82.9172 59.8233 82.9172 59.9724 82.9172C60.1216 82.9172 60.2708 82.9172 60.42 82.9172V83.0664V83.2156V83.3647V83.5139C60.42 83.5139 60.42 83.6631 60.42 83.8123V83.9615C60.42 83.9615 60.42 84.1107 60.42 84.2599V84.409H56.392C56.392 84.8566 56.392 85.1549 56.392 85.6025C56.392 85.9008 56.392 86.3484 56.392 86.6468C56.5412 86.4976 56.8396 86.4976 56.9888 86.4976C57.138 86.4976 57.4363 86.3484 57.5855 86.3484C57.7347 86.3484 57.7347 86.3484 57.8839 86.3484C58.033 86.3484 58.0331 86.3484 58.1822 86.3484C58.779 86.3484 59.5249 86.4976 59.9724 86.9451C60.5692 87.2435 60.7184 87.8402 60.7184 88.7353V88.8845C60.7184 89.9288 60.2708 90.6747 59.5249 91.2714C58.779 91.8682 57.8839 92.3157 56.9888 92.3157H56.8396H56.6904C56.5412 92.3157 56.5412 92.3157 56.392 92.3157C56.2429 92.3157 56.2429 92.3157 56.0937 92.3157C55.9445 92.3157 55.6462 92.3157 55.497 92.1665C55.7953 91.7189 55.6462 91.719 55.497 91.5698Z" fill="#1A1F35"/>
<path fill-rule="evenodd" clip-rule="evenodd" d="M46.3966 36.8199C40.8768 36.8199 36.998 36.0739 36.998 35.4772C36.998 34.7313 40.8768 33.9854 46.3966 33.9854C51.9163 33.9854 55.795 34.7313 55.795 35.4772C55.795 36.0739 51.9163 36.8199 46.3966 36.8199Z" fill="#1A1F35"/>
<path fill-rule="evenodd" clip-rule="evenodd" d="M36.6997 31.8968C39.9817 31.1509 43.4129 30.7034 46.8441 30.7034C49.9769 30.7034 53.1098 31.0017 56.2426 31.7476L55.9442 34.7313C54.8999 33.9854 50.5737 33.5378 46.3966 33.5378C42.667 33.5378 37.8932 33.8362 36.8489 34.7313L36.6997 31.8968ZM38.0423 32.9411L40.4293 33.3886L42.8162 32.1952L40.1309 31.5985L38.0423 32.9411ZM49.9769 32.046L52.3638 33.2394L54.8999 32.7919L52.8114 31.4493L49.9769 32.046ZM43.8604 32.046L46.3966 33.0903L49.0818 32.046L46.3966 31.1509L43.8604 32.046Z" fill="#1A1F35"/>
<path fill-rule="evenodd" clip-rule="evenodd" d="M36.4014 28.3164C37.1473 29.5098 37.8932 30.1066 38.6391 30.1066C39.5342 30.1066 40.1309 29.2115 40.7276 27.2721C41.7719 28.7639 42.8162 29.5098 43.8605 29.5098C44.9048 29.5098 45.9491 28.6148 47.1425 26.9738C48.0376 28.7639 49.0819 29.659 50.1262 29.659C51.1704 29.659 52.0655 28.9131 53.259 27.2721C53.8557 29.3606 54.4524 30.4049 55.1983 30.4049C55.6459 30.4049 56.2426 29.9574 56.8394 29.0623L56.541 31.4492C53.5573 30.7033 50.4245 30.4049 47.2917 30.4049C43.8605 30.4049 40.4293 30.8525 36.9981 31.5984L36.4014 28.3164Z" fill="#1A1F35"/>
<path fill-rule="evenodd" clip-rule="evenodd" d="M55.1985 29.6592C54.6018 29.6592 53.8559 28.6149 53.2592 26.6755V26.5263L53.11 26.6755C52.0657 28.1674 51.0214 28.7641 50.1263 28.7641C49.0821 28.7641 48.187 27.869 47.2919 26.228V26.0788L47.1427 26.228C46.2476 28.0182 45.2033 28.9133 44.0099 28.9133C42.9656 28.9133 41.9213 28.1674 40.7278 26.8247L40.5787 26.6755V26.8247C39.9819 28.6149 39.3852 29.6592 38.6393 29.6592C38.0426 29.6592 37.4459 29.2116 36.8491 28.1674V27.1231C37.4459 28.0182 38.0426 28.6149 38.6393 28.6149C39.5344 28.6149 40.2803 27.4215 40.4295 25.3329C41.3246 26.6755 42.518 27.5706 43.7115 27.5706C45.0541 27.5706 46.3968 26.5264 46.9935 24.8854C47.7394 26.6756 48.9329 27.7198 50.1263 27.7198C51.3198 27.7198 52.2149 26.8247 52.9608 25.3329C53.11 27.4215 53.7067 28.6149 54.751 28.6149C55.1985 28.6149 55.7952 28.3166 56.392 27.7198L56.2428 28.7641C55.9445 29.3608 55.4969 29.6592 55.1985 29.6592Z" fill="#1A1F35"/>
<path fill-rule="evenodd" clip-rule="evenodd" d="M38.49 27.869C36.849 27.4214 36.2523 26.228 36.4015 24.1394L37.595 23.5427C37.2966 24.5869 37.2966 25.482 37.595 25.7804C37.7442 25.9296 37.8933 25.9296 38.0425 25.9296C38.3409 25.9296 38.6392 25.6312 38.9376 25.3329C39.0868 25.0345 39.5343 24.1394 39.0868 22.9459L39.3851 22.7968C39.5343 23.2443 39.8327 23.6919 40.2802 23.9902C40.131 26.228 39.6835 27.5706 38.49 27.869Z" fill="#1A1F35"/>
<path fill-rule="evenodd" clip-rule="evenodd" d="M43.7112 26.6758C42.2194 26.6758 40.5784 25.6315 40.4292 23.8413C40.7276 23.3938 40.8767 22.9462 40.8767 22.3495H42.5177C42.0702 23.2446 42.2194 23.9905 42.3686 24.2888C42.6669 24.7364 43.1145 25.0348 43.7112 25.0348C44.3079 25.0348 44.7555 24.7364 45.0539 24.2888C45.203 23.9905 45.3522 23.2446 44.7555 22.3495H46.0981C46.0981 22.797 46.3965 23.2446 46.6948 23.5429C46.5456 25.9298 45.0538 26.6758 43.7112 26.6758Z" fill="#1A1F35"/>
<path fill-rule="evenodd" clip-rule="evenodd" d="M50.2754 26.825C48.9328 26.825 47.4409 25.7807 47.1426 23.5429C47.5901 23.2446 47.7393 22.9462 47.8885 22.3495L49.0819 22.4987C48.6344 23.2446 48.4852 23.9905 48.7836 24.438C49.082 24.8856 49.5295 25.1839 49.977 25.1839C50.4246 25.1839 50.8721 24.8856 51.1705 24.5872C51.3197 24.2889 51.4689 23.543 51.0213 22.4987L52.6623 22.6479C52.6623 23.0954 52.6623 23.3938 52.9607 23.8413C52.8115 25.7807 51.6181 26.825 50.2754 26.825Z" fill="#1A1F35"/>
<path fill-rule="evenodd" clip-rule="evenodd" d="M54.9002 28.0181C53.7068 27.7198 53.2593 26.3771 53.2593 23.841C53.7068 23.6919 54.0052 23.2443 54.1543 22.7968L54.4527 22.9459C53.856 24.1394 54.3035 25.1837 54.4527 25.4821C54.7511 25.9296 55.0495 26.228 55.3478 26.228C55.497 26.228 55.6462 26.0788 55.7953 25.9296C55.9445 25.6312 56.2429 25.0345 55.9445 23.6919L56.6905 24.1394C56.8396 25.4821 56.5413 26.6755 55.9445 27.4214C55.7954 27.7198 55.3478 28.0181 54.9002 28.0181Z" fill="#1A1F35"/>
<path fill-rule="evenodd" clip-rule="evenodd" d="M46.9932 22.9461C45.9489 21.4543 45.9489 20.1117 46.9932 18.769C48.0374 20.1117 48.0374 21.4543 46.9932 22.9461Z" fill="#1A1F35"/>
<path fill-rule="evenodd" clip-rule="evenodd" d="M40.2801 23.3938C39.385 22.4988 39.2358 21.4545 39.6834 20.1118C40.4293 20.8577 40.5784 22.0512 40.2801 23.3938Z" fill="#1A1F35"/>
<path fill-rule="evenodd" clip-rule="evenodd" d="M36.1033 24.736C35.2082 24.1392 35.0591 22.9458 35.3574 22.0507C35.9541 22.6474 36.2525 23.6917 36.1033 24.736Z" fill="#1A1F35"/>
<path fill-rule="evenodd" clip-rule="evenodd" d="M57.1378 24.4378C56.8394 23.2444 57.1378 22.2001 57.8837 21.6034C58.0329 22.946 57.8837 23.8411 57.1378 24.4378Z" fill="#1A1F35"/>
<path fill-rule="evenodd" clip-rule="evenodd" d="M53.2594 23.0955C52.961 21.7528 53.2593 20.5594 54.1544 19.6643C54.602 21.3053 54.3036 22.3496 53.2594 23.0955Z" fill="#1A1F35"/>
<path fill-rule="evenodd" clip-rule="evenodd" d="M46.695 70.2369C42.0704 70.2369 38.1917 69.491 36.1031 68.1483C35.6556 67.7008 35.5064 67.4024 35.6555 66.9549C35.6555 66.6565 35.8048 66.5073 36.1031 66.3581C36.5507 68.2975 41.7721 69.1926 46.5459 69.1926C49.8279 69.1926 54.1542 68.7451 55.3476 67.4024C55.4968 67.2533 55.646 66.9549 55.646 66.6565C56.0935 66.8057 56.3919 67.1041 56.3919 67.4024C56.3919 67.7008 56.2427 68.1483 55.646 68.5959C54.1541 69.6401 50.5738 70.2369 46.695 70.2369ZM45.8 69.0434C40.7278 68.8942 36.2523 67.7008 36.2523 66.3581C36.2523 65.7614 37.1474 65.1647 38.7884 64.7171C38.49 65.3139 38.3408 65.9106 38.0425 66.3581C38.0425 66.6565 38.0425 66.8057 38.0425 66.8057C38.1917 66.9548 38.3408 66.9549 38.49 66.9549C38.7884 66.9549 39.0867 66.8057 39.2359 66.5073C39.5343 65.7614 39.8327 65.0155 40.2802 64.2696C40.8769 64.2696 41.4737 64.1204 42.0704 64.1204C41.7721 64.7171 41.4737 65.463 41.1753 66.2089C41.1753 66.5073 41.1753 66.6565 41.1753 66.6565C41.3245 66.8057 41.3245 66.8057 41.6228 66.8057C41.9212 66.8057 42.2196 66.6565 42.3688 66.3581C42.6671 65.6122 42.9655 64.8663 43.413 63.9712C43.5622 63.9712 43.8606 63.9712 44.159 63.9712H45.2032C44.9048 64.7171 44.6065 65.3138 44.3081 66.0598C44.3081 66.3581 44.3081 66.5073 44.4573 66.5073C44.6065 66.6565 44.7557 66.6565 44.9049 66.6565C45.2032 66.6565 45.5016 66.5073 45.6508 66.2089C45.9491 65.3139 46.3967 64.5679 46.695 63.822C47.4409 63.822 48.0377 63.9712 48.7836 63.9712C48.3361 64.5679 48.0377 65.3138 47.5901 66.0598C47.441 66.3581 47.5901 66.5073 47.5901 66.6565C47.7393 66.8057 47.8885 66.8057 48.0377 66.8057C48.3361 66.8057 48.6344 66.6565 48.7836 66.3581C49.2312 65.6122 49.6787 64.8663 50.2754 64.1204C50.723 64.2696 51.1705 64.2696 51.6181 64.4188C51.1705 65.1647 50.723 65.9106 50.4246 66.6565C50.2754 66.9549 50.4246 67.1041 50.4246 67.2532C50.5738 67.4024 50.723 67.4024 50.8722 67.4024C51.1705 67.4024 51.4689 67.2532 51.6181 66.9549C52.0656 66.2089 52.5132 65.3139 52.9607 64.7171C54.4525 65.3139 55.4968 65.9106 55.4968 66.5073C55.4968 67.85 51.6181 68.8943 46.8442 68.8943C46.2475 69.0434 46.0983 69.0434 45.8 69.0434Z" fill="#1A1F35"/>
<path fill-rule="evenodd" clip-rule="evenodd" d="M8.65332 66.2089C8.65332 65.3138 9.25005 65.463 9.39923 66.2089C10.1451 72.7729 16.7092 80.2321 24.0191 84.5584L23.7207 85.3043C15.2174 80.6796 9.25005 73.3697 8.65332 66.2089Z" fill="#1A1F35"/>
<path fill-rule="evenodd" clip-rule="evenodd" d="M10.4439 58.7498C11.339 61.2859 10.2947 63.5236 8.35531 64.717C7.75858 62.4793 8.20612 59.9432 10.4439 58.7498Z" fill="#1A1F35"/>
<path fill-rule="evenodd" clip-rule="evenodd" d="M9.84669 54.2745C10.7418 56.8106 9.69752 59.0484 7.75815 60.2418C7.16142 58.0041 7.60895 55.468 9.84669 54.2745Z" fill="#1A1F35"/>
<path fill-rule="evenodd" clip-rule="evenodd" d="M9.99632 50.2463C10.4439 52.9316 8.95203 54.871 6.86348 55.7661C6.7143 53.3791 7.6094 50.9922 9.99632 50.2463Z" fill="#1A1F35"/>
<path fill-rule="evenodd" clip-rule="evenodd" d="M4.32715 61.1367C4.17797 63.822 5.66978 65.6122 7.90752 66.3581C7.90752 63.822 6.71407 61.5843 4.32715 61.1367Z" fill="#1A1F35"/>
<path fill-rule="evenodd" clip-rule="evenodd" d="M3.58155 56.8104C3.43236 59.4957 4.92418 61.2859 7.16191 62.0318C7.31109 59.6449 6.11765 57.258 3.58155 56.8104Z" fill="#1A1F35"/>
<path fill-rule="evenodd" clip-rule="evenodd" d="M3.58134 51.7382C2.98461 54.2743 4.1781 56.512 6.26665 57.4071C6.56501 55.1693 5.81908 52.6333 3.58134 51.7382Z" fill="#1A1F35"/>
<path fill-rule="evenodd" clip-rule="evenodd" d="M3.87954 46.8152C2.83527 49.2021 3.73033 51.589 5.6697 52.9317C6.41561 50.5448 6.11728 48.1578 3.87954 46.8152Z" fill="#1A1F35"/>
<path fill-rule="evenodd" clip-rule="evenodd" d="M4.4767 42.4889C3.43242 44.8758 4.32754 47.2627 6.26691 48.6054C7.01282 46.2185 6.56525 43.6824 4.4767 42.4889Z" fill="#1A1F35"/>
<path fill-rule="evenodd" clip-rule="evenodd" d="M5.66997 37.4166C4.32733 39.6544 4.77488 42.0412 6.41588 43.6823C7.60934 41.4445 7.60934 38.9084 5.66997 37.4166Z" fill="#1A1F35"/>
<path fill-rule="evenodd" clip-rule="evenodd" d="M10.1457 33.3887C7.90793 34.7313 7.31121 37.1182 8.05712 39.356C9.99649 37.8641 11.1899 35.6264 10.1457 33.3887Z" fill="#1A1F35"/>
<path fill-rule="evenodd" clip-rule="evenodd" d="M12.0848 37.8644C9.39956 38.1627 7.90774 40.1021 7.60938 42.3398C9.99629 41.8923 11.9357 40.4005 12.0848 37.8644Z" fill="#1A1F35"/>
<path fill-rule="evenodd" clip-rule="evenodd" d="M10.8911 41.7433C8.35504 42.4892 7.16159 44.7269 7.31077 46.9647C9.54851 46.2188 11.3387 44.2794 10.8911 41.7433Z" fill="#1A1F35"/>
<path fill-rule="evenodd" clip-rule="evenodd" d="M10.4439 46.2185C7.90777 46.9644 6.71432 49.053 6.86351 51.4399C9.10124 50.5448 10.7422 48.7546 10.4439 46.2185Z" fill="#1A1F35"/>
<path fill-rule="evenodd" clip-rule="evenodd" d="M10.5929 32.4935C12.8306 28.3164 15.6651 24.5868 19.8422 21.6032C20.4389 21.1556 20.7373 21.9015 20.2897 22.1999C16.7094 25.0344 13.7257 28.4656 11.3388 32.7919C11.0404 33.2394 10.4437 32.941 10.5929 32.4935Z" fill="#1A1F35"/>
<path fill-rule="evenodd" clip-rule="evenodd" d="M10.1454 28.3166C10.593 27.7199 11.1897 28.1674 10.7422 28.7641C8.95201 31.0018 7.60935 33.538 6.71426 36.3724C6.56508 36.9691 5.81916 36.9691 5.96835 36.2232C6.71426 33.3888 8.05688 30.7035 10.1454 28.3166Z" fill="#1A1F35"/>
<path fill-rule="evenodd" clip-rule="evenodd" d="M16.2616 29.2116C16.7092 28.7641 17.3059 29.2116 16.7092 29.6592C14.919 31.4493 13.5764 33.6871 12.8305 36.2232C12.6813 36.9691 11.9354 36.6708 12.0846 36.074C12.8305 33.5379 14.0239 31.3002 16.2616 29.2116Z" fill="#1A1F35"/>
<path fill-rule="evenodd" clip-rule="evenodd" d="M83.543 65.6125C83.543 64.7174 82.9463 64.8666 82.7971 65.6125C82.0512 72.1765 75.6364 79.6356 68.1772 83.9619L68.4756 84.857C76.8298 79.934 82.9463 72.7732 83.543 65.6125Z" fill="#1A1F35"/>
<path fill-rule="evenodd" clip-rule="evenodd" d="M81.6038 58.1532C80.7087 60.6893 81.753 62.927 83.6924 64.1205C84.2891 61.8828 83.8416 59.3467 81.6038 58.1532Z" fill="#1A1F35"/>
<path fill-rule="evenodd" clip-rule="evenodd" d="M82.2005 53.6779C81.3054 56.214 82.3497 58.4517 84.2891 59.6451C85.035 57.4074 84.4382 54.8713 82.2005 53.6779Z" fill="#1A1F35"/>
<path fill-rule="evenodd" clip-rule="evenodd" d="M82.0513 49.6497C81.6038 52.3349 83.0956 54.2743 85.1842 55.1694C85.4825 52.6333 84.4383 50.3956 82.0513 49.6497Z" fill="#1A1F35"/>
<path fill-rule="evenodd" clip-rule="evenodd" d="M87.8697 60.3909C88.0188 63.0762 86.527 64.8663 84.2893 65.6122C84.1401 63.2253 85.3336 60.9876 87.8697 60.3909Z" fill="#1A1F35"/>
<path fill-rule="evenodd" clip-rule="evenodd" d="M88.4661 56.2137C88.6153 58.899 87.1235 60.6892 84.8857 61.4351C84.8857 58.899 85.93 56.6613 88.4661 56.2137Z" fill="#1A1F35"/>
<path fill-rule="evenodd" clip-rule="evenodd" d="M88.615 51.1412C89.2117 53.6773 88.0183 55.9151 85.9297 56.8102C85.4822 54.4233 86.2281 52.0363 88.615 51.1412Z" fill="#1A1F35"/>
<path fill-rule="evenodd" clip-rule="evenodd" d="M88.168 46.2185C89.2123 48.6054 88.3171 50.9923 86.3778 52.335C85.6319 49.9481 85.9302 47.412 88.168 46.2185Z" fill="#1A1F35"/>
<path fill-rule="evenodd" clip-rule="evenodd" d="M87.7199 41.7433C88.7642 44.1302 87.8692 46.5171 85.9298 47.8598C85.0347 45.622 85.4822 43.0859 87.7199 41.7433Z" fill="#1A1F35"/>
<path fill-rule="evenodd" clip-rule="evenodd" d="M86.5266 36.6705C87.8692 38.9083 87.4217 41.2952 85.7807 42.9362C84.5872 40.8476 84.438 38.3115 86.5266 36.6705Z" fill="#1A1F35"/>
<path fill-rule="evenodd" clip-rule="evenodd" d="M81.9022 32.7922C84.14 34.1349 84.7367 36.5218 83.9908 38.7595C82.0514 37.2677 80.8579 35.03 81.9022 32.7922Z" fill="#1A1F35"/>
<path fill-rule="evenodd" clip-rule="evenodd" d="M80.1118 37.2677C82.7971 37.5661 84.2889 39.5054 84.5873 41.7432C82.0512 41.2956 80.1118 39.8038 80.1118 37.2677Z" fill="#1A1F35"/>
<path fill-rule="evenodd" clip-rule="evenodd" d="M81.156 41.1461C83.6921 41.892 84.8855 44.1298 84.7363 46.3675C82.4986 45.6216 80.7084 43.6822 81.156 41.1461Z" fill="#1A1F35"/>
<path fill-rule="evenodd" clip-rule="evenodd" d="M81.7531 45.6218C84.2892 46.3677 85.4827 48.6055 85.3335 50.8432C83.0958 49.9481 81.3056 48.0087 81.7531 45.6218Z" fill="#1A1F35"/>
<path fill-rule="evenodd" clip-rule="evenodd" d="M81.4548 31.8968C79.2171 27.7197 76.3826 23.9902 72.2055 21.0065C71.6088 20.559 71.3104 21.3049 71.758 21.6032C75.3383 24.4377 78.322 27.8689 80.7089 32.1952C81.0073 32.6427 81.7532 32.3443 81.4548 31.8968Z" fill="#1A1F35"/>
<path fill-rule="evenodd" clip-rule="evenodd" d="M82.0511 27.7199C81.6036 27.1232 81.0069 27.5707 81.4544 28.1674C83.2446 30.4052 84.5872 32.9413 85.4823 35.7757C85.6315 36.3725 86.3774 36.3724 86.2282 35.4774C85.3331 32.7921 83.9905 30.1068 82.0511 27.7199Z" fill="#1A1F35"/>
<path fill-rule="evenodd" clip-rule="evenodd" d="M75.7855 28.6149C75.338 28.1674 74.7413 28.6149 75.338 29.0625C77.1282 30.8527 78.4708 33.0904 79.3659 35.6265C79.5151 36.3724 80.261 36.074 80.1118 35.4773C79.2168 32.9412 78.0233 30.5543 75.7855 28.6149Z" fill="#1A1F35"/>
<path fill-rule="evenodd" clip-rule="evenodd" d="M34.0146 73.5185C33.8654 73.5185 33.8654 73.5185 33.7163 73.3693H29.6883C29.2408 73.2201 28.9424 73.2201 28.7932 72.9217C28.644 72.6234 28.7932 72.325 29.0916 71.8775C29.39 69.1922 28.7933 67.402 27.1522 66.5069C27.5998 64.8659 27.1522 63.6724 25.8096 63.0757C26.4063 62.1806 26.4063 61.1364 26.5555 59.9429C26.7047 58.8986 26.7047 57.8543 27.3014 57.1084C29.8375 58.8986 31.1801 60.3904 31.7769 62.0314C31.7769 62.9265 31.7769 63.9708 31.7769 64.8659C31.7769 66.8053 31.6277 68.7446 32.0752 70.5348C32.2244 71.2807 33.1195 71.7283 34.7605 71.8775C35.5064 72.0267 35.5064 72.6234 35.5064 72.7725C35.5064 73.2201 35.2081 73.5185 34.7605 73.5185C34.6113 73.5185 34.4622 73.5185 34.313 73.3693C34.313 73.3693 34.1638 73.5185 34.0146 73.5185Z" fill="#1A1F35"/>
<path fill-rule="evenodd" clip-rule="evenodd" d="M28.9425 71.1321C28.9425 70.9829 28.7934 70.9829 28.6442 70.9829C28.6442 70.9829 28.495 70.9829 28.495 71.1321C28.6442 70.5354 28.6442 70.237 28.6442 70.0878L28.495 69.9386C28.3458 69.9386 28.3458 69.9386 28.0474 70.0878C28.1966 69.3419 28.1966 68.7452 28.0474 68.596C27.8982 68.4468 27.8982 68.4468 27.7491 68.4468C27.5999 68.4468 27.5999 68.4468 27.4507 68.596C27.5999 68.1484 27.5999 67.7009 27.4507 66.955C28.495 67.4025 29.0917 69.0435 28.9425 71.1321Z" fill="#1A1F35"/>
<path fill-rule="evenodd" clip-rule="evenodd" d="M32.6721 70.2367C32.0754 69.0433 32.2246 66.9547 32.2246 65.0154C32.2246 64.1203 32.2246 63.076 32.2246 62.1809L33.1197 63.2252C32.9705 63.3743 32.8213 63.3744 32.6721 63.6727C32.5229 64.1203 32.6721 64.717 33.2688 65.4629C32.9705 65.6121 32.8213 65.7613 32.6721 65.9105C32.5229 66.2088 32.8213 66.8055 33.2688 67.5514C32.9705 67.5514 32.8213 67.7006 32.6721 67.8498C32.5229 68.2974 32.8213 68.8941 33.418 69.7892C33.2688 69.64 33.1197 69.64 32.9705 69.64C32.8213 69.64 32.6721 69.9384 32.6721 70.2367Z" fill="#1A1F35"/>
<path fill-rule="evenodd" clip-rule="evenodd" d="M15.9636 72.1759C15.9636 71.7284 15.8144 71.5792 15.6652 71.2808C15.516 71.1317 15.3669 71.1317 15.2177 71.1317C15.0685 71.1317 14.9193 71.1317 14.6209 71.2808C15.516 69.789 15.8144 68.8939 15.6652 68.5956C15.516 68.4464 15.3669 68.4464 15.2177 68.4464C15.0685 68.4464 14.7701 68.4464 14.6209 68.5956C15.516 67.2529 15.9636 66.507 15.6652 66.0595C15.516 65.7611 15.2176 65.6119 14.7701 65.6119H14.6209C16.4111 64.5677 17.157 63.9709 17.157 63.5234C17.157 63.225 16.7095 63.0758 16.1127 63.0758C18.2013 62.0315 18.9472 60.5397 18.3505 58.4512C18.2013 57.8545 17.6046 57.5561 17.0078 57.1085C16.4111 56.661 15.8144 56.3626 15.516 55.7659C14.9193 53.5282 15.3668 51.5888 15.8144 49.6494C16.1128 48.1576 16.5603 46.6658 16.4111 45.0248C16.7095 42.6379 16.4111 40.6985 15.8144 39.3558C15.6652 39.3558 15.516 39.3558 15.3668 39.3558C14.7701 39.3558 14.6209 39.0575 14.4718 38.6099C14.3226 38.1624 14.1734 37.7149 13.5767 37.5657C13.875 37.4165 14.0242 37.4165 14.3226 37.4165C14.4718 37.4165 14.6209 37.4165 14.7701 37.5657L14.9193 37.7148V37.5657C14.7701 37.1181 14.6209 36.5214 14.6209 36.0739C14.9193 36.3722 15.2176 36.8198 15.516 37.5657H15.6652C15.6652 36.6706 15.9636 36.3722 16.5603 36.223C16.1128 36.8197 16.4111 37.4165 16.5603 37.864C16.7095 38.3116 16.8587 38.6099 16.4111 38.9083H16.2619V39.0575C17.3062 40.6985 17.6046 42.6378 17.3062 45.3231C17.157 46.5166 17.0079 47.4117 16.7095 48.456C16.262 50.2462 15.8144 51.8872 16.1127 54.4233C16.4111 55.9151 17.0078 56.661 17.7537 56.661C18.2013 56.661 18.6488 56.5118 19.2456 56.0643C18.798 57.1085 18.798 58.1528 18.798 59.0479C18.798 60.9873 18.6489 62.9267 15.9636 65.7611C16.5603 68.2972 16.5603 70.5349 15.9636 72.1759Z" fill="#1A1F35"/>
<path fill-rule="evenodd" clip-rule="evenodd" d="M13.1289 51.1418C13.4273 51.2909 13.7256 51.2909 14.024 51.2909C14.3224 51.2909 14.4715 51.1418 14.6207 50.9926C14.9191 50.5451 14.6207 49.5008 13.8748 47.8598C14.3224 48.009 14.6207 48.1581 14.9191 48.1581C15.2175 48.1581 15.3666 48.009 15.3666 47.8598C15.665 47.4122 15.3666 46.5171 14.6207 45.0253C14.9191 45.1745 15.2175 45.3237 15.3666 45.3237C15.5158 45.3237 15.665 45.3236 15.665 45.1745C15.9634 44.7269 15.665 43.6827 14.7699 41.7433L15.8142 42.34C16.1126 45.0253 15.8142 47.8598 14.9191 50.6942C14.6207 52.0369 14.4715 53.5287 14.6207 55.0205L13.1289 51.1418Z" fill="#1A1F35"/>
<path fill-rule="evenodd" clip-rule="evenodd" d="M17.157 55.1692C16.2619 53.5282 16.7095 50.9921 17.3062 48.456C17.7538 46.6659 18.0521 44.7265 18.0521 42.9363L18.4997 43.0855L18.2013 44.5773L18.6488 45.0249C18.2013 45.4724 18.0521 46.0691 18.0521 46.6658C18.0521 46.9642 17.9029 47.2626 17.9029 47.5609V47.7101L18.3505 47.8593C17.7537 48.4561 17.3062 49.6495 17.157 51.2905V51.4397L17.9029 51.2905C17.0078 52.1856 16.8587 53.5282 17.157 55.1692Z" fill="#1A1F35"/>
<path fill-rule="evenodd" clip-rule="evenodd" d="M31.329 58.1531C31.0306 58.1531 30.7322 58.0039 30.4339 57.7056C30.2847 57.4072 30.2847 56.9596 30.2847 56.5121C30.8814 56.9596 31.1798 57.4072 31.329 58.1531Z" fill="#1A1F35"/>
<path fill-rule="evenodd" clip-rule="evenodd" d="M31.3291 57.258L31.0308 56.9596L31.6275 56.6613L31.9259 56.9596L31.3291 57.258Z" fill="#1A1F35"/>
<path fill-rule="evenodd" clip-rule="evenodd" d="M35.6558 55.0204C35.5066 55.0204 35.3574 55.0204 35.3574 54.8712C35.3574 54.7221 35.3574 54.4237 35.6558 54.4237C35.6558 54.4237 35.805 54.4237 35.9541 54.4237C36.1033 54.4237 36.2525 54.4237 36.2525 54.5729C36.2525 54.7221 36.2525 54.7221 36.2525 54.7221C36.2525 54.8713 36.1033 55.0204 35.9541 55.0204C35.805 54.8712 35.8049 55.0204 35.6558 55.0204Z" fill="#1A1F35"/>
<path fill-rule="evenodd" clip-rule="evenodd" d="M36.4013 57.5562C35.0587 56.3628 34.3128 54.8709 34.1636 52.7824V52.6332H34.3128H34.462C34.7603 53.0807 35.2078 53.5283 35.5062 53.9759C35.2078 54.2742 35.0587 54.5725 35.2079 54.8709C35.3571 55.0201 35.6554 55.1693 35.8046 55.1693C35.9538 55.1693 35.9538 55.1693 36.103 55.1693C36.4013 55.9152 36.5505 56.5119 36.8489 57.2578L36.4013 57.5562Z" fill="#1A1F35"/>
<path fill-rule="evenodd" clip-rule="evenodd" d="M29.3901 38.6101C29.5393 38.0134 29.9869 37.715 30.7328 37.715C31.0311 37.715 31.4787 37.715 32.0754 37.8642C32.3738 37.8642 32.5229 38.0134 32.8213 38.0134C33.5672 38.0134 34.3131 37.5659 34.7607 36.8199C34.3131 37.8642 33.7164 38.3118 32.8213 38.3118C32.6721 38.3118 32.3738 38.3118 32.2246 38.3118C31.777 38.1626 31.3295 38.0134 30.882 38.0134C30.2852 38.1626 29.8377 38.3117 29.3901 38.6101Z" fill="#1A1F35"/>
<path fill-rule="evenodd" clip-rule="evenodd" d="M22.3781 75.1598C22.3781 75.1598 22.2289 75.1598 22.0798 75.1598C22.2289 74.8614 22.2289 74.5631 22.0798 74.2647H21.9306C22.0798 74.7122 21.9306 75.0106 21.7814 75.1598C20.7372 75.1598 19.9912 75.1598 19.3945 75.1598C18.0519 75.1598 17.1568 75.0106 16.56 74.8615C15.9633 74.7123 15.6649 74.4139 15.5158 74.2647C15.3666 73.9663 15.665 73.5188 15.9633 73.0713C16.8584 71.7286 17.0076 68.2974 16.2617 65.6121C19.0961 63.076 19.0961 61.5842 19.2453 59.6448C19.2453 58.6006 19.2453 57.4071 19.6929 55.7661C21.3339 52.1857 21.6323 49.2021 20.4388 46.5168L20.5879 46.666L20.7371 46.8152L20.8863 46.9644L21.0355 47.1135L21.1847 47.2627L21.3339 47.4119L21.483 47.5611L21.6322 47.7103L21.9306 47.8595L22.0798 48.0086L22.6765 48.4562L22.8257 48.6054L23.1241 48.7546L23.4224 49.0529L23.5716 48.1578L23.7208 48.307L24.0192 48.4562V48.6054V48.9037V49.0529V49.2021V49.3513V49.5005V49.6496V49.7988V49.948V50.0972V50.2464V50.3955V50.5447V50.6939V50.8431V50.9923V51.2906V51.4398V51.589V51.7382L24.1684 52.3349V53.0808L24.6159 52.6333L24.9143 52.4841H25.0634H25.2126H25.3618L25.511 52.6333V52.7825L25.6602 52.9316V53.0808V53.23V53.5284V53.8267V54.1251V54.2743V54.4235V55.0202L25.9585 54.5727L26.1077 54.4235L26.2569 54.2743L26.4061 54.1251L26.5552 53.9759L26.7044 53.8267H26.8536H27.0028H27.152L27.3011 53.9759V54.1251L27.4503 54.5727V54.7219V54.871V55.1694V55.3186V55.9153L27.8979 55.4678L28.0471 55.3186L28.1962 55.1694L28.3454 55.0202H28.4946H28.6438H28.793H28.9422C27.4503 56.0645 26.7044 58.6006 26.5552 60.0924C26.7044 63.076 25.511 65.0154 23.1241 66.3581C20.8863 68.2974 19.842 70.8335 20.1404 73.668L22.6765 73.8172C22.9749 73.8172 23.2733 73.9664 23.4224 74.1156C23.7208 74.4139 23.87 75.0106 23.87 75.7565C23.7208 75.7565 23.5716 75.7565 23.4224 75.7565H23.2733C23.2733 75.4582 23.2732 75.309 23.1241 75.0106L22.9749 75.1598C22.9749 75.4582 23.1241 75.6073 22.9749 75.7565C22.8257 75.0106 22.6765 75.1598 22.3781 75.1598ZM32.8209 57.2579C32.075 57.1087 31.6275 56.2137 31.6275 54.5727H31.7766L31.9258 54.4235H31.6275H31.4783L31.3291 54.2743L30.7324 53.9759L30.434 53.8267L29.8373 53.3792L29.5389 53.23L29.2405 53.0808L28.3454 52.3349L27.7487 51.8874L27.4503 51.589L27.0028 51.1414L26.5552 50.6939L26.1077 50.2464L25.6602 49.7988L25.511 49.6496L25.2126 49.2021L24.9143 48.7546L24.7651 48.6054L24.6159 48.4562V48.307H24.7651L25.0634 48.4562H25.2126H25.3618H25.6602H25.8093H25.9585L26.7044 48.6054H26.8536H27.0028L27.8979 48.7546H28.3454L28.0471 47.8595H28.3454H28.6438H28.9422H29.2405C29.9865 49.5005 31.0307 51.1415 32.2242 52.9316L34.1635 54.1251C34.1635 55.0202 34.6111 55.7661 35.2078 56.512L32.8209 57.2579ZM30.1356 55.7661C29.9865 55.1694 29.6881 54.4235 29.2405 53.9759L29.0914 53.8267H28.9422H28.793H28.6438H28.4946H28.3454H28.1962L28.0471 53.9759L27.8979 54.1251L27.7487 54.2743V54.1251V53.9759V53.6776V53.3792V53.0808V52.9316L27.5995 52.7825L27.4503 52.6333H27.3011H27.152H27.0028H26.8536L26.7044 52.7825L26.5552 52.9316L26.4061 53.0808L26.2569 53.23V53.0808V52.9316V52.6333V52.3349V52.0365V51.8874L26.1077 51.7382L25.9585 51.589L25.8093 51.4398L25.6602 51.2906H25.511H25.3618H25.2126L25.0634 51.4398L24.9143 51.589V51.4398V51.1414V50.9923V50.8431V50.5447V50.3955V50.2464V50.0972L24.7651 49.6496V49.5005V49.3513V49.2021V49.0529V48.9037V48.6054V48.4562V48.1578V48.307V48.4562L24.9143 48.6054L25.0634 48.7546L25.2126 48.9037L25.511 49.3513L25.6602 49.5005L25.8093 49.7988L25.9585 50.0972L26.5552 50.8431L27.0028 51.2906L27.7487 52.0365L28.0471 52.3349L28.3454 52.6333L29.2405 53.3792L29.8373 53.8267L30.434 54.2743L31.0307 54.5727L31.3291 54.7219C30.5832 54.7219 30.2848 55.1694 30.1356 55.7661ZM27.152 48.4562H27.0028H26.8536L25.9585 48.307H25.8093L25.2126 48.1578H25.0634L24.4667 48.0086H24.3175H24.1684H24.0192L23.7208 47.8595L23.4224 47.7103L23.1241 47.5611L22.9749 48.4562L22.5273 48.1578L22.3781 48.0086L22.0798 47.8595L21.9306 47.7103L21.7814 47.5611L21.483 47.2627L21.3339 47.1135L21.1847 46.9644L21.0355 46.8152L20.8863 46.666L20.5879 46.2184V46.0693L20.4388 45.9201L20.2896 45.7709L20.1404 45.6217L19.9912 45.4725L19.842 45.3233V45.1741L19.6929 45.025V44.8758V44.7266V44.5774L19.5437 44.7266L19.2453 45.1741C18.4994 43.5331 18.0519 42.0413 18.0519 40.2512V40.102H17.306C17.306 38.9085 17.306 37.4167 18.0519 36.3724V36.2232L17.306 36.0741C17.9027 34.5822 18.6486 33.5379 19.5437 33.2396H19.6929L18.947 32.6428C19.9912 31.4494 21.4831 30.8527 23.1241 30.8527C23.2732 30.8527 23.5716 30.8527 23.7208 30.8527C24.1683 30.1068 24.4667 29.51 25.0634 29.2117C25.0634 29.2117 25.0634 29.3609 25.2126 29.3609H24.9143C24.6159 30.4051 24.6159 31.3002 24.6159 32.4937H24.7651C24.9143 31.5986 25.0634 30.5543 25.2126 29.3609V29.2117C25.511 29.8084 25.6601 30.2559 25.8093 31.0018C27.7487 31.0018 28.3454 31.8969 29.0914 32.792C29.6881 33.6871 30.434 34.5822 32.2242 34.8806C32.8209 35.1789 32.9701 35.9249 32.9701 36.5216C32.9701 36.82 32.8209 37.1183 32.5225 37.1183C31.4783 36.8199 30.5832 36.5216 29.6881 36.5216C28.4946 36.5216 27.7487 36.9691 27.4503 37.8642C28.1962 38.461 29.0914 38.7593 29.9865 38.7593C30.5832 38.7593 31.3291 38.6101 32.075 38.4609C32.075 39.0577 31.9258 39.5053 31.6275 39.8036C31.1799 40.2512 30.5832 40.4003 29.6881 40.4003C29.2405 40.4003 28.6438 40.4003 28.1962 40.2512C27.7487 40.102 27.4504 39.9528 27.0028 39.9528C26.5553 39.9528 26.1077 40.2512 25.9585 40.5495C25.8093 40.8479 25.9585 41.2954 26.2569 41.8922C25.2126 41.2954 24.6159 40.6987 24.4667 39.9528C24.1683 39.0577 24.3175 38.0134 25.0634 36.82C23.87 35.4773 23.4224 34.1347 23.4224 32.1953C23.4224 32.1953 23.4224 32.1953 23.4224 32.3445C23.5716 32.6429 23.87 32.792 24.4667 32.9412C25.2126 32.4937 25.6602 32.0461 25.6602 31.4494H25.511C25.2126 32.0461 24.9142 32.4937 24.4667 32.6428C24.1683 32.6428 23.87 32.4937 23.7208 32.3445C23.5716 32.0461 23.4224 31.7478 23.5716 31.151H23.4224C23.2733 31.5986 23.2733 31.897 23.4224 32.1953H23.2733C23.1241 33.538 23.1241 35.1789 24.6159 37.1183C23.87 38.461 23.5716 39.6544 24.0192 40.6987C24.3175 41.5938 25.2126 42.1905 26.4061 42.6381C26.5553 42.7873 26.5552 42.7872 26.7044 42.9364C26.8536 42.9364 27.152 42.9364 27.3011 43.0856H27.0028H26.4061H25.9585H25.8093L25.3618 42.9364H25.2126H25.0634H24.9143L24.6159 42.7873H24.4667L24.3175 42.6381L24.1684 42.3397L24.0192 42.1905L23.87 41.8922L23.7208 41.743L23.5716 41.4446L23.2733 41.1463L22.9749 42.0414V41.8922V41.743V41.5938L22.8257 41.2954V41.1463V40.9971V40.8479V40.6987V40.5495V40.4003V40.2512V40.102V39.9528V39.8036V39.5052V39.2069V39.0577L23.1241 38.6101L22.0798 39.0577V38.7593V38.6101V38.4609V38.3118V38.1626V38.0134L22.3781 37.5659L22.6765 37.1183V36.9691L22.9749 36.6708L22.3781 36.5216V36.3724V36.2232L22.5273 36.0741L22.6765 35.9249L22.8257 35.7757L22.9749 35.6265L23.1241 35.4773V35.3282L22.9749 35.179V35.3282V35.4773H22.8257L22.6765 35.6265L22.5273 35.7757L22.3781 35.9249L22.229 36.2232L21.9306 36.6708L22.3781 36.82L22.229 36.9691L22.0798 37.2675L21.9306 37.5659L21.7814 37.8642V38.0134V38.1626V38.3118V38.4609V38.6101V38.7593V38.9085V39.0577L21.9306 39.356L22.6765 39.0577V39.5052V39.6544V40.102V40.2512V40.4003V40.5495V40.8479V41.1463L22.8257 41.4446L22.9749 41.743V41.8922V42.0414L23.2733 42.3397L23.5716 41.4446L23.7208 41.5938L23.87 41.8922L24.0192 42.0414L24.1684 42.1905L24.4667 42.4889L24.6159 42.6381L24.9143 42.7873H25.0634H25.2126H25.3618L25.6602 42.9364H26.1077H26.5552H27.152H27.7487H28.1962V42.7873C28.4946 42.7873 28.793 42.9364 29.0914 42.9364C29.5389 43.0856 29.9864 43.0856 30.5832 43.2348L30.2848 43.384L29.8373 43.5332H29.6881L29.3897 43.6823L28.9422 43.8315H28.793H28.6438H28.4946H28.3454H28.1962H27.7487L28.3454 44.5774H28.1962H28.0471H27.8979H27.7487H27.5995H27.4503H27.3011H27.152L26.8536 44.4282L26.5552 44.2791L26.2569 44.1299L26.1077 43.9807L25.8093 43.8315L25.3618 43.5332L25.8093 45.3233H25.6602H25.511H25.3618H25.2126L24.9143 45.1741L24.6159 45.025L24.3175 44.8758L24.0192 44.7266L23.87 44.5774L23.7208 44.4282L23.5716 44.2791L23.4224 44.1299L22.9749 43.8315L22.5273 43.384L22.229 43.0856L21.9306 42.7873L21.483 43.8315L21.3339 43.6823L21.0355 43.2348V43.0856V42.9364L20.8863 42.6381V42.4889L20.7371 42.1905V42.0414L20.5879 41.743L20.4388 41.1463V40.9971V40.8479V40.6987V40.4003L20.7371 39.9528L20.5879 39.8036L19.3945 40.8479V40.5495V40.4003V40.2512V40.102V39.9528V39.8036V39.5052V39.2069V39.0577V38.9085V38.7593V38.6101V38.4609L19.5437 38.0134L19.842 37.5659L20.2896 36.82L19.2453 37.2675V37.1183V36.82L19.3945 36.5216L19.5437 36.2232L19.842 35.9249L19.9912 35.7757L20.1404 35.6265L20.2896 35.4773L20.4388 35.3282L20.5879 35.179L20.7371 35.0298L21.0355 34.8806H21.1847L21.3339 34.7314L21.6322 34.5822H21.9306L21.6322 34.2839L21.1847 34.5822L21.0355 34.7314L20.5879 35.0298L20.4388 35.179L19.9912 35.6265L19.842 35.7757L19.6929 35.9249L19.5437 36.0741L19.3945 36.2232L19.2453 36.5216L19.0961 36.9691V37.1183V37.2675V37.4167V37.5659V38.0134L19.6929 37.715L19.5437 38.0134L19.3945 38.3118V38.4609L19.2453 38.7593V38.9085V39.0577V39.2069V39.6544V39.9528V40.4003V40.5495V40.6987V40.8479V40.9971V41.1463V41.4446V41.5938L19.3945 41.8922L20.2896 41.1463V41.2954V41.4446V41.5938V41.743V41.8922V42.0414V42.1905L20.4388 42.6381L20.5879 43.0856L20.7371 43.5332L20.8863 43.8315L21.0355 44.1299L21.1847 44.4282L21.3339 44.5774L21.6322 44.8758L22.0798 43.6823L22.5273 44.1299L22.6765 44.2791L22.8257 44.4282L22.9749 44.5774L23.1241 44.7266L23.2733 44.8758L23.5716 45.025L23.87 45.1741H24.0192L24.3175 45.3233L24.7651 45.4725L25.0634 45.6217L25.511 45.7709L25.8093 45.9201H25.9585L26.4061 46.0693L26.1077 44.5774L26.2569 44.7266L26.5552 44.8758H26.7044L27.0028 45.025L27.3011 45.1741H27.4503L27.7487 45.3233L28.1962 45.4725H28.4946H28.6438H28.793H29.0914L28.4946 44.8758H28.6438H28.793H29.0914H29.2405L29.8373 44.7266L30.1356 44.5774H30.2848L30.434 44.4282H30.5832L31.0307 44.2791L31.1799 44.1299C31.9258 44.2791 32.5225 44.2791 33.2684 44.2791C33.8652 44.2791 34.3127 44.2791 35.0586 44.2791C34.1636 45.7709 32.8209 46.666 30.8816 46.9644H30.7324L31.9258 47.7103C30.8815 48.0086 29.9864 48.0086 29.0914 48.0086C28.9422 48.0086 28.793 48.0086 28.4946 48.0086H28.3454H28.1962H27.8979H27.5995H27.4503H27.3011H27.152L26.7044 47.8595L27.152 48.9037V48.4562ZM25.6602 35.9249H25.3618L25.511 36.0741C26.1077 36.5216 26.2569 37.1183 25.6602 38.1626L25.8093 38.3118C26.7044 37.1183 28.0471 36.6708 29.5389 36.6708C29.9864 36.6708 30.5832 36.6708 31.0307 36.82V36.6708C30.1356 36.3724 29.3897 36.2232 28.793 36.2232C27.7487 36.2232 27.0028 36.5216 26.4061 37.2675C26.4061 36.82 26.4061 36.5216 26.2569 36.3724C26.1077 36.2232 25.9585 36.0741 25.6602 36.0741C25.8094 35.9249 25.8094 35.9249 25.6602 35.9249ZM27.3011 32.6428C27.152 32.6428 27.0028 32.6428 27.0028 32.6428H26.8536V32.792C26.8536 33.5379 27.5995 33.6871 28.1962 33.8363C28.4946 33.8363 28.793 33.9855 28.9422 34.1347L29.0914 33.9855C28.793 33.0904 28.1962 32.6428 27.3011 32.6428Z" fill="#1A1F35"/>
<path fill-rule="evenodd" clip-rule="evenodd" d="M36.2523 55.0201C36.5506 54.7218 36.5506 54.5726 36.5506 54.2742C36.4015 53.9759 36.2523 53.8267 35.8047 53.8267L35.5063 53.3791L41.0261 50.2463L42.3687 51.589L36.5506 55.4677L36.2523 55.0201ZM36.4015 53.9759L36.6998 54.2742L41.4736 51.2906L41.1753 50.9922L36.4015 53.9759Z" fill="#1A1F35"/>
<path fill-rule="evenodd" clip-rule="evenodd" d="M36.8489 52.1855C35.9538 49.2018 36.4014 46.3673 38.3407 44.428L40.4293 45.9198C39.2358 47.2624 38.7882 48.9035 39.2358 50.8428L36.8489 52.1855Z" fill="#1A1F35"/>
<path fill-rule="evenodd" clip-rule="evenodd" d="M45.9489 58.4514C45.7997 58.4514 45.6505 58.4514 45.5013 58.4514C42.2193 58.0038 39.9816 56.8103 38.4897 54.871L40.8767 53.23C42.0701 54.5726 43.7112 55.3185 45.7997 55.7661C46.5456 55.7661 46.844 55.6169 47.1423 55.3185C47.2915 55.0202 47.2915 54.7218 46.9932 54.2743C46.844 52.9316 47.7391 52.3349 48.485 51.8873C48.7833 51.8873 49.0817 52.0365 49.2309 52.3349C49.9768 53.23 49.6784 55.3185 49.6784 56.0645C48.7833 57.5563 47.5899 58.4514 45.9489 58.4514Z" fill="#1A1F35"/>
<path fill-rule="evenodd" clip-rule="evenodd" d="M45.9493 55.3187C45.8001 55.3187 45.8001 55.3187 45.6509 55.3187C44.0099 54.8711 43.264 54.2744 43.4132 53.0809C44.0099 51.1415 45.5017 50.5448 46.6952 50.2465C47.1427 50.0973 47.8886 49.9481 48.4854 49.6497C49.828 49.3513 51.0215 49.053 51.3198 48.4563C51.1706 47.8595 50.8723 47.8595 50.4247 47.8595H49.9772H49.828L53.11 45.771C53.8559 46.3677 54.4527 46.9644 54.6019 47.8595C54.751 49.2022 52.8117 49.9481 50.7231 50.5448C49.5296 50.9923 48.187 51.4399 47.2919 52.0366C46.6952 52.6334 46.3968 53.3793 46.546 54.1252C46.6952 54.5727 46.6952 54.8711 46.546 55.0203C46.3968 55.1695 46.2476 55.3187 45.9493 55.3187Z" fill="#1A1F35"/>
<path fill-rule="evenodd" clip-rule="evenodd" d="M43.5622 51.8876C42.3687 51.4401 41.6228 50.545 41.1753 49.5007C40.8769 48.4565 41.026 47.4122 41.4736 46.5171L44.0097 48.1581C43.8605 49.0532 44.1589 49.7991 44.9048 50.3958L43.5622 51.8876Z" fill="#1A1F35"/>
<path fill-rule="evenodd" clip-rule="evenodd" d="M46.6948 49.3512L49.0818 48.1577L50.126 48.7545C49.5293 48.9037 49.0818 49.0528 48.485 49.202C47.8883 49.3512 47.4407 49.5004 46.844 49.6495L46.6948 49.3512Z" fill="#1A1F35"/>
<path fill-rule="evenodd" clip-rule="evenodd" d="M45.2029 49.9479C44.457 49.6495 44.1586 49.0528 44.3078 48.1577L54.7506 41.892L58.3309 41.1461L56.3915 43.3839L45.2029 49.9479ZM44.6061 48.9036V49.202V49.3511L56.3915 42.3396L56.0932 42.0412L44.6061 48.9036Z" fill="#1A1F35"/>
<path fill-rule="evenodd" clip-rule="evenodd" d="M44.7559 44.7266C45.8001 44.4282 46.8444 44.2791 47.7395 44.2791C48.3362 44.2791 49.0821 44.279 49.6789 44.4282L46.9936 46.0692L44.7559 44.7266Z" fill="#1A1F35"/>
<path fill-rule="evenodd" clip-rule="evenodd" d="M38.3408 43.8314L36.103 40.6986L40.2801 42.0413L46.6949 46.3676L44.4572 47.8594L38.3408 43.8314ZM37.5949 42.0413L45.2031 47.1135V46.6659L37.8932 41.7429L37.5949 42.0413Z" fill="#1A1F35"/>
<path fill-rule="evenodd" clip-rule="evenodd" d="M41.0264 42.0415C42.8166 40.8481 45.0543 40.2513 47.5904 40.2513C49.8281 40.2513 52.0659 40.8481 54.0052 41.7432L51.6183 43.235C50.2757 42.7874 48.933 42.6383 47.7396 42.6383C46.2477 42.6383 44.7559 42.9366 43.2641 43.5334L41.0264 42.0415Z" fill="#1A1F35"/>
<path fill-rule="evenodd" clip-rule="evenodd" d="M48.7837 57.7058C49.828 56.8107 50.2755 55.7664 50.2755 54.573C51.0214 54.4238 51.9165 54.1254 52.6624 53.6779L55.646 55.6172C53.5575 56.9598 51.3198 57.7058 48.7837 57.7058Z" fill="#1A1F35"/>
<path fill-rule="evenodd" clip-rule="evenodd" d="M58.3314 73.2205C58.1823 73.2205 58.0331 73.0713 57.8839 72.9221C57.7347 73.0713 57.5855 73.0713 57.4363 73.0713C56.9888 73.0713 56.8396 72.6238 56.6904 72.3254C56.6904 72.1762 56.6904 71.5795 57.4363 71.4303C59.0773 71.2811 59.9724 70.9828 60.1216 70.0877C60.5692 68.2975 60.5692 66.2089 60.42 64.4188C60.42 63.5237 60.42 62.4793 60.42 61.5843C61.0167 59.9432 62.5085 58.3023 64.8955 56.6613C65.343 57.4072 65.4922 58.4514 65.6414 59.4957C65.7906 60.6892 65.9397 61.7335 66.3873 62.6285C65.0446 63.2253 64.7463 64.4187 65.0446 66.0597C63.4036 66.9548 62.8069 68.8942 63.1053 71.4303C63.4036 71.8778 63.5528 72.3254 63.4036 72.4746C63.2545 72.773 62.9561 72.9221 62.5085 72.9221H58.4806C58.4806 73.2205 58.3314 73.2205 58.3314 73.2205Z" fill="#1A1F35"/>
<path fill-rule="evenodd" clip-rule="evenodd" d="M63.4034 70.8335C63.2542 68.7449 63.8509 67.2531 65.0444 66.5072C64.8952 67.1039 64.8952 67.7007 65.0444 68.1482C64.8952 68.1482 64.746 67.999 64.746 67.999C64.5968 67.999 64.4477 67.999 64.4477 68.1482C64.2985 68.4466 64.2985 68.8941 64.4477 69.64C64.2985 69.4909 64.1493 69.4908 64.1493 69.4908C64.1493 69.4908 64.0001 69.4909 64.0001 69.64C63.8509 69.7892 63.8509 69.9384 64.0001 70.6843C63.8509 70.6843 63.8509 70.5351 63.8509 70.5351C63.5526 70.6843 63.5526 70.6843 63.4034 70.8335Z" fill="#1A1F35"/>
<path fill-rule="evenodd" clip-rule="evenodd" d="M59.6737 69.9386C59.5245 69.4911 59.3753 69.3419 59.077 69.3419C58.9278 69.3419 58.7786 69.3419 58.6294 69.4911C59.3753 68.596 59.5245 67.8501 59.3753 67.5517C59.2261 67.4025 59.077 67.2534 58.7786 67.2534C59.3753 66.5075 59.5245 65.9107 59.5245 65.6124C59.3753 65.4632 59.2261 65.314 58.9278 65.1648C59.5245 64.2697 59.6737 63.673 59.5245 63.3746C59.5245 63.2255 59.3753 63.0763 59.077 62.9271L59.9721 61.8828C59.9721 62.7779 59.9721 63.673 59.9721 64.7173C60.1213 66.6566 60.2704 68.8944 59.6737 69.9386Z" fill="#1A1F35"/>
<path fill-rule="evenodd" clip-rule="evenodd" d="M76.3824 71.8778C75.7857 70.2368 75.7857 67.999 76.3824 65.3138C73.5479 62.3301 73.5479 60.3908 73.3987 58.4514C73.3987 57.4071 73.3987 56.512 72.9512 55.4678C73.5479 55.9153 73.9954 56.0645 74.443 56.0645C75.1889 56.0645 75.7856 55.3186 76.084 53.8267C76.3824 51.4398 75.9348 49.6496 75.4873 47.8595C75.1889 46.8152 75.0398 45.7709 74.8906 44.7266C74.5922 42.0413 75.0397 39.9528 75.9348 38.4609V38.3118H75.7856C75.3381 38.1626 75.4873 37.8642 75.6365 37.2675C75.7857 36.82 76.084 36.2232 75.6365 35.6265C76.2332 35.6265 76.5315 36.074 76.5315 36.9691H76.6807C76.9791 36.3724 77.2775 35.7757 77.5758 35.4773C77.5758 35.9248 77.4266 36.3724 77.2774 36.9691C77.4266 36.8199 77.5759 36.82 77.8742 36.82C78.1726 36.82 78.3218 36.8199 78.6201 36.9691C78.0234 37.1183 77.8742 37.5659 77.725 38.0134C77.5758 38.461 77.4267 38.9085 76.8299 38.9085C76.6807 38.9085 76.5316 38.9085 76.3824 38.9085C75.6365 40.2512 75.4873 42.0413 75.6365 44.5774C75.4873 46.2184 75.9348 47.7103 76.2332 49.2021C76.6807 51.1415 77.1283 53.0808 76.5315 55.3186C76.2332 55.9153 75.6364 56.3628 75.0397 56.6612C74.443 57.1087 73.8463 57.4071 73.6971 58.0038C73.1004 60.0924 73.6971 61.5842 75.9348 62.6285C75.1889 62.6285 74.8906 62.7777 74.8906 63.076C74.8906 63.3744 75.0397 63.822 77.4266 65.1646C77.2775 65.1646 77.2774 65.1646 77.2774 65.1646C76.8299 65.1646 76.5316 65.3138 76.3824 65.6121C76.084 66.0597 76.5315 66.9548 77.4266 68.1483C77.1283 67.9991 76.9791 67.9991 76.8299 67.9991C76.6807 67.9991 76.5316 67.9991 76.3824 68.1483C76.2332 68.5958 76.5315 69.3417 77.4266 70.8335C77.2775 70.6843 76.9791 70.6843 76.8299 70.6843C76.6807 70.6843 76.5316 70.6843 76.3824 70.8335C76.3824 71.2811 76.3824 71.4303 76.3824 71.8778Z" fill="#1A1F35"/>
<path fill-rule="evenodd" clip-rule="evenodd" d="M77.4264 54.8713C77.5756 53.3795 77.4264 51.8877 77.1281 50.545C76.233 47.7106 75.9346 44.8761 76.233 42.1908L77.2772 41.7433C76.3821 43.6827 76.233 44.7269 76.3822 45.1745C76.5314 45.3236 76.5313 45.3237 76.6805 45.3237C76.8297 45.3237 77.1281 45.1745 77.4264 45.0253C76.6805 46.5171 76.3821 47.4122 76.6805 47.8598C76.8297 48.009 76.9789 48.1581 77.1281 48.1581C77.4264 48.1581 77.7248 48.009 78.1723 47.8598C77.4264 49.5008 77.1281 50.5451 77.4264 50.9926C77.5756 51.1418 77.7248 51.2909 78.0231 51.2909C78.3215 51.2909 78.6199 51.2909 78.9182 51.1418L77.4264 54.8713Z" fill="#1A1F35"/>
<path fill-rule="evenodd" clip-rule="evenodd" d="M75.1886 55.0202C75.4869 53.23 75.3378 51.8874 74.741 50.8431L75.4869 50.9923V50.8431C75.3378 49.2021 74.8902 48.1578 74.2935 47.4119H74.741V47.2627C74.5918 46.9644 74.5918 46.666 74.5918 46.3676C74.4427 45.7709 74.4427 45.1742 73.9951 44.7266L74.4426 44.2791L74.2935 42.6381L74.741 42.4889C74.741 44.2791 75.0394 46.2185 75.4869 48.0087C75.6361 50.8431 76.0837 53.23 75.1886 55.0202Z" fill="#1A1F35"/>
<path fill-rule="evenodd" clip-rule="evenodd" d="M61.0166 57.8547C61.1658 57.1088 61.4642 56.6613 62.0609 56.3629C62.0609 56.6613 62.2101 57.1089 61.9117 57.5564C61.7625 57.7056 61.4641 57.8547 61.0166 57.8547Z" fill="#1A1F35"/>
<path fill-rule="evenodd" clip-rule="evenodd" d="M60.4199 56.6613L60.7183 56.3629L61.315 56.6613L61.0166 57.1088L60.4199 56.6613Z" fill="#1A1F35"/>
<path fill-rule="evenodd" clip-rule="evenodd" d="M56.6902 55.0204H56.541C56.2426 54.8712 56.2427 54.7221 56.2427 54.5729C56.2427 54.4237 56.3918 54.4237 56.541 54.4237C56.6902 54.4237 56.6902 54.4237 56.8394 54.4237C56.9886 54.4237 57.1377 54.5729 57.1377 54.7221V54.8712C56.9886 54.8712 56.8394 55.0204 56.6902 55.0204Z" fill="#1A1F35"/>
<path fill-rule="evenodd" clip-rule="evenodd" d="M55.646 57.4073C55.7952 56.6613 56.0935 55.9154 56.3919 55.3187C56.5411 55.3187 56.5411 55.3187 56.6903 55.3187C56.9887 55.3187 57.1378 55.1695 57.287 55.0203C57.4362 54.5728 57.287 54.2744 56.9887 54.1252C57.287 53.6777 57.5854 53.081 58.0329 52.7826H58.1821H58.3313V52.9318C58.1821 54.8712 57.287 56.5122 56.0936 57.7056L55.646 57.4073Z" fill="#1A1F35"/>
<path fill-rule="evenodd" clip-rule="evenodd" d="M62.956 38.3115C62.5085 38.0132 62.0609 37.864 61.4642 37.864C61.0167 37.864 60.5691 38.0132 60.1215 38.1624C59.9723 38.1624 59.674 38.1624 59.5248 38.1624C58.6297 38.1624 57.8838 37.5656 57.5854 36.6705C58.1822 37.4164 58.7789 37.864 59.5248 37.864C59.8232 37.864 59.9723 37.864 60.2707 37.7148C60.7183 37.5656 61.1658 37.5656 61.6133 37.5656C62.3593 37.5656 62.8068 37.7148 62.956 38.3115Z" fill="#1A1F35"/>
<path fill-rule="evenodd" clip-rule="evenodd" d="M69.9676 74.8615C69.8185 74.8615 69.5201 74.8615 69.3709 74.7123C69.3709 74.5631 69.3709 74.4139 69.3709 74.1156H69.2217C69.0726 74.2647 69.0725 74.5631 69.0725 74.8615H68.9234C68.7742 74.8615 68.625 74.8615 68.4758 74.7123C68.4758 73.9664 68.625 73.3696 68.9234 73.0713C69.0726 72.9221 69.3709 72.7729 69.6693 72.7729L72.2054 72.6237C72.5037 69.7893 71.4595 67.2531 69.2217 65.3138C66.6856 63.9711 65.6414 62.0318 65.7906 59.0481C65.4922 57.2579 64.7463 55.0202 63.4036 53.9759H63.5528H63.702H63.8512L64.1495 54.1251L64.2987 54.2743L64.7463 54.7219V53.9759V53.6776V53.3792V53.23V53.0808L64.8955 52.7825V52.6333L65.0446 52.4841H65.1938H65.343L65.4922 52.6333L65.6414 52.7825L65.7906 52.9316L65.9398 53.0808V53.23L66.3873 53.6776V52.9316V52.7825V52.6333V52.3349V52.1857V52.0365L66.5365 51.7382V51.589V51.4398L66.6857 51.2906L66.8348 51.1414H66.984H67.1332H67.2824L67.4316 51.2906L67.8791 51.7382V51.1414V50.9923V50.8431V50.5447V50.3955V50.2464V50.0972V49.7988V49.6496V49.5005V49.3513V49.2021V49.0529V48.9037V48.7546V48.6054V48.307V48.1578V48.0086V47.8595V47.7103V47.5611V47.4119V47.2627V47.1135H68.0283L68.3266 46.9644L68.4758 47.8595L68.7742 47.5611L68.9234 47.4119L69.3709 47.1135L70.1168 46.5168L70.5644 46.0693L70.7136 45.9201L70.8627 45.7709L71.0119 45.6217L71.1611 45.4725L71.3103 45.3233C70.266 48.0086 70.4152 50.9923 72.0562 54.5727C72.5037 56.2137 72.5038 57.4071 72.5038 58.4514C72.5038 60.54 72.6529 61.8826 75.4874 64.5678C74.7415 67.2531 74.8907 70.6844 75.7857 71.8778C76.2333 72.3254 76.3825 72.7729 76.2333 73.0713C76.0841 73.3696 75.7858 73.5188 75.189 73.668C74.5923 73.9663 73.6972 73.9664 72.3546 73.9664C71.6087 73.9664 70.8627 73.9664 69.8185 73.8172C69.6693 73.668 69.6693 73.3696 69.8185 73.0713H69.6693C69.5201 73.3696 69.5201 73.668 69.6693 73.9664C70.1169 74.8615 69.9676 74.8615 69.9676 74.8615ZM57.2871 56.512C57.8839 55.7661 58.3314 55.0202 58.3314 53.9759L60.1216 52.9316C61.4642 51.2906 62.5085 49.5005 63.2544 47.8595H63.4036H63.5528H64.0004H64.2987H64.5971L64.2987 48.7546L65.1938 48.6054H65.4922L65.9398 48.4562L66.5365 48.307H66.6857L66.984 48.1578H67.1332L67.4316 48.0086H67.5807H67.7299H67.8791V48.1578L67.7299 48.4562L67.2824 49.0529L66.984 49.5005L66.8348 49.7988L66.6857 49.948L66.0889 50.6939L65.343 51.4398L64.7463 51.8874L64.1495 52.3349L63.5528 52.7825L63.2544 52.9316L62.3593 53.5284L61.7626 53.8267L61.4643 53.9759L61.1659 54.1251H61.0167V54.2743H60.8675L61.1659 54.4235C61.0167 55.9153 60.7184 56.8104 59.8233 56.9596L57.2871 56.512ZM62.2102 55.4678C62.061 54.871 61.7626 54.4235 61.3151 54.1251L61.6134 53.9759L61.9118 53.8267L62.5085 53.3792L63.1053 52.9316L63.4036 52.7825L63.702 52.4841L64.0004 52.3349L64.8955 51.589L65.1938 51.2906L65.4922 50.9923L65.7906 50.6939L66.0889 50.3955L66.5365 49.948L66.984 49.5005L67.5807 48.9037L67.7299 48.7546L68.0283 48.307L68.1775 48.1578L68.3266 48.0086L68.4758 47.7103V47.8595V48.0086V48.307V48.6054V48.7546V48.9037V49.0529V49.2021V49.3513V49.6496V49.7988V49.948L68.3266 50.3955V50.5447V50.6939V50.8431V50.9923V51.1414L68.1775 50.9923L68.0283 50.8431H67.8791H67.7299H67.5807H67.4316L67.2824 50.9923L67.1332 51.1414L66.984 51.2906L66.8348 51.589V51.8874V52.0365V52.1857V52.3349V52.6333V52.7825L66.6857 52.6333L66.5365 52.4841H66.3873L66.2381 52.3349H66.0889H65.9398H65.7906L65.6414 52.4841L65.4922 52.6333L65.343 52.7825V52.9316L65.1938 53.23V53.3792V53.5284V53.6776V53.8267V54.1251L65.0446 53.9759L64.8955 53.8267H64.7463H64.5971H64.4479H64.2987H64.1495H64.0004H63.8512C62.6577 54.1251 62.3594 54.871 62.2102 55.4678ZM64.8955 47.2627L64.4479 47.4119L64.1495 47.5611H63.8512H63.5528H63.4036H63.2544C63.1053 47.5611 62.9561 47.5611 62.6577 47.5611C61.7626 47.5611 60.8675 47.4119 59.8233 47.2627L61.0167 46.5168H60.8675C59.0773 46.2185 57.5855 45.1742 56.6904 43.8315C57.2872 43.8315 57.8839 43.9807 58.3314 43.9807C59.0774 43.9807 59.8233 43.9807 60.42 43.8315L60.5692 43.9807L60.8675 44.1299L61.0167 44.2791L61.1659 44.4282L61.3151 44.5774L61.7626 44.7266H61.9118H62.061H62.2102H62.3593H62.5085H62.6577H62.8069L62.2102 45.3233L62.6577 45.4725H62.9561H63.1053H63.2544H63.4036H63.5528H63.702H63.8512L64.0004 45.3233H64.1495H64.2987H64.4479L64.5971 45.1741H64.7463L64.8955 45.025L65.0446 44.8758L65.343 44.7266L65.0446 46.2184L65.4922 46.0693H65.6414L66.0889 45.9201L66.6857 45.6217H66.8348L67.1332 45.4725L67.5807 45.1741L67.8791 45.025L68.3266 44.7266L68.7742 44.4282L68.9234 44.2791L69.2217 43.9807L69.6693 45.1741L69.9676 44.8758L70.1168 44.7266L70.266 44.5774L70.5644 44.1299L70.7136 43.8315V43.6823V43.5332V43.384V43.2348L70.8627 42.9364L71.0119 42.6381V42.4889V42.1905V42.0414V41.8922V41.5938V41.4446V41.2954L71.907 42.0414L72.0562 41.743V41.4446V41.2954V41.1463V40.8479V40.6987V40.5495V40.4003V40.102V39.6544V39.5052V39.356L71.907 39.0577V38.9085V38.7593V38.6101L71.7579 38.3118V38.1626L71.6087 38.0134L72.2054 38.3118V38.0134V37.715V37.5659V37.4167L72.0562 37.1183V36.9691V36.82L71.907 36.6708V36.5216L71.7579 36.3724V36.2232L71.6087 35.7757L71.4595 35.6265L71.1611 35.4773L71.0119 35.3282L70.5644 35.0298L70.4152 34.8806L70.266 34.7314L69.9676 34.5822H69.8185L69.5201 34.8806L69.8185 35.0298L70.1168 35.179L70.5644 35.4773L70.7136 35.6265L70.8627 35.7757L71.0119 35.9249L71.1611 36.0741L71.3103 36.2232L71.4595 36.3724L71.6087 36.6708L71.7579 36.82L71.907 36.9691V37.1183V37.2675V37.4167V37.715V38.0134L70.8627 37.5659L71.3103 38.1626V38.3118L71.4595 38.4609L71.6087 38.7593V38.9085L71.7579 39.2069V39.356L71.907 39.6544V39.8036V40.102V40.2512V40.5495V40.6987V40.9971V41.1463V41.2954V41.4446V41.5938V41.743V41.8922V42.0414V42.1905V42.3397L70.7136 41.2954L70.5644 41.4446L70.8627 41.8922V42.0414V42.1905V42.6381V42.9364V43.2348V43.384V43.5332L70.7136 44.1299L70.5644 44.4282L70.4152 44.8758L70.266 45.1741L70.1168 45.3233L69.9676 45.4725L69.5201 44.4282L69.0725 44.8758L68.9234 45.025L68.7742 45.1741L68.625 45.3233L68.4758 45.4725L68.1775 45.7709L67.8791 46.0693L67.7299 46.2184L67.5807 46.3676L67.4316 46.5168H67.2824L67.1332 46.666L66.8348 46.8152L66.5365 46.9644L66.2381 47.1135L65.9398 47.2627H65.7906H65.6414H65.4922L65.9398 45.4725L65.4922 45.7709L65.343 45.9201L65.1938 46.0693L65.0446 46.2184L64.7463 46.3676L64.2987 46.666H64.1495V44.7266H64.0004H63.8512H63.702H63.2544H63.1053L63.702 43.9807H63.2544H63.1053H62.9561H62.8069H62.6577H62.5085H62.3593H62.2102L61.6134 43.8315L61.3151 43.6823H61.1659L60.8675 43.5332H60.7184C61.1659 43.384 61.7626 43.384 62.2102 43.2348C62.5086 43.2348 62.8069 43.0856 63.2544 43.0856V43.2348H63.4036H64.4479H65.0446H65.4922L65.9398 43.0856L66.3873 42.9364H66.5365L66.8348 42.7873H66.984L67.1332 42.6381L67.2824 42.4889L67.4316 42.3397H67.5807L67.7299 42.0414L67.8791 41.743L68.0283 41.5938L68.3266 42.4889L68.625 42.1905L68.7742 42.0414L68.9234 41.8922V41.743L69.0725 41.4446V41.2954V41.1463V40.9971L69.2217 40.6987V40.5495V40.4003V40.102V39.9528V39.5052L69.9676 39.8036V39.5052V39.356V39.2069V39.0577V38.7593V38.6101L69.8185 38.3118L69.6693 37.8642V37.715L69.5201 37.5659L69.3709 37.4167L69.0725 37.1183L69.6693 36.9691L69.5201 36.6708L69.3709 36.5216L69.2217 36.3724L69.0725 36.2232L68.7742 35.9249H68.625L68.3266 35.7757L68.1775 35.6265V35.4773L67.8791 35.7757L68.0283 35.9249H68.1775L68.3266 36.0741L68.625 36.3724L68.7742 36.6708L68.1775 36.82L68.3266 37.1183L68.4758 37.2675L68.625 37.4167L68.7742 37.5659L68.9234 37.8642L69.0725 38.0134L69.2217 38.3118L69.3709 38.7593V38.9085V39.0577V39.356L68.625 38.7593L68.9234 39.2069V39.356V39.5052V39.8036V39.9528V40.102V40.2512V40.4003V40.5495V40.6987V40.8479V40.9971V41.1463V41.2954L68.7742 41.4446L68.625 41.743L68.3266 40.8479L68.0283 41.2954V41.4446L67.8791 41.5938V41.743L67.7299 41.8922L67.5807 42.1905V42.3397L67.2824 42.4889L67.1332 42.6381L66.6857 42.7873H66.5365H66.3873H66.2381H66.0889H65.6414H65.0446H64.8955C65.0446 42.7873 65.1938 42.7873 65.343 42.7873C65.4922 42.6381 65.6414 42.6381 65.6414 42.4889C66.8348 42.0413 67.7299 41.4446 68.0283 40.5495C68.4758 39.6544 68.1775 38.3118 67.4316 36.82C68.9234 35.0298 68.9234 33.3888 68.7742 32.0461H68.625C68.7742 31.7478 68.625 31.4494 68.625 31.0018H68.4758C68.625 31.5986 68.4758 31.897 68.3266 32.1953C68.1774 32.3445 67.8791 32.4937 67.5807 32.4937C67.1332 32.3445 66.8348 31.8969 66.5365 31.3002H66.3873C66.5365 31.8969 66.8348 32.3445 67.5807 32.792C68.1774 32.6429 68.4758 32.4937 68.625 32.1953C68.625 32.1953 68.625 32.1953 68.625 32.0461C68.625 33.9855 68.1775 35.3281 66.984 36.5216C67.5807 37.8642 67.8791 38.9085 67.5807 39.8036C67.2824 40.5495 66.6856 41.2954 65.6414 41.8922C65.9397 41.4446 66.0889 40.9971 65.9398 40.5495C65.7906 40.102 65.343 39.9528 64.8955 39.9528C64.5971 39.9528 64.1496 40.102 63.702 40.2512C63.1053 40.4003 62.6577 40.4003 62.2102 40.4003C61.3151 40.4003 60.7183 40.2512 60.2708 39.8036C59.9724 39.5053 59.8233 39.0577 59.8233 38.4609C60.5692 38.7593 61.3151 38.7593 61.9118 38.7593C62.9561 38.7593 63.702 38.461 64.4479 38.0134C64.1496 37.1183 63.4037 36.6708 62.2102 36.6708C61.4643 36.6708 60.5692 36.82 59.3757 37.2675C59.2265 37.2675 59.0774 36.9691 59.0774 36.5216C58.9282 35.9249 59.2265 35.1789 59.8233 34.8806C61.4643 34.5822 62.2102 33.6871 62.9561 32.792C63.702 31.8969 64.2987 31.0018 66.2381 31.0018C66.3873 30.4051 66.5364 29.8084 66.8348 29.2117V29.3609C66.984 30.256 67.1332 31.3002 67.2824 32.4937H67.4316C67.4316 31.5986 67.4316 30.5543 67.2824 29.51L66.984 29.3609H66.8348C66.8348 29.3609 66.8348 29.2117 66.984 29.2117C67.5807 29.51 67.8791 30.1068 68.1775 30.8527C68.3267 30.8527 68.625 30.8527 68.7742 30.8527C70.4152 30.8527 71.7578 31.4494 72.9513 32.6428L72.2054 33.2396H72.3546C73.3988 33.6871 74.1448 34.5822 74.5923 36.0741L73.9956 36.2232V36.3724V36.5216C74.7415 37.5659 74.7415 38.9085 74.7415 40.2512H73.9956V40.4003C73.9956 42.0413 73.6972 43.6823 72.8021 45.3233L72.5038 44.7266H72.3546L72.2054 44.5774V44.7266L72.0562 45.025L71.907 45.1741L71.7579 45.3233L71.6087 45.4725L71.4595 45.6217L71.3103 45.7709L70.7136 46.3676L70.4152 46.666L69.9676 47.1135L69.8185 47.2627L69.6693 47.4119L69.2217 47.8595L69.0725 48.0086L68.9234 47.1135L68.625 47.2627L68.0283 47.5611H67.8791V47.7103H67.7299L67.2824 47.8595H67.1332H66.984L66.3873 48.0086H66.2381H66.0889H65.9398H65.7906H65.4922L64.8955 48.1578H64.5971H64.4479H64.2987L64.8955 47.2627ZM62.5085 36.2232C64.1495 36.2232 65.343 36.8199 66.2381 37.8642L66.3873 37.715C65.9397 36.6708 65.9397 36.074 66.5365 35.6265L66.6857 35.4773H66.3873H66.2381C65.9397 35.4773 65.7906 35.6265 65.6414 35.7757C65.4922 35.9249 65.343 36.2232 65.4922 36.6708C64.8954 36.0741 64.0003 35.6265 63.1053 35.6265C62.3593 35.6265 61.6134 35.7757 60.8675 36.0741V36.2232C61.6134 36.3724 62.061 36.2232 62.5085 36.2232ZM65.0446 32.3445C64.1496 32.3445 63.702 32.792 63.2544 33.6871L63.4036 33.8363C63.5528 33.6871 63.8512 33.6871 64.1495 33.5379C64.7463 33.3888 65.343 33.2396 65.4922 32.4937V32.3445H65.343C65.1938 32.3445 65.0446 32.3445 65.0446 32.3445Z" fill="#1A1F35"/>
<path fill-rule="evenodd" clip-rule="evenodd" d="M50.126 51.5892L51.0211 51.2908L55.6457 54.2745V53.827L51.3194 50.9925L52.0653 50.5449L56.69 53.5286L56.3916 53.9761H56.2425C55.9441 53.9761 55.6457 54.1253 55.6457 54.2745C55.4965 54.5728 55.6457 54.722 55.9441 55.0204L55.6457 55.468L50.126 51.5892Z" fill="#1A1F35"/>
<path fill-rule="evenodd" clip-rule="evenodd" d="M55.1983 52.0363C56.8393 49.6494 56.541 47.4116 54.3032 45.1739L55.4967 44.428C56.0934 45.1739 56.9885 45.9198 58.182 46.3674C59.2262 48.3067 59.3754 50.0969 58.6295 52.1855H58.0328L57.1377 53.3789L55.1983 52.0363Z" fill="#1A1F35"/>
</g>
<defs>
<clipPath id="clip0_2079_932">
<rect width="92" height="100" fill="white"/>
</clipPath>
</defs>
</svg>
