<svg width="107" height="100" viewBox="0 0 107 100" fill="none" xmlns="http://www.w3.org/2000/svg">
<path d="M46.9927 10.0116C46.8435 9.86238 46.6943 9.86239 46.6943 9.7132C46.9927 8.22138 47.4402 6.72956 48.037 5.38691C48.3353 4.641 48.7829 3.89509 49.5288 3.29836C49.9763 3 50.2747 3 50.8714 3C51.9157 3 53.1092 3 54.1535 3C54.8994 3 55.6453 3 56.5404 3C57.2863 3 58.1813 2.99999 58.9273 3.44754C55.0485 4.93936 51.6173 8.22138 48.7829 11.205C48.1861 10.9067 47.5894 10.4591 46.9927 10.0116Z" fill="#1A1F35"/>
<path d="M56.2418 7.02798C57.7336 5.98371 59.3746 4.93943 61.1648 4.79025C62.2091 4.64107 63.1042 5.08861 63.9993 5.53616C64.8944 5.98371 65.7894 6.43126 66.5354 6.8788C67.1321 7.17717 67.7288 7.62471 68.3256 7.92308C68.6239 8.07226 68.9223 8.37062 69.2207 8.66899C69.9666 9.86245 69.9666 11.5035 69.8174 12.8461C69.519 15.0838 68.7731 17.0232 68.1764 19.1117C67.878 18.9626 67.5796 18.8134 67.2813 18.6642C66.5354 15.0838 65.6403 11.8018 64.2976 8.37063C61.6123 10.31 59.2254 12.5477 56.8385 15.0838C54.3024 14.4871 51.6172 13.8904 49.0811 13.4428C51.3188 11.0559 53.5565 8.81817 56.2418 7.02798Z" fill="#1A1F35"/>
<path d="M32.223 19.8578C31.7755 18.0676 31.1788 15.9791 31.7755 14.1889C32.0739 13.443 32.6706 12.9954 33.1181 12.3987C33.7149 11.6528 34.4607 10.9069 35.0575 10.161C35.8034 9.41505 36.8477 8.51997 37.7428 8.07242C38.7871 7.47569 40.2789 8.22159 41.3232 8.66914C43.5609 9.71342 45.5003 11.0561 47.4396 12.6971C47.2905 12.8463 46.9921 13.1446 46.8429 13.2938C43.2625 12.8463 39.6821 12.6971 36.1018 12.8463C36.9969 15.5315 38.0412 18.0676 39.3838 20.4545C39.533 20.9021 39.8313 21.2005 40.1297 21.648C40.1297 21.7972 40.2789 21.9464 40.2789 22.0955C40.2789 22.2447 39.9805 22.5431 39.9805 22.5431C39.533 23.289 38.9362 24.0349 38.4887 24.93C37.7428 26.2727 36.9969 27.6153 36.251 28.9579C35.5051 27.4661 34.6099 25.9743 33.864 24.4825C33.4165 22.9907 32.8198 21.4988 32.223 19.8578Z" fill="#1A1F35"/>
<path d="M58.1814 17.1721C58.1814 16.8738 58.0322 16.5754 58.0322 16.277C58.7781 15.2328 59.8224 14.3377 60.7175 13.5918C61.6126 12.6967 62.6569 11.8016 63.5519 11.0557C65.6405 16.7246 66.5356 22.9902 66.834 28.9575C64.5962 30.3002 62.2093 31.3444 59.6732 32.3887C59.6732 27.3165 59.2256 22.2443 58.1814 17.1721Z" fill="#1A1F35"/>
<path d="M48.6336 15.0841C51.3189 15.5316 56.5403 16.7251 56.5403 16.7251C56.6895 17.3218 56.6895 17.9185 56.8387 18.3661C56.9878 18.9628 56.9879 19.7087 57.137 20.3054C57.2862 21.6481 57.5846 23.1399 57.7338 24.4825C52.5124 22.9907 47.291 21.7973 41.7712 21.0513C40.4286 18.8136 39.2352 16.5759 38.4893 14.189C41.7713 14.189 45.2024 14.4873 48.6336 15.0841Z" fill="#1A1F35"/>
<path d="M26.7035 24.6315C27.1511 23.2889 27.3003 22.0954 27.897 20.7528C28.4937 19.4102 28.9413 17.7691 29.9855 16.5757C30.2839 20.7528 32.2233 24.9299 34.3118 28.5103C33.5659 29.107 32.6708 29.5545 32.0741 30.0021C27.7478 27.6152 26.5544 25.6758 26.7035 24.6315Z" fill="#1A1F35"/>
<path d="M80.111 26.869C77.4257 23.587 73.3978 21.4984 69.6682 19.7082C69.6682 19.7082 69.6682 19.7082 69.519 19.7082C69.8174 18.8131 70.1158 18.0672 70.4141 17.3213C72.0552 17.023 73.8453 17.1721 75.4863 17.4705C76.2322 17.6197 77.2765 17.7689 77.7241 18.5148C78.0224 18.8132 78.0225 19.1115 78.1716 19.5591C78.47 20.305 78.6192 20.9017 78.9176 21.6476C79.2159 22.5427 79.3651 23.4378 79.6635 24.3329C79.9618 25.0788 80.2602 25.9739 80.111 26.869Z" fill="#1A1F35"/>
<path d="M79.6636 29.1066C80.5587 30.7477 79.8128 32.687 79.6636 34.328C79.5144 35.2231 79.3652 35.969 79.216 36.8641C79.0668 37.3117 79.0668 38.0576 78.7685 38.5051C78.4701 39.5494 76.8291 39.997 75.934 40.2953C73.3979 40.892 70.8618 40.892 68.3257 40.7429C68.3257 40.4445 68.3257 40.1461 68.4749 39.8478C69.5192 39.4002 70.4143 38.8035 71.4586 38.2068C72.3537 37.61 73.2487 37.1625 73.9946 36.5658C75.1881 35.6707 76.3815 34.7756 77.575 33.8805C76.3815 32.9854 75.3373 32.2395 74.1438 31.4936C72.3536 30.4493 70.5634 29.7034 68.6241 28.6591C68.4749 25.9738 68.1766 23.2885 67.729 20.7524C69.9667 21.7967 72.0553 22.841 74.1438 24.1836C76.2324 25.2279 78.4701 26.8689 79.6636 29.1066Z" fill="#1A1F35"/>
<path d="M38.9364 27.6154C39.8315 25.9744 40.7266 24.4826 41.7709 22.8416C44.4562 23.1399 46.9923 23.5875 49.5284 24.1842C48.1858 25.9744 46.9923 27.9138 45.948 29.8531C45.6497 30.3007 42.5168 35.9696 42.3677 36.268C42.0693 36.8647 41.4726 38.2073 41.4726 38.2073C40.7267 38.3565 40.1299 38.5057 39.5332 38.6549C38.7873 38.8041 38.0414 38.9532 37.4446 39.1024C36.2512 39.2516 35.0577 39.4008 33.8643 39.55C33.8643 39.1024 34.1626 38.5057 34.3118 38.2073C34.461 37.6106 34.6102 37.1631 34.9086 36.5663C35.3561 35.5221 35.8036 34.4778 36.2512 33.4335C36.9971 31.345 37.8922 29.4056 38.9364 27.6154Z" fill="#1A1F35"/>
<path d="M47.2909 45.9642C44.6057 46.561 41.9204 47.0085 39.2351 47.0085C37.7433 47.0085 36.2515 47.0085 34.7596 46.7101C33.5662 46.561 32.3727 46.2626 31.4776 45.3675C31.1792 45.0691 30.8809 44.6216 30.7317 44.3232C30.4333 43.7265 29.9858 43.1298 29.5383 42.533C28.9415 41.4888 28.3448 40.2953 27.8972 39.1018C27.7481 38.6543 27.4497 38.0576 27.4497 37.4608C27.4497 36.8641 27.8973 36.2674 28.1956 35.6707C29.8366 33.1346 32.5219 31.3444 34.9088 29.7034C35.058 29.8526 35.2072 30.1509 35.3564 30.3001C33.7153 33.5821 32.5219 37.1625 31.6268 40.7428C35.058 40.7428 38.34 40.2953 41.7712 39.5494C43.5614 41.9363 45.3516 44.0249 47.2909 45.9642Z" fill="#1A1F35"/>
<path d="M58.3305 42.2354C57.4354 41.3403 56.3912 40.4452 55.4961 39.4009C55.0485 38.9534 54.601 38.5058 54.1534 38.0583C53.7059 37.6107 52.96 36.7156 52.96 36.7156C53.2583 36.7156 54.1534 36.2681 54.601 36.1189C55.3469 35.8205 55.9436 35.6714 56.6895 35.373C58.0322 34.9255 59.2256 34.3287 60.4191 33.732C61.7617 33.1353 63.2536 32.3894 64.5962 31.7926C65.3421 31.4943 65.9388 31.0467 66.5356 30.7484C66.9831 30.45 67.8782 30.0024 67.8782 30.0024C70.1159 31.0467 72.5028 32.2402 74.5914 33.5828C72.2045 35.5222 69.5192 37.014 66.8339 38.5058C65.3421 39.2517 63.9995 39.9977 62.5077 40.5944C61.7618 40.8927 60.8666 41.3403 60.1207 41.6387C59.6732 41.7878 59.2256 42.0862 58.6289 42.2354C58.4797 42.5337 58.6289 42.5337 58.3305 42.2354Z" fill="#1A1F35"/>
<path d="M43.1135 38.8036C42.9643 38.6544 43.7102 37.6101 43.7102 37.4609C44.0086 36.8642 44.3069 36.2675 44.6053 35.6708C45.3512 34.3281 45.9479 32.9855 46.843 31.6428C50.125 36.1183 53.8546 40.1462 57.8825 43.8758C57.5842 46.4119 57.1366 48.948 56.5399 51.3349C51.3185 48.0529 46.843 43.5774 43.1135 38.8036Z" fill="#1A1F35"/>
<path d="M64.7451 49.9925C64.1484 51.6335 63.5516 53.2745 62.3582 54.6171C61.1647 55.9597 59.5237 55.9597 57.8827 56.2581C56.3909 56.5565 54.7499 56.8548 53.1089 56.8548C52.0646 56.8548 51.0203 55.5122 50.5728 54.7663C49.2301 52.5285 48.4842 49.9925 47.7383 47.6055C48.0366 47.6055 48.335 47.4563 48.6334 47.4563C51.3187 49.9924 54.1532 52.2302 57.286 54.1696C58.3303 50.8875 59.0762 47.6055 59.3745 44.1743C61.9106 43.2792 64.2975 42.0858 66.6845 40.8923C66.3861 43.876 65.9386 47.0088 64.7451 49.9925Z" fill="#1A1F35"/>
<path d="M70.7127 42.3843C71.757 43.7269 72.3536 45.5171 72.3536 47.1581C72.3536 47.904 72.2045 48.7991 71.9061 49.545C71.7569 50.1417 71.1602 50.4401 70.7127 50.8877C69.6684 51.7828 68.4749 52.5287 67.4306 53.2746C66.5356 53.8713 65.6405 54.468 64.5962 54.6172C65.3421 53.4238 65.9388 52.2303 66.3864 50.8877C66.8339 49.545 67.1323 48.2024 67.5798 46.7106C67.8782 45.2187 68.1766 43.8761 68.3257 42.3843C69.0717 42.3843 69.8176 42.3843 70.7127 42.3843Z" fill="#1A1F35"/>
<path d="M46.8434 49.9924C46.8434 50.1416 46.8434 50.1416 46.9925 50.2907C45.7991 51.335 44.4565 52.3793 42.9647 53.1252C42.2187 53.4236 41.3236 53.8711 40.5777 53.7219C40.2794 53.7219 39.981 53.4236 39.6826 53.2744C38.9367 52.8268 38.1908 52.3793 37.4449 51.7826C36.1022 50.7383 34.6104 49.5448 33.7153 48.2022C37.7433 49.2465 42.2187 48.6497 46.2466 47.7546C46.3958 48.5006 46.545 49.2465 46.8434 49.9924Z" fill="#1A1F35"/>
<path d="M27.002 80.7241C26.2561 81.47 25.2118 81.7684 24.1676 81.7684C23.1233 81.7684 22.079 81.47 21.3331 80.7241C20.1397 79.6798 19.9905 78.0388 19.9905 76.3978C19.9905 74.906 20.1397 73.1158 21.3331 72.0715C22.079 71.3256 23.1233 71.0272 24.1676 71.0272C25.2118 71.0272 26.2561 71.3256 27.002 72.0715C28.1955 73.1158 28.3447 74.7568 28.3447 76.3978C28.3447 78.0388 28.1955 79.6798 27.002 80.7241ZM24.1676 69.3862C19.3937 69.3862 17.0068 72.5191 17.0068 76.3978C17.0068 80.2765 19.3937 83.4094 24.1676 83.4094C28.9414 83.4094 31.3283 80.2765 31.3283 76.3978C31.3283 72.5191 28.9414 69.3862 24.1676 69.3862Z" fill="#1A1F35"/>
<path d="M43.4125 79.2323C43.4125 77.4421 42.3682 76.0994 39.5337 75.2043L38.3403 74.7568C36.4009 74.1601 35.5058 73.8617 35.5058 72.8174C35.5058 71.4748 36.8485 71.1764 38.0419 71.1764C39.5337 71.1764 40.7272 71.624 42.0699 72.2207V70.1321C40.7272 69.6846 39.3846 69.3862 38.1911 69.3862C35.3566 69.3862 32.6714 70.7289 32.6714 73.5633C32.6714 75.2043 33.4173 76.0994 36.5501 77.1437L37.7436 77.5912C39.5338 78.188 40.578 78.7847 40.578 79.9782C40.578 81.3208 39.2354 81.7684 37.7436 81.7684C36.1026 81.7684 34.3124 81.1716 32.6714 80.2765V82.6635C34.3124 83.5586 36.1026 83.5585 37.1469 83.5585C40.7272 83.4094 43.4125 82.0667 43.4125 79.2323Z" fill="#1A1F35"/>
<path d="M6.7132 80.7241C6.11647 81.1716 5.22142 81.1716 4.32632 81.1716H2.68531V76.8453H3.43122C4.4755 76.8453 5.66896 76.8453 6.56406 77.5912C7.16079 78.0388 7.45911 78.6355 7.45911 79.3814C7.30993 79.9782 7.16075 80.4257 6.7132 80.7241ZM2.68531 71.6239H4.17713C4.92304 71.6239 5.51975 71.6239 6.11648 72.0715C6.56403 72.3698 6.7132 72.8174 6.7132 73.2649C6.7132 73.7125 6.41484 74.16 5.96729 74.6076C5.37056 75.2043 4.47551 75.2043 3.58041 75.2043H2.68531V71.6239ZM6.7132 75.9502C8.05584 75.6519 9.5477 74.9059 9.5477 73.1158C9.5477 72.2207 9.10012 71.3256 8.20503 70.5797C7.01157 69.6846 5.22142 69.6846 3.58041 69.6846H0V82.8126H3.72956C5.66893 82.8126 7.45915 82.8126 8.80179 81.9175C9.69689 81.3208 10.1444 80.4257 10.1444 79.3814C10.1444 77.5912 8.50339 76.3978 6.7132 75.9502Z" fill="#1A1F35"/>
<path d="M48.186 71.6239H50.1254C51.0205 71.6239 52.0648 71.6239 52.6615 72.2207C53.2582 72.6682 53.4074 73.265 53.4074 73.7125C53.4074 74.3092 53.2582 75.0551 52.6615 75.5027C51.9156 76.0994 51.0205 76.0994 50.1254 76.0994H48.186V71.6239ZM48.186 77.8896H49.3795C51.3188 77.8896 53.109 77.8896 54.6008 76.6961C55.6451 75.8011 56.0927 74.6076 56.0927 73.5633C56.0927 72.519 55.6451 71.4748 54.6008 70.7289C53.2582 69.6846 51.3188 69.6846 49.3795 69.6846H45.3516V82.8126H48.0368V77.8896H48.186Z" fill="#1A1F35"/>
<path d="M88.0176 76.0994H87.1226V71.6239H88.4652C89.3603 71.6239 91.2997 71.4748 91.2997 73.7125C91.2997 74.3092 91.1505 75.0551 90.5538 75.5027C89.957 76.0994 88.9127 76.0994 88.0176 76.0994ZM93.9849 73.7125C93.9849 72.6682 93.5374 71.4748 92.6423 70.7289C91.2997 69.6846 89.5095 69.6846 87.7193 69.6846H84.2881V82.8126H86.9734V77.7404H87.1226C87.421 77.7404 87.5701 77.7404 87.8685 77.7404L92.344 82.8126H95.4768L90.8521 77.4421C93.2391 76.9945 93.9849 75.3535 93.9849 73.7125Z" fill="#1A1F35"/>
<path d="M14.9182 69.8337H12.2329V82.9618H14.9182V69.8337Z" fill="#1A1F35"/>
<path d="M60.8665 77.2929H66.6846V82.9618H69.519V69.8337H66.6846V75.5027H60.8665V69.8337H58.1812V82.9618H60.8665V77.2929Z" fill="#1A1F35"/>
<path d="M75.0388 76.8453H80.7077V75.0551H75.0388V71.6239H82.1996V69.8337H72.3535V82.9618H82.3487V81.1716H75.0388V76.8453Z" fill="#1A1F35"/>
<path d="M99.6536 81.1716V76.8453H105.322V75.0551H99.6536V71.6239H106.814V69.8337H96.9683V82.9618H106.963V81.1716H99.6536Z" fill="#1A1F35"/>
<path d="M67.878 87.7358H67.2812V88.6309H67.878V87.7358Z" fill="#1A1F35"/>
<path d="M65.1927 94.1506V90.4211H66.237V89.9735H65.1927V88.4817H64.596V89.9735H63.8501V90.4211H64.596V94.449C64.596 95.1949 64.8943 95.4933 65.6403 95.4933C65.9386 95.4933 66.237 95.3441 66.3862 95.3441V94.8965C66.237 94.8965 66.0878 94.8965 65.9386 94.8965C65.3419 94.8965 65.1927 94.7474 65.1927 94.1506Z" fill="#1A1F35"/>
<path d="M39.981 90.8685V89.8243H39.3843V95.1948H39.981V92.5095C39.981 91.3161 40.4285 90.2718 41.7712 90.2718V89.5259C40.7269 89.6751 40.2794 89.9734 39.981 90.8685Z" fill="#1A1F35"/>
<path d="M55.6451 90.8685V89.8243H55.0483V95.1948H55.6451V92.5095C55.6451 91.3161 56.0926 90.2718 57.4352 90.2718V89.5259C56.5401 89.6751 56.0926 89.9734 55.6451 90.8685Z" fill="#1A1F35"/>
<path d="M35.5054 94.8967C34.3119 94.8967 33.7151 94.0016 33.7151 92.6589C33.7151 91.4655 34.3119 90.4212 35.5054 90.4212C36.848 90.4212 37.2955 91.4655 37.2955 92.6589C37.2955 93.8524 36.848 94.8967 35.5054 94.8967ZM35.5054 89.6753C33.8644 89.6753 32.9692 91.0179 32.9692 92.5097C32.9692 94.4491 34.1627 95.3442 35.5054 95.3442C36.9972 95.3442 38.0414 94.1508 38.0414 92.5097C38.0414 91.0179 37.1464 89.6753 35.5054 89.6753Z" fill="#1A1F35"/>
<path d="M45.2024 94.8967C44.0089 94.8967 43.4121 93.8524 43.4121 92.6589C43.4121 91.1671 44.1581 90.272 45.2024 90.272C46.545 90.272 46.9925 91.3163 46.9925 92.6589C47.1417 94.0016 46.2466 94.8967 45.2024 94.8967ZM45.3515 89.6753C44.6056 89.6753 43.8597 90.1228 43.4121 90.7196V89.8245H42.8154V97.4328H43.4121V94.4491C43.8597 95.0459 44.6056 95.4934 45.3515 95.4934C46.9926 95.4934 47.7384 94.1508 47.7384 92.6589C47.7384 91.0179 46.9926 89.6753 45.3515 89.6753Z" fill="#1A1F35"/>
<path d="M51.3188 94.8967C50.1254 94.8967 49.5286 94.0016 49.5286 92.6589C49.5286 91.4655 50.1254 90.4212 51.3188 90.4212C52.6615 90.4212 53.109 91.4655 53.109 92.6589C53.109 93.8524 52.6615 94.8967 51.3188 94.8967ZM51.3188 89.6753C49.6778 89.6753 48.7827 91.0179 48.7827 92.5097C48.7827 94.4491 49.9762 95.3442 51.3188 95.3442C52.8107 95.3442 53.8549 94.1508 53.8549 92.5097C53.8549 91.0179 52.9598 89.6753 51.3188 89.6753Z" fill="#1A1F35"/>
<path d="M71.7568 94.8967C70.5633 94.8967 69.9666 94.0016 69.9666 92.6589C69.9666 91.4655 70.5633 90.4212 71.7568 90.4212C73.0994 90.4212 73.547 91.4655 73.547 92.6589C73.547 93.8524 73.0994 94.8967 71.7568 94.8967ZM71.7568 89.6753C70.1158 89.6753 69.2207 91.0179 69.2207 92.5097C69.2207 94.4491 70.4141 95.3442 71.7568 95.3442C73.2486 95.3442 74.2929 94.1508 74.2929 92.5097C74.2929 91.0179 73.3978 89.6753 71.7568 89.6753Z" fill="#1A1F35"/>
<path d="M77.8733 89.6753C77.1273 89.6753 76.6798 89.9737 76.083 90.5704V89.8245H75.4863V95.195H76.083V92.2114C76.083 91.1671 76.5306 90.1228 77.7241 90.1228C78.7683 90.1228 79.0667 90.5704 79.0667 91.6147V95.195H79.6635V91.6147C79.8126 90.4212 79.0667 89.6753 77.8733 89.6753Z" fill="#1A1F35"/>
<path d="M29.5381 94.8962C28.1954 94.8962 27.7479 93.7027 27.7479 92.6584C27.7479 91.465 28.3446 90.2715 29.5381 90.2715C30.4332 90.2715 30.8807 90.7191 31.1791 91.6142H31.7758C31.6266 90.4207 30.7315 89.824 29.5381 89.824C27.8971 89.824 27.002 91.1666 27.002 92.6584C27.002 94.2994 27.7479 95.4929 29.5381 95.4929C30.8807 95.4929 31.6266 94.5978 31.925 93.4043H31.3282C31.179 94.2994 30.5823 94.8962 29.5381 94.8962Z" fill="#1A1F35"/>
<path d="M62.0601 93.4043C62.0601 94.4486 61.0159 95.0454 60.1208 95.0454C59.524 95.0454 58.9273 94.747 58.9273 94.0011C58.9273 93.2551 59.524 92.9568 60.4191 92.8076C61.165 92.8076 61.7618 92.6584 62.0601 92.5092V93.4043ZM62.806 94.4486V91.465C62.806 90.2715 61.911 89.824 60.8667 89.824C59.6732 89.824 58.7781 90.2715 58.6289 91.6142H59.2257C59.3749 90.7191 59.9716 90.4207 60.8667 90.4207C61.911 90.4207 62.2093 90.8682 62.2093 91.465C62.2093 91.9125 62.0601 92.0617 61.4634 92.2109L60.27 92.3601C58.9273 92.5093 58.3306 93.106 58.3306 94.0011C58.3306 95.0453 59.2257 95.6421 60.1208 95.6421C60.8667 95.6421 61.6126 95.3437 62.0601 94.747C62.0601 95.4929 62.3585 95.6421 62.806 95.6421C62.9552 95.6421 63.1044 95.6421 63.2536 95.4929V94.8962C63.1044 94.8962 62.9552 95.0454 62.806 95.0454C62.806 94.8962 62.806 94.747 62.806 94.4486Z" fill="#1A1F35"/>
<path d="M67.878 89.824H67.2812V95.1945H67.878V89.824Z" fill="#1A1F35"/>
</svg>
