<svg width="110" height="100" viewBox="0 0 110 100" fill="none" xmlns="http://www.w3.org/2000/svg">
<path d="M109.649 30.2984C109.35 30.7459 109.201 30.8951 109.052 31.0443C106.367 33.7296 103.682 36.4148 100.996 39.1001C100.4 39.6968 99.8028 39.9952 98.9077 39.9952C92.7912 39.9952 86.6747 39.9952 80.7075 39.9952C80.2599 39.9952 79.9615 39.9952 79.514 40.1444C79.514 40.4428 79.3648 40.7411 79.3648 40.8903C79.3648 47.0068 79.3648 52.9741 79.3648 59.0905C79.3648 60.5824 79.514 60.7316 81.0058 60.7316C84.437 60.7316 88.0174 60.7316 91.4486 60.5824C93.8355 60.5824 95.1781 58.3446 93.9847 56.4053C93.5371 55.5102 92.642 55.2118 91.7469 55.2118C88.9125 55.2118 86.078 55.2118 83.2435 55.2118C82.796 55.2118 82.3485 55.2118 81.9009 55.0626C81.9009 54.6151 81.7517 54.3167 81.7517 54.0184C81.7517 51.6314 81.7517 49.2445 81.7517 46.8576C81.7517 45.6641 81.9009 45.515 83.0944 45.515C87.1223 45.515 91.1502 45.515 95.1781 45.515C96.5208 45.515 97.5651 45.9625 98.6093 46.5592C100.996 48.0511 102.786 50.2888 103.532 53.1233C104.577 56.8528 104.427 60.5824 102.786 64.1627C101.444 66.9972 99.3552 68.7874 96.5208 69.8317C96.2224 69.9809 95.7749 69.9809 95.3273 69.9809C86.9731 69.9809 78.7681 69.9809 70.4139 69.9809C70.2647 69.9809 70.1155 69.9809 69.8171 69.8317C69.8171 69.3841 69.668 69.0858 69.668 68.6382C69.668 59.3889 69.668 49.9904 69.668 40.7411C69.668 39.9952 69.8172 39.3985 70.4139 38.9509C73.0992 36.2657 75.7844 33.7296 78.4697 31.0443C79.2156 30.2984 79.9615 30 80.8566 30C90.1059 30 99.5044 30 108.754 30C108.903 30.2984 109.052 30.2984 109.649 30.2984Z" fill="#1A1F35"/>
<path d="M0 69.9808C0 69.6824 0 69.3841 0 68.9365C0 65.3562 0 61.7758 0 58.1954C0 57.4495 0.298365 56.8528 0.745912 56.4052C9.39849 48.051 18.2002 39.846 26.8528 31.4918C27.5987 30.895 28.1955 30.5967 29.2397 30.5967C31.925 30.5967 34.6103 30.5967 37.4448 30.5967C37.4448 31.0442 37.594 31.4918 37.594 31.9393C37.594 39.2493 37.5939 46.41 37.7431 53.7199C37.7431 58.643 37.7431 63.7152 37.7431 68.6382C37.7431 68.9365 37.7431 69.2349 37.7431 69.3841C37.7431 70.2792 37.594 70.4284 36.6989 70.4284C34.9087 70.4284 32.9693 70.4284 31.1791 70.4284C30.284 70.4284 29.5381 70.4284 28.643 70.4284C27.7479 70.4284 27.5987 70.2792 27.5987 69.3841C27.5987 68.3398 27.5987 67.1463 27.5987 66.1021C27.5987 64.7594 27.4495 64.6102 26.1069 64.6102C21.1839 64.6102 16.2609 64.6102 11.3379 64.7594C11.0395 64.7594 10.8903 64.7594 10.4428 64.6102C10.5919 64.3119 10.7411 64.0135 10.8903 63.8643C13.5756 61.3282 16.2609 58.643 19.0953 56.1069C19.6921 55.5101 20.2888 55.2118 21.1839 55.3609C22.9741 55.3609 24.7643 55.3609 26.4053 55.3609C27.4496 55.3609 27.7479 55.0626 27.7479 54.0183C27.7479 51.333 27.7479 48.6477 27.7479 45.9625C27.7479 45.8133 27.7479 45.6641 27.5987 45.2165C27.1512 45.3657 26.8528 45.5149 26.5545 45.8133C18.6478 53.2724 10.5919 60.7315 2.68529 68.1906C1.93937 68.9365 1.19346 69.5333 0.447551 70.2792C0.149187 70.13 0 70.13 0 69.9808Z" fill="#1A1F35"/>
<path d="M39.9805 40.1443C39.9805 39.1001 39.9805 38.205 39.9805 37.3099C39.9805 35.5197 39.9805 33.7295 39.9805 32.0885C39.9805 30.7459 40.1297 30.7459 41.3231 30.7459C45.9478 30.7459 50.5724 30.7459 55.0479 30.7459C61.6119 30.7459 68.1759 30.5967 74.7399 30.5967C74.8891 30.5967 75.0383 30.5967 75.4859 30.7459C75.1875 31.0442 75.0383 31.3426 74.8891 31.641C72.2039 34.3262 69.5186 37.0115 66.8333 39.846C66.3857 40.2935 65.789 40.4427 65.1923 40.4427C63.7005 40.4427 62.2086 40.4427 60.7168 40.4427C59.0758 40.4427 59.0758 40.5919 59.0758 42.0837C59.0758 50.7363 59.225 59.538 59.225 68.3398C59.225 68.7874 59.225 69.0857 59.225 69.5333C59.225 70.4284 59.0758 70.5775 58.0315 70.7267C55.3463 70.7267 52.5118 70.7267 49.8265 70.7267C49.0806 70.7267 48.9314 70.5775 48.9314 69.6824C48.9314 67.1463 48.9314 64.6102 48.9314 62.0741C48.9314 55.3609 48.7822 48.7969 48.7822 42.0837C48.7822 40.7411 48.6331 40.5919 47.2904 40.5919C45.351 40.5919 43.4117 40.5919 41.4723 40.5919C40.8756 40.1443 40.5772 40.1443 39.9805 40.1443Z" fill="#1A1F35"/>
</svg>
