<svg width="127" height="100" viewBox="0 0 127 100" fill="none" xmlns="http://www.w3.org/2000/svg">
<path d="M6.26566 44.9509V45.1001C6.26566 45.6969 6.26566 46.2936 6.26566 46.8903C6.26566 48.233 6.26566 49.4264 6.26566 50.7691C6.26566 52.2609 6.26566 53.7527 6.26566 55.2445C6.26566 56.5872 6.26566 57.9298 6.26566 59.2724C6.26566 60.4659 6.26566 61.6594 6.26566 63.002C6.26566 63.4495 6.26566 63.4495 5.81811 63.4495H0.298364H0.149182C-1.44494e-07 63.4495 0 63.4495 0 63.3004V63.1512V36.5967C0 36.1492 -4.44598e-07 36.1492 0.447546 36.1492C1.19346 36.1492 1.93937 36.1492 2.68528 36.1492C3.72956 36.1492 4.77383 36.2984 5.81811 36.5967C7.16075 37.0443 8.35421 37.641 9.39849 38.5361C10.1444 39.1328 10.7411 39.8787 11.3379 40.7738C11.6362 41.0722 11.7854 41.5197 11.9346 41.8181C12.8297 43.6083 13.7248 45.2493 14.4707 47.0395C14.9182 48.0838 15.515 49.128 15.9625 50.1723C16.5592 51.2166 17.0068 52.4101 17.6035 53.4543C17.7527 53.7527 17.7527 53.9019 17.9019 54.2002C17.9019 54.2002 17.9019 54.3494 18.0511 54.3494V54.2002C18.0511 53.7527 18.0511 53.3051 18.0511 52.8576C17.9019 50.6199 18.0511 48.3821 18.0511 46.1444C18.0511 45.6969 18.0511 45.2493 18.0511 44.6526C17.9019 41.9673 18.0511 39.1328 18.0511 36.4475C18.0511 36.2984 18.0511 36.2984 18.0511 36.1492C18.0511 36 18.0511 36 18.2002 36C18.3494 36 18.3494 36 18.4986 36C20.438 36 22.3773 36 24.3167 36C24.7643 36 24.7643 36 24.7643 36.4475V46.5919V62.7036C24.7643 62.8528 24.7643 62.8528 24.7643 63.002C24.7643 63.1512 24.7643 63.1512 24.6151 63.1512H24.4659C23.4216 63.1512 22.2282 63.1512 21.1839 63.1512C19.9904 63.1512 18.9461 62.8528 17.9019 62.4053C17.156 62.1069 16.4101 61.5102 15.6641 61.0626C15.0674 60.4659 14.4707 59.8692 14.0231 59.2724C13.5756 58.6757 13.2772 58.079 12.9789 57.4823C12.3821 56.438 11.9346 55.3937 11.3379 54.3494C10.4428 52.5592 9.39848 50.6199 8.50339 48.8297C7.90666 47.6362 7.30993 46.4428 6.7132 45.2493C6.41484 45.1001 6.41484 44.9509 6.26566 44.9509Z" fill="#1A1F35"/>
<path d="M40.4281 63.8968C39.8314 63.8968 39.2346 63.8968 38.7871 63.8968C37.7428 63.7477 36.8477 63.5985 35.8035 63.4493C34.7592 63.1509 33.7149 62.7034 32.8198 62.1066C31.7755 61.5099 30.8804 60.764 30.1345 59.8689C29.2394 58.8246 28.6427 57.7804 28.1952 56.5869C27.7476 55.5426 27.4492 54.3492 27.3001 53.3049C27.1509 52.559 27.1509 51.8131 27.1509 50.918C27.1509 50.6196 27.1509 50.3212 27.1509 50.0229C27.1509 49.4262 27.1509 48.8294 27.3001 48.2327C27.3001 47.636 27.4492 47.0392 27.4492 46.4425C27.5984 45.249 28.046 43.9064 28.4935 42.8621C28.9411 41.967 29.3886 41.2211 29.9853 40.4752C30.7313 39.5801 31.6263 38.8342 32.5214 38.2375C33.8641 37.3424 35.3559 36.8948 36.9969 36.5965C37.5936 36.4473 38.1904 36.4473 38.7871 36.2981C39.3838 36.2981 39.9806 36.1489 40.5773 36.1489C41.174 36.1489 41.7707 36.1489 42.2183 36.2981C42.815 36.2981 43.4117 36.4473 44.0085 36.5965C45.3511 36.8948 46.5446 37.1932 47.5889 37.9391C48.4839 38.3867 49.2299 38.9834 49.9758 39.7293C50.5725 40.1768 51.02 40.7736 51.4676 41.3703C51.9151 42.1162 52.3627 42.8621 52.6611 43.7572C53.1086 44.8015 53.2578 45.8458 53.407 46.8901C53.5561 47.636 53.5561 48.3819 53.5561 49.1278C53.5561 49.5753 53.5561 50.0229 53.5561 50.4704C53.5561 51.0672 53.5561 51.6639 53.407 52.1114C53.407 52.8573 53.2578 53.4541 53.1086 54.2C52.9594 55.3934 52.5119 56.4377 52.0643 57.482C51.6168 58.3771 51.1692 59.2722 50.5725 60.0181C49.9758 60.6148 49.379 61.2115 48.7823 61.8083C47.5889 62.7034 46.2462 63.3001 44.9036 63.7477C44.0085 64.046 43.2626 64.1952 42.3675 64.1952C41.9199 63.8968 41.174 63.8968 40.4281 63.8968ZM46.3954 49.5753C46.3954 49.1278 46.3954 48.2327 46.2462 47.4868C46.097 46.4425 45.9478 45.5474 45.5003 44.6523C45.0528 43.7572 44.6052 43.0113 43.8593 42.4146C43.2626 41.967 42.6658 41.6687 41.9199 41.3703C41.0248 41.0719 40.1297 41.0719 39.3838 41.2211C38.0412 41.3703 36.9969 41.967 36.251 43.0113C35.6543 43.7572 35.2067 44.6523 34.9084 45.6966C34.61 46.8901 34.4608 48.0835 34.4608 49.277C34.4608 50.0229 34.4608 50.7688 34.61 51.3655C34.61 52.1114 34.7592 52.8573 35.0575 53.6033C35.3559 54.4984 35.6543 55.2443 36.1018 55.9902C36.5494 56.5869 36.9969 57.0344 37.5936 57.482C38.4887 58.0787 39.533 58.2279 40.5773 58.2279C40.7265 58.2279 40.8757 58.2279 41.0248 58.2279C41.6216 58.2279 42.2183 58.0787 42.815 57.7804C43.7101 57.3328 44.456 56.7361 44.9036 55.9902C45.5003 55.0951 45.9479 54.0508 46.097 53.0065C46.3954 52.1114 46.3954 51.0672 46.3954 49.5753Z" fill="#1A1F35"/>
<path d="M104.427 45.249C104.427 48.0835 104.427 50.7688 104.427 53.6033C104.427 55.0951 104.129 56.4377 103.681 57.7804C103.234 58.8246 102.637 59.8689 101.742 60.6148C100.996 61.3607 100.25 61.9575 99.2059 62.405C98.46 62.8526 97.5649 63.1509 96.6698 63.3001C96.073 63.4493 95.4763 63.5985 94.8796 63.5985C94.5812 63.5985 94.1337 63.5985 93.8353 63.7477C93.2386 63.7477 92.6418 63.7477 92.0451 63.7477C91.4484 63.7477 90.8517 63.7477 90.2549 63.5985C89.509 63.4493 88.9123 63.4493 88.1664 63.1509C86.8237 62.8526 85.6303 62.2558 84.4368 61.3607C83.2434 60.4656 82.3483 59.2722 81.7515 57.9295C81.4532 57.0344 81.1548 56.1394 81.0056 55.2443C81.0056 54.7967 80.8564 54.3492 80.8564 53.7524C80.8564 52.559 80.8564 51.3655 80.8564 50.1721C80.8564 45.6966 80.8564 41.0719 80.8564 36.5965C80.8564 36.4473 80.8564 36.4473 80.8564 36.2981C80.8564 36.1489 80.8564 36.1489 81.0056 36.1489H81.1548H87.5696C87.868 36.1489 87.868 36.1489 87.868 36.4473V51.6639C87.868 51.9622 87.868 52.2606 87.868 52.559C87.868 53.6033 88.0172 54.6475 88.4647 55.5426C88.6139 56.1394 89.0615 56.7361 89.509 57.1836C89.9566 57.6312 90.5533 57.9295 91.15 58.0787C91.4484 58.2279 91.8959 58.2279 92.1943 58.2279C92.9402 58.2279 93.6861 58.2279 94.2829 57.9295C95.0288 57.6312 95.6255 57.0344 96.073 56.2885C96.5206 55.5426 96.6698 54.7967 96.8189 54.0508C97.2665 53.4541 97.2665 52.7082 97.2665 51.8131C97.2665 46.7409 97.2665 41.8179 97.2665 36.7457C97.2665 36.5965 97.2665 36.5965 97.2665 36.4473C97.2665 36.2981 97.2665 36.2981 97.4157 36.2981H97.5649H103.98C104.278 36.2981 104.278 36.2981 104.278 36.5965C104.427 39.5801 104.427 42.4146 104.427 45.249Z" fill="#1A1F35"/>
<path d="M79.5138 36.4473C79.5138 36.5965 79.5138 36.7457 79.3646 36.7457C77.4252 42.5638 75.4858 48.5311 73.5465 54.3492C72.6514 57.1836 71.6071 60.1673 70.712 63.0017C70.5628 63.3001 70.5628 63.3001 70.2645 63.3001H62.3578C61.9103 63.3001 61.9103 63.3001 61.9103 63.0017C61.3135 60.9132 60.5676 58.9738 59.9709 56.8853C59.6725 55.9902 59.3742 55.2443 59.225 54.3492C58.9266 53.3049 58.4791 52.1114 58.1807 51.0672C57.8823 50.3212 57.7332 49.4261 57.4348 48.6802C57.1364 47.636 56.6889 46.4425 56.3905 45.3982C56.0921 44.5031 55.7938 43.608 55.4954 42.5638C54.8987 40.6244 54.1528 38.685 53.556 36.5965C53.556 36.4473 53.4069 36.4473 53.556 36.2981C53.7052 36.1489 53.7052 36.2981 53.8544 36.2981C54.7495 36.2981 55.6446 36.2981 56.5397 36.2981H59.9709H60.1201C60.4184 36.2981 60.4184 36.2981 60.4184 36.5965C61.0152 38.5358 61.4627 40.4752 62.0594 42.5638C62.6562 44.6523 63.2529 46.5917 63.7004 48.6802C64.148 50.6196 64.7447 52.4098 65.1923 54.3492C65.4906 55.3934 65.789 56.2885 65.9382 57.3328C65.9382 57.3328 65.9382 57.482 66.0874 57.482C66.2365 57.482 66.2365 57.3328 66.2365 57.3328C66.3857 56.5869 66.6841 55.6918 66.8333 54.9459C67.1316 53.6033 67.5792 52.4098 67.8775 51.0672C68.3251 49.5753 68.6235 48.2327 69.071 46.7409C69.3694 45.5474 69.8169 44.2048 70.1153 43.0113C70.4136 41.967 70.712 40.7736 71.0104 39.7293C71.3087 38.685 71.6071 37.6408 71.9055 36.5965C71.9055 36.5965 71.9055 36.5965 71.9055 36.4473C71.9055 36.2981 72.0547 36.1489 72.2038 36.1489C72.353 36.1489 72.6514 36.1489 72.8006 36.1489C74.7399 36.1489 76.8285 36.1489 78.7679 36.1489C79.2154 36.2981 79.3646 36.2981 79.5138 36.4473Z" fill="#1A1F35"/>
<path d="M124.567 43.608C124.418 43.608 124.418 43.608 124.418 43.4589C123.821 42.8621 123.224 42.4146 122.479 42.1162C121.583 41.6687 120.688 41.5195 119.793 41.3703C119.197 41.2211 118.749 41.2211 118.152 41.2211C117.406 41.2211 116.66 41.3703 115.915 41.6687C115.467 41.8179 115.019 42.1162 114.721 42.4146C114.423 42.7129 114.274 43.0113 114.274 43.4589C114.274 43.7572 114.274 43.9064 114.274 44.2048C114.423 44.8015 114.721 45.249 115.318 45.5474C115.765 45.8458 116.213 45.995 116.81 46.1441C117.705 46.4425 118.749 46.7409 119.644 47.0392C120.987 47.3376 122.18 47.9343 123.374 48.5311C124.12 48.9786 124.716 49.4262 125.164 50.0229C125.761 50.7688 126.208 51.5147 126.506 52.4098C126.656 53.0065 126.805 53.7524 126.805 54.3492C126.805 54.6475 126.805 54.9459 126.805 55.0951C126.805 56.2885 126.656 57.3328 126.208 58.3771C125.91 59.123 125.462 59.8689 124.865 60.6148C124.269 61.3607 123.374 61.9575 122.479 62.405C121.285 63.0017 120.092 63.4493 118.749 63.5985C118.152 63.7477 117.556 63.7477 116.959 63.7477C116.362 63.7477 115.765 63.7477 115.019 63.7477C114.423 63.7477 113.975 63.5985 113.378 63.5985C112.633 63.4493 111.737 63.3001 110.992 63.0017C110.246 62.7034 109.351 62.2558 108.754 61.6591C108.008 61.0624 107.56 60.3165 107.262 59.4214C107.113 59.123 107.113 58.8246 107.113 58.3771C107.113 57.3328 107.262 56.4377 107.411 55.3934V55.2443C107.56 55.2443 107.56 55.3934 107.56 55.3934C108.157 56.1394 108.903 56.7361 109.798 57.1836C110.842 57.7804 112.036 58.2279 113.229 58.5263C113.677 58.5263 114.124 58.6755 114.423 58.6755C114.721 58.6755 114.87 58.6755 115.169 58.6755C115.467 58.6755 115.765 58.6755 116.064 58.6755C116.66 58.5263 117.257 58.5263 117.854 58.2279C118.451 57.9295 118.898 57.482 119.047 56.8853C119.197 56.1394 119.197 55.5426 118.749 54.9459C118.6 54.6475 118.301 54.3492 117.854 54.2C117.556 53.9016 117.108 53.7524 116.81 53.6033C116.064 53.3049 115.467 53.1557 114.721 52.8573C113.677 52.559 112.483 52.2606 111.439 51.8131C110.246 51.3655 109.052 50.6196 108.157 49.5753C107.56 48.8294 107.113 48.0835 106.814 47.1884C106.516 46.1441 106.367 45.0999 106.516 44.0556C106.665 42.5638 106.964 41.2211 107.859 40.0277C108.306 39.4309 108.903 38.8342 109.5 38.3867C110.246 37.7899 111.141 37.4916 112.036 37.044C113.08 36.5965 113.975 36.4473 115.019 36.2981C115.467 36.2981 116.064 36.1489 116.511 36.1489C116.959 36.1489 117.257 36.1489 117.705 36.1489C118.898 36.1489 119.942 36.2981 121.136 36.5965C122.18 36.8948 123.075 37.3424 123.672 38.0883C124.269 38.685 124.716 39.5801 124.865 40.4752C125.015 40.9228 125.015 41.3703 124.865 41.8179C125.015 42.2654 124.865 42.8621 124.567 43.608C124.567 43.4589 124.567 43.4589 124.567 43.608Z" fill="#1A1F35"/>
</svg>
