<svg width="25" height="25" viewBox="0 0 25 25" fill="none" xmlns="http://www.w3.org/2000/svg"><path d="M18.681 2H6.097C4.941 2 4 2.959 4 4.136V21.225C4 22.403 4.941 23.361 6.097 23.361H18.681C19.837 23.361 20.778 22.403 20.778 21.225V4.136C20.778 2.959 19.837 2 18.681 2ZM19.38 21.225C19.38 21.618 19.066 21.937 18.681 21.937H6.097C5.712 21.937 5.398 21.618 5.398 21.225V4.136C5.398 3.743 5.712 3.424 6.097 3.424H18.681C19.066 3.424 19.38 3.743 19.38 4.136V21.225ZM16.235 5.204H8.545C7.774 5.204 7.146 5.843 7.146 6.628V8.676C7.146 9.461 7.774 10.1 8.545 10.1H16.235C17.005 10.1 17.633 9.461 17.633 8.676V6.628C17.633 5.843 17.005 5.204 16.235 5.204ZM16.235 8.675 8.545 8.676V6.628H16.235V8.675ZM16.235 12.235H8.545C7.774 12.235 7.146 12.874 7.146 13.659V18.733C7.146 19.518 7.774 20.157 8.545 20.157H16.235C17.005 20.157 17.633 19.518 17.633 18.733V13.659C17.633 12.874 17.005 12.235 16.235 12.235ZM16.235 15.484H14.604V13.66H16.235V15.484ZM11.574 15.484V13.66H13.204V15.484H11.574ZM13.206 16.908V18.733H11.575V16.908H13.206ZM10.175 13.659V15.484H8.545V13.659H10.175ZM8.545 16.908H10.175V18.733H8.545V16.908ZM14.604 18.733V16.908H16.235V18.733H14.604Z" fill="black"/></svg>